%TF.GenerationSoftware,KiCad,Pcbnew,7.0.1-3b83917a11~172~ubuntu22.04.1*%
%TF.CreationDate,2023-04-03T19:02:56-05:00*%
%TF.ProjectId,adda-blinky,61646461-2d62-46c6-996e-6b792e6b6963,rev?*%
%TF.SameCoordinates,Original*%
%TF.FileFunction,Soldermask,Top*%
%TF.FilePolarity,Negative*%
%FSLAX46Y46*%
G04 Gerber Fmt 4.6, Leading zero omitted, Abs format (unit mm)*
G04 Created by KiCad (PCBNEW 7.0.1-3b83917a11~172~ubuntu22.04.1) date 2023-04-03 19:02:56*
%MOMM*%
%LPD*%
G01*
G04 APERTURE LIST*
G04 Aperture macros list*
%AMRoundRect*
0 Rectangle with rounded corners*
0 $1 Rounding radius*
0 $2 $3 $4 $5 $6 $7 $8 $9 X,Y pos of 4 corners*
0 Add a 4 corners polygon primitive as box body*
4,1,4,$2,$3,$4,$5,$6,$7,$8,$9,$2,$3,0*
0 Add four circle primitives for the rounded corners*
1,1,$1+$1,$2,$3*
1,1,$1+$1,$4,$5*
1,1,$1+$1,$6,$7*
1,1,$1+$1,$8,$9*
0 Add four rect primitives between the rounded corners*
20,1,$1+$1,$2,$3,$4,$5,0*
20,1,$1+$1,$4,$5,$6,$7,0*
20,1,$1+$1,$6,$7,$8,$9,0*
20,1,$1+$1,$8,$9,$2,$3,0*%
%AMFreePoly0*
4,1,14,0.334644,0.085355,0.385355,0.034644,0.400000,-0.000711,0.400000,-0.050000,0.385355,-0.085355,0.350000,-0.100000,-0.350000,-0.100000,-0.385355,-0.085355,-0.400000,-0.050000,-0.400000,0.050000,-0.385355,0.085355,-0.350000,0.100000,0.299289,0.100000,0.334644,0.085355,0.334644,0.085355,$1*%
%AMFreePoly1*
4,1,14,0.385355,0.085355,0.400000,0.050000,0.400000,0.000711,0.385355,-0.034644,0.334644,-0.085355,0.299289,-0.100000,-0.350000,-0.100000,-0.385355,-0.085355,-0.400000,-0.050000,-0.400000,0.050000,-0.385355,0.085355,-0.350000,0.100000,0.350000,0.100000,0.385355,0.085355,0.385355,0.085355,$1*%
%AMFreePoly2*
4,1,14,0.085355,0.385355,0.100000,0.350000,0.100000,-0.350000,0.085355,-0.385355,0.050000,-0.400000,-0.050000,-0.400000,-0.085355,-0.385355,-0.100000,-0.350000,-0.100000,0.299289,-0.085355,0.334644,-0.034644,0.385355,0.000711,0.400000,0.050000,0.400000,0.085355,0.385355,0.085355,0.385355,$1*%
%AMFreePoly3*
4,1,14,0.034644,0.385355,0.085355,0.334644,0.100000,0.299289,0.100000,-0.350000,0.085355,-0.385355,0.050000,-0.400000,-0.050000,-0.400000,-0.085355,-0.385355,-0.100000,-0.350000,-0.100000,0.350000,-0.085355,0.385355,-0.050000,0.400000,-0.000711,0.400000,0.034644,0.385355,0.034644,0.385355,$1*%
%AMFreePoly4*
4,1,14,0.385355,0.085355,0.400000,0.050000,0.400000,-0.050000,0.385355,-0.085355,0.350000,-0.100000,-0.299289,-0.100000,-0.334644,-0.085354,-0.385355,-0.034644,-0.400000,0.000711,-0.400000,0.050000,-0.385355,0.085355,-0.350000,0.100000,0.350000,0.100000,0.385355,0.085355,0.385355,0.085355,$1*%
%AMFreePoly5*
4,1,14,0.385355,0.085355,0.400000,0.050000,0.400000,-0.050000,0.385355,-0.085355,0.350000,-0.100000,-0.350000,-0.100000,-0.385355,-0.085355,-0.400000,-0.050000,-0.400000,-0.000711,-0.385355,0.034644,-0.334643,0.085355,-0.299289,0.100000,0.350000,0.100000,0.385355,0.085355,0.385355,0.085355,$1*%
%AMFreePoly6*
4,1,14,0.085355,0.385355,0.100000,0.350000,0.100000,-0.299289,0.085355,-0.334644,0.034644,-0.385355,-0.000711,-0.400000,-0.050000,-0.400000,-0.085355,-0.385355,-0.100000,-0.350000,-0.100000,0.350000,-0.085355,0.385355,-0.050000,0.400000,0.050000,0.400000,0.085355,0.385355,0.085355,0.385355,$1*%
%AMFreePoly7*
4,1,14,0.085355,0.385355,0.100000,0.350000,0.100000,-0.350000,0.085355,-0.385355,0.050000,-0.400000,0.000711,-0.400000,-0.034644,-0.385355,-0.085355,-0.334644,-0.100000,-0.299289,-0.100000,0.350000,-0.085355,0.385355,-0.050000,0.400000,0.050000,0.400000,0.085355,0.385355,0.085355,0.385355,$1*%
G04 Aperture macros list end*
%ADD10RoundRect,0.250000X0.845000X-0.620000X0.845000X0.620000X-0.845000X0.620000X-0.845000X-0.620000X0*%
%ADD11O,2.190000X1.740000*%
%ADD12RoundRect,0.250000X-0.450000X0.262500X-0.450000X-0.262500X0.450000X-0.262500X0.450000X0.262500X0*%
%ADD13C,6.400000*%
%ADD14RoundRect,0.243750X0.243750X0.456250X-0.243750X0.456250X-0.243750X-0.456250X0.243750X-0.456250X0*%
%ADD15RoundRect,0.243750X-0.456250X0.243750X-0.456250X-0.243750X0.456250X-0.243750X0.456250X0.243750X0*%
%ADD16R,1.700000X1.700000*%
%ADD17O,1.700000X1.700000*%
%ADD18RoundRect,0.250000X-0.620000X-0.845000X0.620000X-0.845000X0.620000X0.845000X-0.620000X0.845000X0*%
%ADD19O,1.740000X2.190000*%
%ADD20RoundRect,0.250000X-0.845000X0.620000X-0.845000X-0.620000X0.845000X-0.620000X0.845000X0.620000X0*%
%ADD21RoundRect,0.250000X-0.262500X-0.450000X0.262500X-0.450000X0.262500X0.450000X-0.262500X0.450000X0*%
%ADD22FreePoly0,270.000000*%
%ADD23RoundRect,0.050000X-0.050000X0.350000X-0.050000X-0.350000X0.050000X-0.350000X0.050000X0.350000X0*%
%ADD24FreePoly1,270.000000*%
%ADD25FreePoly2,270.000000*%
%ADD26RoundRect,0.050000X-0.350000X0.050000X-0.350000X-0.050000X0.350000X-0.050000X0.350000X0.050000X0*%
%ADD27FreePoly3,270.000000*%
%ADD28FreePoly4,270.000000*%
%ADD29FreePoly5,270.000000*%
%ADD30FreePoly6,270.000000*%
%ADD31FreePoly7,270.000000*%
%ADD32RoundRect,0.250000X0.250000X0.475000X-0.250000X0.475000X-0.250000X-0.475000X0.250000X-0.475000X0*%
%ADD33RoundRect,0.250000X-0.250000X-0.475000X0.250000X-0.475000X0.250000X0.475000X-0.250000X0.475000X0*%
%ADD34RoundRect,0.112500X-0.187500X-0.112500X0.187500X-0.112500X0.187500X0.112500X-0.187500X0.112500X0*%
%ADD35RoundRect,0.250000X0.450000X-0.262500X0.450000X0.262500X-0.450000X0.262500X-0.450000X-0.262500X0*%
G04 APERTURE END LIST*
D10*
%TO.C,J1*%
X92710000Y-63500000D03*
D11*
X92710000Y-60960000D03*
%TD*%
D12*
%TO.C,R11*%
X105918000Y-53951500D03*
X105918000Y-55776500D03*
%TD*%
D13*
%TO.C,H3*%
X135890000Y-72390000D03*
%TD*%
D14*
%TO.C,D8*%
X113713500Y-59182000D03*
X111838500Y-59182000D03*
%TD*%
D15*
%TO.C,D4*%
X113819000Y-70208500D03*
X113819000Y-72083500D03*
%TD*%
D16*
%TO.C,RV1*%
X132080000Y-48275000D03*
D17*
X132080000Y-50815000D03*
X132080000Y-53355000D03*
%TD*%
D12*
%TO.C,R1*%
X119888000Y-66677500D03*
X119888000Y-68502500D03*
%TD*%
D15*
%TO.C,D5*%
X111787000Y-70208500D03*
X111787000Y-72083500D03*
%TD*%
D18*
%TO.C,J3*%
X115570000Y-41910000D03*
D19*
X118110000Y-41910000D03*
%TD*%
D12*
%TO.C,R3*%
X115824000Y-66677500D03*
X115824000Y-68502500D03*
%TD*%
%TO.C,R0*%
X121920000Y-66677500D03*
X121920000Y-68502500D03*
%TD*%
D20*
%TO.C,J2*%
X135890000Y-60960000D03*
D11*
X135890000Y-63500000D03*
%TD*%
D12*
%TO.C,R2*%
X117856000Y-66677500D03*
X117856000Y-68502500D03*
%TD*%
D15*
%TO.C,D2*%
X117883000Y-70208500D03*
X117883000Y-72083500D03*
%TD*%
D12*
%TO.C,R7*%
X107696000Y-66677500D03*
X107696000Y-68502500D03*
%TD*%
D21*
%TO.C,R8*%
X124968000Y-50038000D03*
X126793000Y-50038000D03*
%TD*%
D15*
%TO.C,D1*%
X119888000Y-70208500D03*
X119888000Y-72083500D03*
%TD*%
D22*
%TO.C,U2*%
X116370000Y-51890000D03*
D23*
X115970000Y-51890000D03*
X115570000Y-51890000D03*
X115170000Y-51890000D03*
D24*
X114770000Y-51890000D03*
D25*
X114120000Y-52540000D03*
D26*
X114120000Y-52940000D03*
X114120000Y-53340000D03*
X114120000Y-53740000D03*
D27*
X114120000Y-54140000D03*
D28*
X114770000Y-54790000D03*
D23*
X115170000Y-54790000D03*
X115570000Y-54790000D03*
X115970000Y-54790000D03*
D29*
X116370000Y-54790000D03*
D30*
X117020000Y-54140000D03*
D26*
X117020000Y-53740000D03*
X117020000Y-53340000D03*
X117020000Y-52940000D03*
D31*
X117020000Y-52540000D03*
D16*
X115570000Y-53340000D03*
%TD*%
D13*
%TO.C,H4*%
X135890000Y-41910000D03*
%TD*%
D32*
%TO.C,C1*%
X126830500Y-52070000D03*
X124930500Y-52070000D03*
%TD*%
D15*
%TO.C,D0*%
X121920000Y-70208500D03*
X121920000Y-72083500D03*
%TD*%
D12*
%TO.C,R5*%
X111742000Y-66677500D03*
X111742000Y-68502500D03*
%TD*%
D13*
%TO.C,H1*%
X92710000Y-41910000D03*
%TD*%
D15*
%TO.C,D6*%
X109755000Y-70208500D03*
X109755000Y-72083500D03*
%TD*%
D13*
%TO.C,H2*%
X92710000Y-72390000D03*
%TD*%
D33*
%TO.C,C5*%
X119954000Y-52070000D03*
X121854000Y-52070000D03*
%TD*%
D18*
%TO.C,J5*%
X123190000Y-41910000D03*
D19*
X125730000Y-41910000D03*
X128270000Y-41910000D03*
%TD*%
D15*
%TO.C,D3*%
X115851000Y-70208500D03*
X115851000Y-72083500D03*
%TD*%
%TO.C,D7*%
X107723000Y-70208500D03*
X107723000Y-72083500D03*
%TD*%
D21*
%TO.C,R10*%
X134596500Y-57150000D03*
X136421500Y-57150000D03*
%TD*%
D12*
%TO.C,R4*%
X113792000Y-66677500D03*
X113792000Y-68502500D03*
%TD*%
D34*
%TO.C,D10*%
X119854000Y-50038000D03*
X121954000Y-50038000D03*
%TD*%
D18*
%TO.C,J4*%
X100330000Y-41910000D03*
D19*
X102870000Y-41910000D03*
X105410000Y-41910000D03*
X107950000Y-41910000D03*
X110490000Y-41910000D03*
%TD*%
D12*
%TO.C,R6*%
X109728000Y-66677500D03*
X109728000Y-68502500D03*
%TD*%
D35*
%TO.C,R9*%
X103886000Y-55776500D03*
X103886000Y-53951500D03*
%TD*%
M02*
