%TF.GenerationSoftware,KiCad,Pcbnew,7.0.1-3b83917a11~172~ubuntu22.04.1*%
%TF.CreationDate,2023-04-03T01:37:10-05:00*%
%TF.ProjectId,adda-blinky,61646461-2d62-46c6-996e-6b792e6b6963,rev?*%
%TF.SameCoordinates,Original*%
%TF.FileFunction,Copper,L1,Top*%
%TF.FilePolarity,Positive*%
%FSLAX46Y46*%
G04 Gerber Fmt 4.6, Leading zero omitted, Abs format (unit mm)*
G04 Created by KiCad (PCBNEW 7.0.1-3b83917a11~172~ubuntu22.04.1) date 2023-04-03 01:37:10*
%MOMM*%
%LPD*%
G01*
G04 APERTURE LIST*
G04 Aperture macros list*
%AMRoundRect*
0 Rectangle with rounded corners*
0 $1 Rounding radius*
0 $2 $3 $4 $5 $6 $7 $8 $9 X,Y pos of 4 corners*
0 Add a 4 corners polygon primitive as box body*
4,1,4,$2,$3,$4,$5,$6,$7,$8,$9,$2,$3,0*
0 Add four circle primitives for the rounded corners*
1,1,$1+$1,$2,$3*
1,1,$1+$1,$4,$5*
1,1,$1+$1,$6,$7*
1,1,$1+$1,$8,$9*
0 Add four rect primitives between the rounded corners*
20,1,$1+$1,$2,$3,$4,$5,0*
20,1,$1+$1,$4,$5,$6,$7,0*
20,1,$1+$1,$6,$7,$8,$9,0*
20,1,$1+$1,$8,$9,$2,$3,0*%
%AMFreePoly0*
4,1,14,0.334644,0.085355,0.385355,0.034644,0.400000,-0.000711,0.400000,-0.050000,0.385355,-0.085355,0.350000,-0.100000,-0.350000,-0.100000,-0.385355,-0.085355,-0.400000,-0.050000,-0.400000,0.050000,-0.385355,0.085355,-0.350000,0.100000,0.299289,0.100000,0.334644,0.085355,0.334644,0.085355,$1*%
%AMFreePoly1*
4,1,14,0.385355,0.085355,0.400000,0.050000,0.400000,0.000711,0.385355,-0.034644,0.334644,-0.085355,0.299289,-0.100000,-0.350000,-0.100000,-0.385355,-0.085355,-0.400000,-0.050000,-0.400000,0.050000,-0.385355,0.085355,-0.350000,0.100000,0.350000,0.100000,0.385355,0.085355,0.385355,0.085355,$1*%
%AMFreePoly2*
4,1,14,0.085355,0.385355,0.100000,0.350000,0.100000,-0.350000,0.085355,-0.385355,0.050000,-0.400000,-0.050000,-0.400000,-0.085355,-0.385355,-0.100000,-0.350000,-0.100000,0.299289,-0.085355,0.334644,-0.034644,0.385355,0.000711,0.400000,0.050000,0.400000,0.085355,0.385355,0.085355,0.385355,$1*%
%AMFreePoly3*
4,1,14,0.034644,0.385355,0.085355,0.334644,0.100000,0.299289,0.100000,-0.350000,0.085355,-0.385355,0.050000,-0.400000,-0.050000,-0.400000,-0.085355,-0.385355,-0.100000,-0.350000,-0.100000,0.350000,-0.085355,0.385355,-0.050000,0.400000,-0.000711,0.400000,0.034644,0.385355,0.034644,0.385355,$1*%
%AMFreePoly4*
4,1,14,0.385355,0.085355,0.400000,0.050000,0.400000,-0.050000,0.385355,-0.085355,0.350000,-0.100000,-0.299289,-0.100000,-0.334644,-0.085354,-0.385355,-0.034644,-0.400000,0.000711,-0.400000,0.050000,-0.385355,0.085355,-0.350000,0.100000,0.350000,0.100000,0.385355,0.085355,0.385355,0.085355,$1*%
%AMFreePoly5*
4,1,14,0.385355,0.085355,0.400000,0.050000,0.400000,-0.050000,0.385355,-0.085355,0.350000,-0.100000,-0.350000,-0.100000,-0.385355,-0.085355,-0.400000,-0.050000,-0.400000,-0.000711,-0.385355,0.034644,-0.334643,0.085355,-0.299289,0.100000,0.350000,0.100000,0.385355,0.085355,0.385355,0.085355,$1*%
%AMFreePoly6*
4,1,14,0.085355,0.385355,0.100000,0.350000,0.100000,-0.299289,0.085355,-0.334644,0.034644,-0.385355,-0.000711,-0.400000,-0.050000,-0.400000,-0.085355,-0.385355,-0.100000,-0.350000,-0.100000,0.350000,-0.085355,0.385355,-0.050000,0.400000,0.050000,0.400000,0.085355,0.385355,0.085355,0.385355,$1*%
%AMFreePoly7*
4,1,14,0.085355,0.385355,0.100000,0.350000,0.100000,-0.350000,0.085355,-0.385355,0.050000,-0.400000,0.000711,-0.400000,-0.034644,-0.385355,-0.085355,-0.334644,-0.100000,-0.299289,-0.100000,0.350000,-0.085355,0.385355,-0.050000,0.400000,0.050000,0.400000,0.085355,0.385355,0.085355,0.385355,$1*%
G04 Aperture macros list end*
%TA.AperFunction,ComponentPad*%
%ADD10RoundRect,0.250000X0.845000X-0.620000X0.845000X0.620000X-0.845000X0.620000X-0.845000X-0.620000X0*%
%TD*%
%TA.AperFunction,ComponentPad*%
%ADD11O,2.190000X1.740000*%
%TD*%
%TA.AperFunction,ComponentPad*%
%ADD12C,6.400000*%
%TD*%
%TA.AperFunction,SMDPad,CuDef*%
%ADD13RoundRect,0.243750X-0.456250X0.243750X-0.456250X-0.243750X0.456250X-0.243750X0.456250X0.243750X0*%
%TD*%
%TA.AperFunction,ComponentPad*%
%ADD14R,1.700000X1.700000*%
%TD*%
%TA.AperFunction,ComponentPad*%
%ADD15O,1.700000X1.700000*%
%TD*%
%TA.AperFunction,SMDPad,CuDef*%
%ADD16RoundRect,0.250000X-0.450000X0.262500X-0.450000X-0.262500X0.450000X-0.262500X0.450000X0.262500X0*%
%TD*%
%TA.AperFunction,ComponentPad*%
%ADD17RoundRect,0.250000X-0.620000X-0.845000X0.620000X-0.845000X0.620000X0.845000X-0.620000X0.845000X0*%
%TD*%
%TA.AperFunction,ComponentPad*%
%ADD18O,1.740000X2.190000*%
%TD*%
%TA.AperFunction,ComponentPad*%
%ADD19RoundRect,0.250000X-0.845000X0.620000X-0.845000X-0.620000X0.845000X-0.620000X0.845000X0.620000X0*%
%TD*%
%TA.AperFunction,SMDPad,CuDef*%
%ADD20RoundRect,0.250000X-0.262500X-0.450000X0.262500X-0.450000X0.262500X0.450000X-0.262500X0.450000X0*%
%TD*%
%TA.AperFunction,SMDPad,CuDef*%
%ADD21FreePoly0,270.000000*%
%TD*%
%TA.AperFunction,SMDPad,CuDef*%
%ADD22RoundRect,0.050000X-0.050000X0.350000X-0.050000X-0.350000X0.050000X-0.350000X0.050000X0.350000X0*%
%TD*%
%TA.AperFunction,SMDPad,CuDef*%
%ADD23FreePoly1,270.000000*%
%TD*%
%TA.AperFunction,SMDPad,CuDef*%
%ADD24FreePoly2,270.000000*%
%TD*%
%TA.AperFunction,SMDPad,CuDef*%
%ADD25RoundRect,0.050000X-0.350000X0.050000X-0.350000X-0.050000X0.350000X-0.050000X0.350000X0.050000X0*%
%TD*%
%TA.AperFunction,SMDPad,CuDef*%
%ADD26FreePoly3,270.000000*%
%TD*%
%TA.AperFunction,SMDPad,CuDef*%
%ADD27FreePoly4,270.000000*%
%TD*%
%TA.AperFunction,SMDPad,CuDef*%
%ADD28FreePoly5,270.000000*%
%TD*%
%TA.AperFunction,SMDPad,CuDef*%
%ADD29FreePoly6,270.000000*%
%TD*%
%TA.AperFunction,SMDPad,CuDef*%
%ADD30FreePoly7,270.000000*%
%TD*%
%TA.AperFunction,SMDPad,CuDef*%
%ADD31R,1.700000X1.700000*%
%TD*%
%TA.AperFunction,SMDPad,CuDef*%
%ADD32RoundRect,0.250000X0.250000X0.475000X-0.250000X0.475000X-0.250000X-0.475000X0.250000X-0.475000X0*%
%TD*%
%TA.AperFunction,SMDPad,CuDef*%
%ADD33RoundRect,0.250000X-0.250000X-0.475000X0.250000X-0.475000X0.250000X0.475000X-0.250000X0.475000X0*%
%TD*%
%TA.AperFunction,SMDPad,CuDef*%
%ADD34RoundRect,0.112500X-0.187500X-0.112500X0.187500X-0.112500X0.187500X0.112500X-0.187500X0.112500X0*%
%TD*%
%TA.AperFunction,ViaPad*%
%ADD35C,0.800000*%
%TD*%
%TA.AperFunction,Conductor*%
%ADD36C,0.152400*%
%TD*%
%TA.AperFunction,Conductor*%
%ADD37C,0.381000*%
%TD*%
G04 APERTURE END LIST*
D10*
%TO.P,J1,1,Pin_1*%
%TO.N,GND*%
X92710000Y-62230000D03*
D11*
%TO.P,J1,2,Pin_2*%
%TO.N,/PA5{slash}AIN5*%
X92710000Y-59690000D03*
%TD*%
D12*
%TO.P,H3,1*%
%TO.N,N/C*%
X135890000Y-72390000D03*
%TD*%
D13*
%TO.P,D4,1,K*%
%TO.N,Net-(D4-K)*%
X113819000Y-70208500D03*
%TO.P,D4,2,A*%
%TO.N,+5V*%
X113819000Y-72083500D03*
%TD*%
D14*
%TO.P,RV1,1,1*%
%TO.N,+5V*%
X132080000Y-48275000D03*
D15*
%TO.P,RV1,2,2*%
%TO.N,/PB4*%
X132080000Y-50815000D03*
%TO.P,RV1,3,3*%
%TO.N,GND*%
X132080000Y-53355000D03*
%TD*%
D16*
%TO.P,R1,1*%
%TO.N,/PC1*%
X119888000Y-66677500D03*
%TO.P,R1,2*%
%TO.N,Net-(D1-K)*%
X119888000Y-68502500D03*
%TD*%
D13*
%TO.P,D5,1,K*%
%TO.N,Net-(D5-K)*%
X111787000Y-70208500D03*
%TO.P,D5,2,A*%
%TO.N,+5V*%
X111787000Y-72083500D03*
%TD*%
D17*
%TO.P,J3,1,Pin_1*%
%TO.N,GND*%
X115570000Y-41910000D03*
D18*
%TO.P,J3,2,Pin_2*%
%TO.N,/PB5*%
X118110000Y-41910000D03*
%TD*%
D16*
%TO.P,R3,1*%
%TO.N,/PC3*%
X115824000Y-66677500D03*
%TO.P,R3,2*%
%TO.N,Net-(D3-K)*%
X115824000Y-68502500D03*
%TD*%
%TO.P,R0,1*%
%TO.N,/PC0*%
X121920000Y-66677500D03*
%TO.P,R0,2*%
%TO.N,Net-(D0-K)*%
X121920000Y-68502500D03*
%TD*%
D19*
%TO.P,J2,1,Pin_1*%
%TO.N,/PA6{slash}OUT*%
X135890000Y-59690000D03*
D11*
%TO.P,J2,2,Pin_2*%
%TO.N,GND*%
X135890000Y-62230000D03*
%TD*%
D16*
%TO.P,R2,1*%
%TO.N,/PC2*%
X117856000Y-66677500D03*
%TO.P,R2,2*%
%TO.N,Net-(D2-K)*%
X117856000Y-68502500D03*
%TD*%
D13*
%TO.P,D2,1,K*%
%TO.N,Net-(D2-K)*%
X117883000Y-70208500D03*
%TO.P,D2,2,A*%
%TO.N,+5V*%
X117883000Y-72083500D03*
%TD*%
D16*
%TO.P,R7,1*%
%TO.N,/PB3*%
X107696000Y-66677500D03*
%TO.P,R7,2*%
%TO.N,Net-(D7-K)*%
X107696000Y-68502500D03*
%TD*%
D20*
%TO.P,R8,1*%
%TO.N,/~{RESET}*%
X124968000Y-50038000D03*
%TO.P,R8,2*%
%TO.N,/UPDI*%
X126793000Y-50038000D03*
%TD*%
D13*
%TO.P,D1,1,K*%
%TO.N,Net-(D1-K)*%
X119888000Y-70208500D03*
%TO.P,D1,2,A*%
%TO.N,+5V*%
X119888000Y-72083500D03*
%TD*%
D21*
%TO.P,U2,1,PA2*%
%TO.N,/PA2{slash}MISO{slash}SCL*%
X116370000Y-51890000D03*
D22*
%TO.P,U2,2,PA3*%
%TO.N,/PA3{slash}SCK*%
X115970000Y-51890000D03*
%TO.P,U2,3,GND*%
%TO.N,GND*%
X115570000Y-51890000D03*
%TO.P,U2,4,VCC*%
%TO.N,+5V*%
X115170000Y-51890000D03*
D23*
%TO.P,U2,5,PA4*%
%TO.N,/PA4{slash}SS*%
X114770000Y-51890000D03*
D24*
%TO.P,U2,6,PA5*%
%TO.N,/PA5{slash}AIN5*%
X114120000Y-52540000D03*
D25*
%TO.P,U2,7,PA6*%
%TO.N,/PA6{slash}OUT*%
X114120000Y-52940000D03*
%TO.P,U2,8,PA7*%
%TO.N,/PA7*%
X114120000Y-53340000D03*
%TO.P,U2,9,PB5*%
%TO.N,/PB5*%
X114120000Y-53740000D03*
D26*
%TO.P,U2,10,PB4*%
%TO.N,/PB4*%
X114120000Y-54140000D03*
D27*
%TO.P,U2,11,PB3*%
%TO.N,/PB3*%
X114770000Y-54790000D03*
D22*
%TO.P,U2,12,PB2*%
%TO.N,/PB2*%
X115170000Y-54790000D03*
%TO.P,U2,13,PB1*%
%TO.N,/PB1*%
X115570000Y-54790000D03*
%TO.P,U2,14,PB0*%
%TO.N,/PB0*%
X115970000Y-54790000D03*
D28*
%TO.P,U2,15,PC0*%
%TO.N,/PC0*%
X116370000Y-54790000D03*
D29*
%TO.P,U2,16,PC1*%
%TO.N,/PC1*%
X117020000Y-54140000D03*
D25*
%TO.P,U2,17,PC2*%
%TO.N,/PC2*%
X117020000Y-53740000D03*
%TO.P,U2,18,PC3*%
%TO.N,/PC3*%
X117020000Y-53340000D03*
%TO.P,U2,19,~{RESET}/PA0*%
%TO.N,/~{RESET}*%
X117020000Y-52940000D03*
D30*
%TO.P,U2,20,PA1*%
%TO.N,/PA1{slash}MOSI{slash}SDA*%
X117020000Y-52540000D03*
D31*
%TO.P,U2,21,GND*%
%TO.N,GND*%
X115570000Y-53340000D03*
%TD*%
D12*
%TO.P,H4,1*%
%TO.N,N/C*%
X135890000Y-41910000D03*
%TD*%
D32*
%TO.P,C1,1*%
%TO.N,/PB4*%
X126830500Y-52070000D03*
%TO.P,C1,2*%
%TO.N,GND*%
X124930500Y-52070000D03*
%TD*%
D13*
%TO.P,D0,1,K*%
%TO.N,Net-(D0-K)*%
X121920000Y-70208500D03*
%TO.P,D0,2,A*%
%TO.N,+5V*%
X121920000Y-72083500D03*
%TD*%
D16*
%TO.P,R5,1*%
%TO.N,/PB1*%
X111742000Y-66677500D03*
%TO.P,R5,2*%
%TO.N,Net-(D5-K)*%
X111742000Y-68502500D03*
%TD*%
D12*
%TO.P,H1,1*%
%TO.N,N/C*%
X92710000Y-41910000D03*
%TD*%
D13*
%TO.P,D6,1,K*%
%TO.N,Net-(D6-K)*%
X109755000Y-70208500D03*
%TO.P,D6,2,A*%
%TO.N,+5V*%
X109755000Y-72083500D03*
%TD*%
D12*
%TO.P,H2,1*%
%TO.N,N/C*%
X92710000Y-72390000D03*
%TD*%
D33*
%TO.P,C5,1*%
%TO.N,+5V*%
X119954000Y-52070000D03*
%TO.P,C5,2*%
%TO.N,GND*%
X121854000Y-52070000D03*
%TD*%
D17*
%TO.P,J5,1,Pin_1*%
%TO.N,Net-(D10-A)*%
X123190000Y-41910000D03*
D18*
%TO.P,J5,2,Pin_2*%
%TO.N,GND*%
X125730000Y-41910000D03*
%TO.P,J5,3,Pin_3*%
%TO.N,/UPDI*%
X128270000Y-41910000D03*
%TD*%
D13*
%TO.P,D3,1,K*%
%TO.N,Net-(D3-K)*%
X115851000Y-70208500D03*
%TO.P,D3,2,A*%
%TO.N,+5V*%
X115851000Y-72083500D03*
%TD*%
%TO.P,D7,1,K*%
%TO.N,Net-(D7-K)*%
X107723000Y-70208500D03*
%TO.P,D7,2,A*%
%TO.N,+5V*%
X107723000Y-72083500D03*
%TD*%
D16*
%TO.P,R4,1*%
%TO.N,/PB0*%
X113792000Y-66677500D03*
%TO.P,R4,2*%
%TO.N,Net-(D4-K)*%
X113792000Y-68502500D03*
%TD*%
D34*
%TO.P,D10,1,K*%
%TO.N,+5V*%
X119854000Y-50038000D03*
%TO.P,D10,2,A*%
%TO.N,Net-(D10-A)*%
X121954000Y-50038000D03*
%TD*%
D17*
%TO.P,J4,1,Pin_1*%
%TO.N,GND*%
X100330000Y-41910000D03*
D18*
%TO.P,J4,2,Pin_2*%
%TO.N,/PA4{slash}SS*%
X102870000Y-41910000D03*
%TO.P,J4,3,Pin_3*%
%TO.N,/PA3{slash}SCK*%
X105410000Y-41910000D03*
%TO.P,J4,4,Pin_4*%
%TO.N,/PA2{slash}MISO{slash}SCL*%
X107950000Y-41910000D03*
%TO.P,J4,5,Pin_5*%
%TO.N,/PA1{slash}MOSI{slash}SDA*%
X110490000Y-41910000D03*
%TD*%
D16*
%TO.P,R6,1*%
%TO.N,/PB2*%
X109728000Y-66677500D03*
%TO.P,R6,2*%
%TO.N,Net-(D6-K)*%
X109728000Y-68502500D03*
%TD*%
D35*
%TO.N,/PB5*%
X112776000Y-46990000D03*
X112776000Y-53594000D03*
X116840000Y-46990000D03*
X112776000Y-51562000D03*
%TO.N,/PB4*%
X113284000Y-56134000D03*
X123444000Y-56134000D03*
%TO.N,/PC1*%
X119456194Y-54686194D03*
X119433333Y-56008722D03*
%TO.N,/PC2*%
X118783097Y-54013097D03*
X117856000Y-55987390D03*
%TO.N,/PC3*%
X118110000Y-53340000D03*
X116598100Y-55886641D03*
%TO.N,+5V*%
X119380000Y-49022000D03*
X115316000Y-49022000D03*
%TO.N,GND*%
X123323900Y-51562000D03*
X115570000Y-53340000D03*
X123323900Y-52578000D03*
%TO.N,/~{RESET}*%
X123444000Y-48514000D03*
X118364000Y-48393900D03*
%TO.N,/PA6{slash}OUT*%
X113284000Y-57150000D03*
X123444000Y-57150000D03*
%TD*%
D36*
%TO.N,/PB5*%
X118110000Y-45720000D02*
X116840000Y-46990000D01*
X118110000Y-41910000D02*
X118110000Y-45720000D01*
X114120000Y-53740000D02*
X112922000Y-53740000D01*
X112776000Y-46990000D02*
X112776000Y-51562000D01*
X112922000Y-53740000D02*
X112776000Y-53594000D01*
%TO.N,/PB4*%
X123444000Y-56134000D02*
X123444000Y-55456500D01*
X114120000Y-54140000D02*
X113284000Y-54976000D01*
X123444000Y-55456500D02*
X126830500Y-52070000D01*
X126830500Y-52070000D02*
X128085500Y-50815000D01*
X128085500Y-50815000D02*
X132080000Y-50815000D01*
X113284000Y-54976000D02*
X113284000Y-56134000D01*
%TO.N,/PB3*%
X107947500Y-66677500D02*
X107696000Y-66677500D01*
X114770000Y-54790000D02*
X114770000Y-59855000D01*
X114770000Y-59855000D02*
X107947500Y-66677500D01*
%TO.N,/PB2*%
X109855000Y-66550500D02*
X109728000Y-66677500D01*
X115170000Y-54790000D02*
X115170000Y-60725000D01*
X109855000Y-66040000D02*
X109855000Y-66550500D01*
X115170000Y-60725000D02*
X109855000Y-66040000D01*
%TO.N,/PB1*%
X115570000Y-54790000D02*
X115570000Y-62230000D01*
X115570000Y-62230000D02*
X111742000Y-66058000D01*
X111742000Y-66058000D02*
X111742000Y-66677500D01*
%TO.N,/PB0*%
X115970000Y-54790000D02*
X115970000Y-64499500D01*
X115970000Y-64499500D02*
X113792000Y-66677500D01*
%TO.N,/PC0*%
X116370000Y-54790000D02*
X116939290Y-55359290D01*
X120192800Y-55879214D02*
X120192800Y-64950300D01*
X116939290Y-55359290D02*
X119672876Y-55359290D01*
X120192800Y-64950300D02*
X121920000Y-66677500D01*
X119672876Y-55359290D02*
X120192800Y-55879214D01*
%TO.N,/PC1*%
X119888000Y-66677500D02*
X119888000Y-56463389D01*
X119888000Y-56463389D02*
X119433333Y-56008722D01*
X119411697Y-54641697D02*
X119456194Y-54686194D01*
X117020000Y-54140000D02*
X117521697Y-54641697D01*
X117521697Y-54641697D02*
X119411697Y-54641697D01*
%TO.N,/PC2*%
X117856000Y-66677500D02*
X117856000Y-55987390D01*
X117621025Y-53740000D02*
X117894122Y-54013097D01*
X117020000Y-53740000D02*
X117621025Y-53740000D01*
X117894122Y-54013097D02*
X118783097Y-54013097D01*
%TO.N,/PC3*%
X116598100Y-55886641D02*
X116274800Y-56209941D01*
X117020000Y-53340000D02*
X118110000Y-53340000D01*
X115824000Y-65076552D02*
X115824000Y-66677500D01*
X116274800Y-64625752D02*
X115824000Y-65076552D01*
X116274800Y-56209941D02*
X116274800Y-64625752D01*
%TO.N,+5V*%
X119854000Y-50038000D02*
X119854000Y-51970000D01*
X121090600Y-50933400D02*
X119954000Y-52070000D01*
X123831400Y-50933400D02*
X121090600Y-50933400D01*
X119854000Y-51970000D02*
X119954000Y-52070000D01*
X119854000Y-50038000D02*
X119854000Y-49496000D01*
X119854000Y-49496000D02*
X119380000Y-49022000D01*
X123952000Y-51054000D02*
X123831400Y-50933400D01*
D37*
X121604902Y-64811415D02*
X122962900Y-66169413D01*
X119954000Y-52070000D02*
X121604902Y-53720902D01*
X122962900Y-66169413D02*
X122962900Y-71040600D01*
X121920000Y-72083500D02*
X107723000Y-72083500D01*
D36*
X132080000Y-48275000D02*
X129945343Y-48275000D01*
X129945343Y-48275000D02*
X127166343Y-51054000D01*
X115316000Y-49022000D02*
X115170000Y-49168000D01*
X127166343Y-51054000D02*
X123952000Y-51054000D01*
D37*
X121604902Y-53720902D02*
X121604902Y-64811415D01*
X122962900Y-71040600D02*
X121920000Y-72083500D01*
D36*
X115170000Y-49168000D02*
X115170000Y-51890000D01*
%TO.N,GND*%
X124422500Y-51562000D02*
X123323900Y-51562000D01*
X124930500Y-52070000D02*
X124422500Y-51562000D01*
X122936000Y-52070000D02*
X123323900Y-52457900D01*
X122936000Y-52070000D02*
X123323900Y-51682100D01*
X123323900Y-51682100D02*
X123323900Y-51562000D01*
X123323900Y-52457900D02*
X123323900Y-52578000D01*
X122936000Y-52070000D02*
X121854000Y-52070000D01*
X115570000Y-51890000D02*
X115570000Y-53340000D01*
%TO.N,Net-(D10-A)*%
X123190000Y-41910000D02*
X121920000Y-43180000D01*
X121920000Y-43180000D02*
X121920000Y-50038000D01*
%TO.N,/~{RESET}*%
X124968000Y-50038000D02*
X123444000Y-48514000D01*
X117494000Y-52940000D02*
X117020000Y-52940000D01*
X118364000Y-48393900D02*
X118364000Y-52070000D01*
X118364000Y-52070000D02*
X117494000Y-52940000D01*
%TO.N,/PA4{slash}SS*%
X114687400Y-47885400D02*
X111252000Y-44450000D01*
X105410000Y-44450000D02*
X102870000Y-41910000D01*
X111252000Y-44450000D02*
X105410000Y-44450000D01*
X114687400Y-51807400D02*
X114687400Y-47885400D01*
X114770000Y-51890000D02*
X114687400Y-51807400D01*
%TO.N,/PA5{slash}AIN5*%
X92710000Y-59690000D02*
X99860000Y-52540000D01*
X99860000Y-52540000D02*
X114120000Y-52540000D01*
%TO.N,/PA6{slash}OUT*%
X113284000Y-57150000D02*
X112147900Y-56013900D01*
X112147900Y-53333832D02*
X112541732Y-52940000D01*
X112541732Y-52940000D02*
X114120000Y-52940000D01*
X125984000Y-59690000D02*
X123444000Y-57150000D01*
X112147900Y-56013900D02*
X112147900Y-53333832D01*
X135890000Y-59690000D02*
X125984000Y-59690000D01*
%TO.N,/PA1{slash}MOSI{slash}SDA*%
X117020000Y-52540000D02*
X117348500Y-52211500D01*
X117348500Y-48768500D02*
X110490000Y-41910000D01*
X117348500Y-52211500D02*
X117348500Y-48768500D01*
%TO.N,/PA2{slash}MISO{slash}SCL*%
X111175052Y-43434000D02*
X109474000Y-43434000D01*
X116370000Y-48628948D02*
X111175052Y-43434000D01*
X109474000Y-43434000D02*
X107950000Y-41910000D01*
X116370000Y-51890000D02*
X116370000Y-48628948D01*
%TO.N,/PA3{slash}SCK*%
X115970000Y-48660000D02*
X111252000Y-43942000D01*
X111252000Y-43942000D02*
X107442000Y-43942000D01*
X107442000Y-43942000D02*
X105410000Y-41910000D01*
X115970000Y-51890000D02*
X115970000Y-48660000D01*
%TO.N,/UPDI*%
X126793000Y-50038000D02*
X128270000Y-48561000D01*
X128270000Y-48561000D02*
X128270000Y-41910000D01*
%TO.N,Net-(D0-K)*%
X121920000Y-70103000D02*
X121947000Y-70130000D01*
X121920000Y-68502500D02*
X121920000Y-70103000D01*
%TO.N,Net-(D1-K)*%
X119888000Y-70103000D02*
X119915000Y-70130000D01*
X119888000Y-68502500D02*
X119888000Y-70103000D01*
%TO.N,Net-(D2-K)*%
X117856000Y-68502500D02*
X117856000Y-70181500D01*
X117856000Y-70181500D02*
X117883000Y-70208500D01*
%TO.N,Net-(D3-K)*%
X115824000Y-70181500D02*
X115851000Y-70208500D01*
X115824000Y-68502500D02*
X115824000Y-70181500D01*
%TO.N,Net-(D4-K)*%
X113792000Y-70181500D02*
X113819000Y-70208500D01*
X113792000Y-68502500D02*
X113792000Y-70181500D01*
%TO.N,Net-(D5-K)*%
X111742000Y-68502500D02*
X111742000Y-70163500D01*
X111742000Y-70163500D02*
X111787000Y-70208500D01*
%TO.N,Net-(D6-K)*%
X109728000Y-68502500D02*
X109728000Y-70181500D01*
X109728000Y-70181500D02*
X109755000Y-70208500D01*
%TO.N,Net-(D7-K)*%
X107696000Y-68502500D02*
X107696000Y-70181500D01*
X107696000Y-70181500D02*
X107723000Y-70208500D01*
%TD*%
M02*
