M48
; DRILL file {KiCad 7.0.1-3b83917a11~172~ubuntu22.04.1} date Mon 03 Apr 2023 09:29:35 AM CDT
; FORMAT={-:-/ absolute / inch / decimal}
; #@! TF.CreationDate,2023-04-03T09:29:35-05:00
; #@! TF.GenerationSoftware,Kicad,Pcbnew,7.0.1-3b83917a11~172~ubuntu22.04.1
; #@! TF.FileFunction,Plated,1,2,PTH
FMAT,2
INCH
; #@! TA.AperFunction,Plated,PTH,ViaDrill
T1C0.0157
; #@! TA.AperFunction,Plated,PTH,ComponentDrill
T2C0.0394
; #@! TA.AperFunction,Plated,PTH,ComponentDrill
T3C0.0469
; #@! TA.AperFunction,Plated,PTH,ComponentDrill
T4C0.1260
%
G90
G05
T1
X4.44Y-1.85
X4.44Y-2.03
X4.44Y-2.11
X4.46Y-2.21
X4.46Y-2.25
X4.54Y-1.93
X4.55Y-1.99
X4.55Y-2.1
X4.5905Y-2.2003
X4.6Y-1.85
X4.64Y-2.2042
X4.65Y-2.1
X4.6765Y-2.1265
X4.7Y-1.8925
X4.7Y-1.93
X4.7021Y-2.2051
X4.703Y-2.153
X4.8553Y-2.03
X4.8553Y-2.07
X4.86Y-1.93
X4.86Y-2.21
X4.86Y-2.25
T2
X5.2Y-1.9006
X5.2Y-2.0006
X5.2Y-2.1006
T3
X3.65Y-2.4
X3.65Y-2.5
X3.95Y-1.65
X4.05Y-1.65
X4.15Y-1.65
X4.25Y-1.65
X4.35Y-1.65
X4.55Y-1.65
X4.65Y-1.65
X4.85Y-1.65
X4.95Y-1.65
X5.05Y-1.65
X5.35Y-2.4
X5.35Y-2.5
T4
X3.65Y-1.65
X3.65Y-2.85
X5.35Y-1.65
X5.35Y-2.85
T0
M30
