%TF.GenerationSoftware,KiCad,Pcbnew,7.0.1-3b83917a11~172~ubuntu22.04.1*%
%TF.CreationDate,2023-04-03T01:37:10-05:00*%
%TF.ProjectId,adda-blinky,61646461-2d62-46c6-996e-6b792e6b6963,rev?*%
%TF.SameCoordinates,Original*%
%TF.FileFunction,Legend,Top*%
%TF.FilePolarity,Positive*%
%FSLAX46Y46*%
G04 Gerber Fmt 4.6, Leading zero omitted, Abs format (unit mm)*
G04 Created by KiCad (PCBNEW 7.0.1-3b83917a11~172~ubuntu22.04.1) date 2023-04-03 01:37:10*
%MOMM*%
%LPD*%
G01*
G04 APERTURE LIST*
G04 Aperture macros list*
%AMRoundRect*
0 Rectangle with rounded corners*
0 $1 Rounding radius*
0 $2 $3 $4 $5 $6 $7 $8 $9 X,Y pos of 4 corners*
0 Add a 4 corners polygon primitive as box body*
4,1,4,$2,$3,$4,$5,$6,$7,$8,$9,$2,$3,0*
0 Add four circle primitives for the rounded corners*
1,1,$1+$1,$2,$3*
1,1,$1+$1,$4,$5*
1,1,$1+$1,$6,$7*
1,1,$1+$1,$8,$9*
0 Add four rect primitives between the rounded corners*
20,1,$1+$1,$2,$3,$4,$5,0*
20,1,$1+$1,$4,$5,$6,$7,0*
20,1,$1+$1,$6,$7,$8,$9,0*
20,1,$1+$1,$8,$9,$2,$3,0*%
%AMFreePoly0*
4,1,14,0.334644,0.085355,0.385355,0.034644,0.400000,-0.000711,0.400000,-0.050000,0.385355,-0.085355,0.350000,-0.100000,-0.350000,-0.100000,-0.385355,-0.085355,-0.400000,-0.050000,-0.400000,0.050000,-0.385355,0.085355,-0.350000,0.100000,0.299289,0.100000,0.334644,0.085355,0.334644,0.085355,$1*%
%AMFreePoly1*
4,1,14,0.385355,0.085355,0.400000,0.050000,0.400000,0.000711,0.385355,-0.034644,0.334644,-0.085355,0.299289,-0.100000,-0.350000,-0.100000,-0.385355,-0.085355,-0.400000,-0.050000,-0.400000,0.050000,-0.385355,0.085355,-0.350000,0.100000,0.350000,0.100000,0.385355,0.085355,0.385355,0.085355,$1*%
%AMFreePoly2*
4,1,14,0.085355,0.385355,0.100000,0.350000,0.100000,-0.350000,0.085355,-0.385355,0.050000,-0.400000,-0.050000,-0.400000,-0.085355,-0.385355,-0.100000,-0.350000,-0.100000,0.299289,-0.085355,0.334644,-0.034644,0.385355,0.000711,0.400000,0.050000,0.400000,0.085355,0.385355,0.085355,0.385355,$1*%
%AMFreePoly3*
4,1,14,0.034644,0.385355,0.085355,0.334644,0.100000,0.299289,0.100000,-0.350000,0.085355,-0.385355,0.050000,-0.400000,-0.050000,-0.400000,-0.085355,-0.385355,-0.100000,-0.350000,-0.100000,0.350000,-0.085355,0.385355,-0.050000,0.400000,-0.000711,0.400000,0.034644,0.385355,0.034644,0.385355,$1*%
%AMFreePoly4*
4,1,14,0.385355,0.085355,0.400000,0.050000,0.400000,-0.050000,0.385355,-0.085355,0.350000,-0.100000,-0.299289,-0.100000,-0.334644,-0.085354,-0.385355,-0.034644,-0.400000,0.000711,-0.400000,0.050000,-0.385355,0.085355,-0.350000,0.100000,0.350000,0.100000,0.385355,0.085355,0.385355,0.085355,$1*%
%AMFreePoly5*
4,1,14,0.385355,0.085355,0.400000,0.050000,0.400000,-0.050000,0.385355,-0.085355,0.350000,-0.100000,-0.350000,-0.100000,-0.385355,-0.085355,-0.400000,-0.050000,-0.400000,-0.000711,-0.385355,0.034644,-0.334643,0.085355,-0.299289,0.100000,0.350000,0.100000,0.385355,0.085355,0.385355,0.085355,$1*%
%AMFreePoly6*
4,1,14,0.085355,0.385355,0.100000,0.350000,0.100000,-0.299289,0.085355,-0.334644,0.034644,-0.385355,-0.000711,-0.400000,-0.050000,-0.400000,-0.085355,-0.385355,-0.100000,-0.350000,-0.100000,0.350000,-0.085355,0.385355,-0.050000,0.400000,0.050000,0.400000,0.085355,0.385355,0.085355,0.385355,$1*%
%AMFreePoly7*
4,1,14,0.085355,0.385355,0.100000,0.350000,0.100000,-0.350000,0.085355,-0.385355,0.050000,-0.400000,0.000711,-0.400000,-0.034644,-0.385355,-0.085355,-0.334644,-0.100000,-0.299289,-0.100000,0.350000,-0.085355,0.385355,-0.050000,0.400000,0.050000,0.400000,0.085355,0.385355,0.085355,0.385355,$1*%
G04 Aperture macros list end*
%ADD10C,0.762000*%
%ADD11C,0.100000*%
%ADD12C,0.254000*%
%ADD13C,0.150000*%
%ADD14C,0.203200*%
%ADD15C,0.120000*%
%ADD16RoundRect,0.250000X0.845000X-0.620000X0.845000X0.620000X-0.845000X0.620000X-0.845000X-0.620000X0*%
%ADD17O,2.190000X1.740000*%
%ADD18C,6.400000*%
%ADD19RoundRect,0.243750X-0.456250X0.243750X-0.456250X-0.243750X0.456250X-0.243750X0.456250X0.243750X0*%
%ADD20R,1.700000X1.700000*%
%ADD21O,1.700000X1.700000*%
%ADD22RoundRect,0.250000X-0.450000X0.262500X-0.450000X-0.262500X0.450000X-0.262500X0.450000X0.262500X0*%
%ADD23RoundRect,0.250000X-0.620000X-0.845000X0.620000X-0.845000X0.620000X0.845000X-0.620000X0.845000X0*%
%ADD24O,1.740000X2.190000*%
%ADD25RoundRect,0.250000X-0.845000X0.620000X-0.845000X-0.620000X0.845000X-0.620000X0.845000X0.620000X0*%
%ADD26RoundRect,0.250000X-0.262500X-0.450000X0.262500X-0.450000X0.262500X0.450000X-0.262500X0.450000X0*%
%ADD27FreePoly0,270.000000*%
%ADD28RoundRect,0.050000X-0.050000X0.350000X-0.050000X-0.350000X0.050000X-0.350000X0.050000X0.350000X0*%
%ADD29FreePoly1,270.000000*%
%ADD30FreePoly2,270.000000*%
%ADD31RoundRect,0.050000X-0.350000X0.050000X-0.350000X-0.050000X0.350000X-0.050000X0.350000X0.050000X0*%
%ADD32FreePoly3,270.000000*%
%ADD33FreePoly4,270.000000*%
%ADD34FreePoly5,270.000000*%
%ADD35FreePoly6,270.000000*%
%ADD36FreePoly7,270.000000*%
%ADD37RoundRect,0.250000X0.250000X0.475000X-0.250000X0.475000X-0.250000X-0.475000X0.250000X-0.475000X0*%
%ADD38RoundRect,0.250000X-0.250000X-0.475000X0.250000X-0.475000X0.250000X0.475000X-0.250000X0.475000X0*%
%ADD39RoundRect,0.112500X-0.187500X-0.112500X0.187500X-0.112500X0.187500X0.112500X-0.187500X0.112500X0*%
G04 APERTURE END LIST*
D10*
X114681000Y-60960000D02*
G75*
G03*
X114681000Y-60960000I-381000J0D01*
G01*
D11*
X129540000Y-46052500D02*
X139065000Y-46052500D01*
X139065000Y-55577500D01*
X129540000Y-55577500D01*
X129540000Y-46052500D01*
D12*
X110490000Y-60960000D02*
X116840000Y-60960000D01*
X110490000Y-63500000D02*
X104140000Y-63500000D01*
X101600000Y-60960000D01*
X104140000Y-58420000D01*
X110490000Y-58420000D01*
X110490000Y-63500000D01*
X125730000Y-60960000D02*
X123190000Y-63500000D01*
X116840000Y-63500000D01*
X116840000Y-58420000D01*
X123190000Y-58420000D01*
X125730000Y-60960000D01*
X114300000Y-60960000D02*
X114300000Y-65405000D01*
D13*
X97281904Y-61740238D02*
X97186666Y-61692619D01*
X97186666Y-61692619D02*
X97043809Y-61692619D01*
X97043809Y-61692619D02*
X96900952Y-61740238D01*
X96900952Y-61740238D02*
X96805714Y-61835476D01*
X96805714Y-61835476D02*
X96758095Y-61930714D01*
X96758095Y-61930714D02*
X96710476Y-62121190D01*
X96710476Y-62121190D02*
X96710476Y-62264047D01*
X96710476Y-62264047D02*
X96758095Y-62454523D01*
X96758095Y-62454523D02*
X96805714Y-62549761D01*
X96805714Y-62549761D02*
X96900952Y-62645000D01*
X96900952Y-62645000D02*
X97043809Y-62692619D01*
X97043809Y-62692619D02*
X97139047Y-62692619D01*
X97139047Y-62692619D02*
X97281904Y-62645000D01*
X97281904Y-62645000D02*
X97329523Y-62597380D01*
X97329523Y-62597380D02*
X97329523Y-62264047D01*
X97329523Y-62264047D02*
X97139047Y-62264047D01*
X97758095Y-62692619D02*
X97758095Y-61692619D01*
X97758095Y-61692619D02*
X98329523Y-62692619D01*
X98329523Y-62692619D02*
X98329523Y-61692619D01*
X98805714Y-62692619D02*
X98805714Y-61692619D01*
X98805714Y-61692619D02*
X99043809Y-61692619D01*
X99043809Y-61692619D02*
X99186666Y-61740238D01*
X99186666Y-61740238D02*
X99281904Y-61835476D01*
X99281904Y-61835476D02*
X99329523Y-61930714D01*
X99329523Y-61930714D02*
X99377142Y-62121190D01*
X99377142Y-62121190D02*
X99377142Y-62264047D01*
X99377142Y-62264047D02*
X99329523Y-62454523D01*
X99329523Y-62454523D02*
X99281904Y-62549761D01*
X99281904Y-62549761D02*
X99186666Y-62645000D01*
X99186666Y-62645000D02*
X99043809Y-62692619D01*
X99043809Y-62692619D02*
X98805714Y-62692619D01*
D14*
X117493142Y-73625528D02*
X117553618Y-73565052D01*
X117553618Y-73565052D02*
X117674571Y-73504576D01*
X117674571Y-73504576D02*
X117976952Y-73504576D01*
X117976952Y-73504576D02*
X118097904Y-73565052D01*
X118097904Y-73565052D02*
X118158380Y-73625528D01*
X118158380Y-73625528D02*
X118218857Y-73746480D01*
X118218857Y-73746480D02*
X118218857Y-73867433D01*
X118218857Y-73867433D02*
X118158380Y-74048861D01*
X118158380Y-74048861D02*
X117432666Y-74774576D01*
X117432666Y-74774576D02*
X118218857Y-74774576D01*
G36*
X100864610Y-61065229D02*
G01*
X96795771Y-61065229D01*
X96795771Y-59011354D01*
X97297132Y-59011354D01*
X97724087Y-60292221D01*
X97723674Y-60303667D01*
X97733338Y-60319972D01*
X97734518Y-60323512D01*
X97740756Y-60332488D01*
X97754095Y-60354993D01*
X97757626Y-60356762D01*
X97759880Y-60360005D01*
X97784046Y-60370002D01*
X97807437Y-60381724D01*
X97811364Y-60381303D01*
X97815013Y-60382813D01*
X97840735Y-60378159D01*
X97866763Y-60375374D01*
X97869842Y-60372894D01*
X97873726Y-60372192D01*
X97892858Y-60354363D01*
X97913237Y-60337956D01*
X97914485Y-60334210D01*
X97917376Y-60331517D01*
X97923835Y-60306162D01*
X97928511Y-60292133D01*
X98571351Y-60292133D01*
X98583872Y-60334774D01*
X98628963Y-60373846D01*
X98688021Y-60382337D01*
X98742294Y-60357552D01*
X98774551Y-60307358D01*
X98774551Y-59529302D01*
X99174244Y-59529302D01*
X99176113Y-59555436D01*
X99176113Y-60292133D01*
X99188634Y-60334774D01*
X99233725Y-60373846D01*
X99292783Y-60382337D01*
X99347056Y-60357552D01*
X99379313Y-60307358D01*
X99379313Y-59593896D01*
X99398373Y-59574835D01*
X99483127Y-59532459D01*
X99616586Y-59532459D01*
X99685794Y-59567062D01*
X99720399Y-59636273D01*
X99720399Y-60292133D01*
X99732920Y-60334774D01*
X99778011Y-60373846D01*
X99837069Y-60382337D01*
X99891342Y-60357552D01*
X99923599Y-60307358D01*
X99923599Y-59617757D01*
X99926214Y-59593534D01*
X99916927Y-59574960D01*
X99911078Y-59555040D01*
X99903825Y-59548755D01*
X99863971Y-59469047D01*
X99864111Y-59465101D01*
X99850758Y-59442619D01*
X99845865Y-59432833D01*
X99843321Y-59430098D01*
X99833642Y-59413802D01*
X99823396Y-59408679D01*
X99815596Y-59400294D01*
X99797234Y-59395598D01*
X99690900Y-59342431D01*
X99670403Y-59329259D01*
X99649637Y-59329259D01*
X99629204Y-59325582D01*
X99620338Y-59329259D01*
X99464610Y-59329259D01*
X99440387Y-59326644D01*
X99421813Y-59335930D01*
X99401894Y-59341780D01*
X99395609Y-59349033D01*
X99359350Y-59367162D01*
X99321701Y-59334539D01*
X99262643Y-59326048D01*
X99208370Y-59350833D01*
X99176113Y-59401027D01*
X99176113Y-59525879D01*
X99174244Y-59529302D01*
X98774551Y-59529302D01*
X98774551Y-59416252D01*
X98762030Y-59373611D01*
X98716939Y-59334539D01*
X98657881Y-59326048D01*
X98603608Y-59350833D01*
X98571351Y-59401027D01*
X98571351Y-60292133D01*
X97928511Y-60292133D01*
X98339074Y-59060448D01*
X98506855Y-59060448D01*
X98511652Y-59082499D01*
X98513262Y-59105006D01*
X98517895Y-59111195D01*
X98519539Y-59118750D01*
X98535496Y-59134707D01*
X98549019Y-59152771D01*
X98556261Y-59155472D01*
X98582773Y-59181984D01*
X98583872Y-59185726D01*
X98598162Y-59198109D01*
X98609494Y-59213246D01*
X98620270Y-59217265D01*
X98628963Y-59224798D01*
X98640348Y-59226434D01*
X98650443Y-59231947D01*
X98658151Y-59231395D01*
X98665396Y-59234098D01*
X98676637Y-59231652D01*
X98688021Y-59233289D01*
X98698482Y-59228511D01*
X98709955Y-59227691D01*
X98716143Y-59223058D01*
X98723698Y-59221415D01*
X98731830Y-59213282D01*
X98742294Y-59208504D01*
X98748513Y-59198825D01*
X98757720Y-59191934D01*
X98760421Y-59184692D01*
X98800132Y-59144981D01*
X98818197Y-59131458D01*
X98826083Y-59110314D01*
X98836897Y-59090511D01*
X98836345Y-59082800D01*
X98839048Y-59075555D01*
X98834250Y-59053503D01*
X98832641Y-59030998D01*
X98828007Y-59024808D01*
X98826364Y-59017254D01*
X98810407Y-59001297D01*
X98796885Y-58983234D01*
X98789641Y-58980532D01*
X98763128Y-58954019D01*
X98762030Y-58950278D01*
X98747739Y-58937894D01*
X98736407Y-58922757D01*
X98725630Y-58918737D01*
X98716939Y-58911206D01*
X98705552Y-58909568D01*
X98695458Y-58904057D01*
X98687750Y-58904608D01*
X98680505Y-58901906D01*
X98669263Y-58904351D01*
X98657881Y-58902715D01*
X98647417Y-58907493D01*
X98635946Y-58908314D01*
X98629757Y-58912946D01*
X98622203Y-58914590D01*
X98614071Y-58922721D01*
X98603608Y-58927500D01*
X98597388Y-58937178D01*
X98588182Y-58944070D01*
X98585480Y-58951312D01*
X98545769Y-58991023D01*
X98527706Y-59004546D01*
X98519819Y-59025690D01*
X98509006Y-59045494D01*
X98509557Y-59053203D01*
X98506855Y-59060448D01*
X98339074Y-59060448D01*
X98350624Y-59025797D01*
X98352230Y-58981385D01*
X98321809Y-58930059D01*
X98268467Y-58903328D01*
X98209141Y-58909678D01*
X98162667Y-58947096D01*
X97826285Y-59956239D01*
X97494719Y-58961540D01*
X97469356Y-58925047D01*
X97414224Y-58902239D01*
X97355511Y-58912859D01*
X97311861Y-58953535D01*
X97297132Y-59011354D01*
X96795771Y-59011354D01*
X96795771Y-58314771D01*
X100864610Y-58314771D01*
X100864610Y-61065229D01*
G37*
X107272666Y-73504576D02*
X108119333Y-73504576D01*
X108119333Y-73504576D02*
X107575047Y-74774576D01*
X112062380Y-73504576D02*
X111457618Y-73504576D01*
X111457618Y-73504576D02*
X111397142Y-74109338D01*
X111397142Y-74109338D02*
X111457618Y-74048861D01*
X111457618Y-74048861D02*
X111578571Y-73988385D01*
X111578571Y-73988385D02*
X111880952Y-73988385D01*
X111880952Y-73988385D02*
X112001904Y-74048861D01*
X112001904Y-74048861D02*
X112062380Y-74109338D01*
X112062380Y-74109338D02*
X112122857Y-74230290D01*
X112122857Y-74230290D02*
X112122857Y-74532671D01*
X112122857Y-74532671D02*
X112062380Y-74653623D01*
X112062380Y-74653623D02*
X112001904Y-74714100D01*
X112001904Y-74714100D02*
X111880952Y-74774576D01*
X111880952Y-74774576D02*
X111578571Y-74774576D01*
X111578571Y-74774576D02*
X111457618Y-74714100D01*
X111457618Y-74714100D02*
X111397142Y-74653623D01*
X121859523Y-73504576D02*
X121980476Y-73504576D01*
X121980476Y-73504576D02*
X122101428Y-73565052D01*
X122101428Y-73565052D02*
X122161904Y-73625528D01*
X122161904Y-73625528D02*
X122222380Y-73746480D01*
X122222380Y-73746480D02*
X122282857Y-73988385D01*
X122282857Y-73988385D02*
X122282857Y-74290766D01*
X122282857Y-74290766D02*
X122222380Y-74532671D01*
X122222380Y-74532671D02*
X122161904Y-74653623D01*
X122161904Y-74653623D02*
X122101428Y-74714100D01*
X122101428Y-74714100D02*
X121980476Y-74774576D01*
X121980476Y-74774576D02*
X121859523Y-74774576D01*
X121859523Y-74774576D02*
X121738571Y-74714100D01*
X121738571Y-74714100D02*
X121678095Y-74653623D01*
X121678095Y-74653623D02*
X121617618Y-74532671D01*
X121617618Y-74532671D02*
X121557142Y-74290766D01*
X121557142Y-74290766D02*
X121557142Y-73988385D01*
X121557142Y-73988385D02*
X121617618Y-73746480D01*
X121617618Y-73746480D02*
X121678095Y-73625528D01*
X121678095Y-73625528D02*
X121738571Y-73565052D01*
X121738571Y-73565052D02*
X121859523Y-73504576D01*
G36*
X128560577Y-59574835D02*
G01*
X128597736Y-59611994D01*
X128640113Y-59696749D01*
X128640113Y-60011636D01*
X128597736Y-60096389D01*
X128560577Y-60133549D01*
X128475825Y-60175926D01*
X128342365Y-60175926D01*
X128257611Y-60133549D01*
X128220451Y-60096389D01*
X128178075Y-60011637D01*
X128178075Y-59696748D01*
X128220450Y-59611995D01*
X128257611Y-59574835D01*
X128342365Y-59532459D01*
X128475824Y-59532459D01*
X128560577Y-59574835D01*
G37*
G36*
X131598610Y-61065229D02*
G01*
X126259771Y-61065229D01*
X126259771Y-59011354D01*
X126761132Y-59011354D01*
X127188087Y-60292221D01*
X127187674Y-60303667D01*
X127197338Y-60319972D01*
X127198518Y-60323512D01*
X127204756Y-60332488D01*
X127218095Y-60354993D01*
X127221626Y-60356762D01*
X127223880Y-60360005D01*
X127248046Y-60370002D01*
X127271437Y-60381724D01*
X127275364Y-60381303D01*
X127279013Y-60382813D01*
X127304735Y-60378159D01*
X127330763Y-60375374D01*
X127333842Y-60372894D01*
X127337726Y-60372192D01*
X127356858Y-60354363D01*
X127377237Y-60337956D01*
X127378485Y-60334210D01*
X127381376Y-60331517D01*
X127387835Y-60306162D01*
X127595179Y-59684131D01*
X127971198Y-59684131D01*
X127974875Y-59692996D01*
X127974875Y-60030152D01*
X127972260Y-60054375D01*
X127981546Y-60072948D01*
X127987396Y-60092869D01*
X127994649Y-60099154D01*
X128040381Y-60190618D01*
X128044015Y-60207321D01*
X128063818Y-60227124D01*
X128082878Y-60247614D01*
X128084799Y-60248105D01*
X128116578Y-60279884D01*
X128125309Y-60294583D01*
X128150365Y-60307111D01*
X128174920Y-60320519D01*
X128176898Y-60320377D01*
X128268050Y-60365953D01*
X128288548Y-60379126D01*
X128309313Y-60379126D01*
X128329746Y-60382803D01*
X128338612Y-60379126D01*
X128494340Y-60379126D01*
X128518563Y-60381741D01*
X128537136Y-60372454D01*
X128557057Y-60366605D01*
X128563342Y-60359351D01*
X128654806Y-60313619D01*
X128671509Y-60309986D01*
X128691306Y-60290188D01*
X128711802Y-60271123D01*
X128712293Y-60269200D01*
X128744070Y-60237423D01*
X128758770Y-60228692D01*
X128771301Y-60203629D01*
X128784706Y-60179080D01*
X128784564Y-60177102D01*
X128815689Y-60114852D01*
X129181784Y-60114852D01*
X129191070Y-60133425D01*
X129196920Y-60153345D01*
X129204173Y-60159630D01*
X129244026Y-60239335D01*
X129243887Y-60243284D01*
X129257249Y-60265780D01*
X129262135Y-60275552D01*
X129264675Y-60278282D01*
X129274357Y-60294583D01*
X129284603Y-60299706D01*
X129292404Y-60308092D01*
X129310765Y-60312787D01*
X129417098Y-60365953D01*
X129437596Y-60379126D01*
X129458361Y-60379126D01*
X129478794Y-60382803D01*
X129487660Y-60379126D01*
X129643388Y-60379126D01*
X129667611Y-60381741D01*
X129686184Y-60372454D01*
X129706105Y-60366605D01*
X129712390Y-60359351D01*
X129748648Y-60341222D01*
X129786297Y-60373846D01*
X129845355Y-60382337D01*
X129899628Y-60357552D01*
X129931885Y-60307358D01*
X129931885Y-60182503D01*
X129933754Y-60179080D01*
X129931885Y-60152946D01*
X129931885Y-59445929D01*
X130148808Y-59445929D01*
X130173593Y-59500202D01*
X130223787Y-59532459D01*
X130333447Y-59532459D01*
X130333447Y-60090629D01*
X130330832Y-60114852D01*
X130340118Y-60133425D01*
X130345968Y-60153345D01*
X130353221Y-60159630D01*
X130393074Y-60239335D01*
X130392935Y-60243284D01*
X130406297Y-60265780D01*
X130411183Y-60275552D01*
X130413723Y-60278282D01*
X130423405Y-60294583D01*
X130433651Y-60299706D01*
X130441452Y-60308092D01*
X130459813Y-60312787D01*
X130566146Y-60365953D01*
X130586644Y-60379126D01*
X130607409Y-60379126D01*
X130627842Y-60382803D01*
X130636708Y-60379126D01*
X130752035Y-60379126D01*
X130794676Y-60366605D01*
X130833748Y-60321514D01*
X130842239Y-60262456D01*
X130817454Y-60208183D01*
X130767260Y-60175926D01*
X130640461Y-60175926D01*
X130571252Y-60141321D01*
X130536647Y-60072113D01*
X130536647Y-59532459D01*
X130752035Y-59532459D01*
X130794676Y-59519938D01*
X130833748Y-59474847D01*
X130842239Y-59415789D01*
X130817454Y-59361516D01*
X130767260Y-59329259D01*
X130536647Y-59329259D01*
X130536647Y-58992919D01*
X130524126Y-58950278D01*
X130479035Y-58911206D01*
X130419977Y-58902715D01*
X130365704Y-58927500D01*
X130333447Y-58977694D01*
X130333447Y-59329259D01*
X130239012Y-59329259D01*
X130196371Y-59341780D01*
X130157299Y-59386871D01*
X130148808Y-59445929D01*
X129931885Y-59445929D01*
X129931885Y-59416252D01*
X129919364Y-59373611D01*
X129874273Y-59334539D01*
X129815215Y-59326048D01*
X129760942Y-59350833D01*
X129728685Y-59401027D01*
X129728685Y-60114490D01*
X129709625Y-60133549D01*
X129624873Y-60175926D01*
X129491413Y-60175926D01*
X129422204Y-60141321D01*
X129387599Y-60072113D01*
X129387599Y-59416252D01*
X129375078Y-59373611D01*
X129329987Y-59334539D01*
X129270929Y-59326048D01*
X129216656Y-59350833D01*
X129184399Y-59401027D01*
X129184399Y-60090629D01*
X129181784Y-60114852D01*
X128815689Y-60114852D01*
X128830140Y-60085950D01*
X128843313Y-60065453D01*
X128843313Y-60044688D01*
X128846990Y-60024255D01*
X128843313Y-60015389D01*
X128843313Y-59678233D01*
X128845928Y-59654010D01*
X128836641Y-59635436D01*
X128830792Y-59615516D01*
X128823539Y-59609231D01*
X128777806Y-59517764D01*
X128774173Y-59501063D01*
X128754378Y-59481268D01*
X128735310Y-59460770D01*
X128733388Y-59460278D01*
X128701609Y-59428499D01*
X128692880Y-59413802D01*
X128667829Y-59401276D01*
X128643269Y-59387866D01*
X128641290Y-59388007D01*
X128550138Y-59342431D01*
X128529641Y-59329259D01*
X128508875Y-59329259D01*
X128488442Y-59325582D01*
X128479576Y-59329259D01*
X128323848Y-59329259D01*
X128299625Y-59326644D01*
X128281051Y-59335930D01*
X128261132Y-59341780D01*
X128254847Y-59349033D01*
X128163385Y-59394764D01*
X128146681Y-59398398D01*
X128126877Y-59418200D01*
X128106386Y-59437262D01*
X128105894Y-59439184D01*
X128074116Y-59470962D01*
X128059418Y-59479692D01*
X128046892Y-59504742D01*
X128033482Y-59529302D01*
X128033623Y-59531281D01*
X127988047Y-59622434D01*
X127974875Y-59642932D01*
X127974875Y-59663698D01*
X127971198Y-59684131D01*
X127595179Y-59684131D01*
X127814624Y-59025797D01*
X127816230Y-58981385D01*
X127785809Y-58930059D01*
X127732467Y-58903328D01*
X127673141Y-58909678D01*
X127626667Y-58947096D01*
X127290285Y-59956239D01*
X126958719Y-58961540D01*
X126933356Y-58925047D01*
X126878224Y-58902239D01*
X126819511Y-58912859D01*
X126775861Y-58953535D01*
X126761132Y-59011354D01*
X126259771Y-59011354D01*
X126259771Y-58314771D01*
X131598610Y-58314771D01*
X131598610Y-61065229D01*
G37*
D13*
X104947380Y-45958095D02*
X105947380Y-45958095D01*
X105947380Y-45958095D02*
X105947380Y-46339047D01*
X105947380Y-46339047D02*
X105899761Y-46434285D01*
X105899761Y-46434285D02*
X105852142Y-46481904D01*
X105852142Y-46481904D02*
X105756904Y-46529523D01*
X105756904Y-46529523D02*
X105614047Y-46529523D01*
X105614047Y-46529523D02*
X105518809Y-46481904D01*
X105518809Y-46481904D02*
X105471190Y-46434285D01*
X105471190Y-46434285D02*
X105423571Y-46339047D01*
X105423571Y-46339047D02*
X105423571Y-45958095D01*
X105233095Y-46910476D02*
X105233095Y-47386666D01*
X104947380Y-46815238D02*
X105947380Y-47148571D01*
X105947380Y-47148571D02*
X104947380Y-47481904D01*
X105947380Y-47720000D02*
X105947380Y-48339047D01*
X105947380Y-48339047D02*
X105566428Y-48005714D01*
X105566428Y-48005714D02*
X105566428Y-48148571D01*
X105566428Y-48148571D02*
X105518809Y-48243809D01*
X105518809Y-48243809D02*
X105471190Y-48291428D01*
X105471190Y-48291428D02*
X105375952Y-48339047D01*
X105375952Y-48339047D02*
X105137857Y-48339047D01*
X105137857Y-48339047D02*
X105042619Y-48291428D01*
X105042619Y-48291428D02*
X104995000Y-48243809D01*
X104995000Y-48243809D02*
X104947380Y-48148571D01*
X104947380Y-48148571D02*
X104947380Y-47862857D01*
X104947380Y-47862857D02*
X104995000Y-47767619D01*
X104995000Y-47767619D02*
X105042619Y-47720000D01*
X105995000Y-49481904D02*
X104709285Y-48624762D01*
X104995000Y-49767619D02*
X104947380Y-49910476D01*
X104947380Y-49910476D02*
X104947380Y-50148571D01*
X104947380Y-50148571D02*
X104995000Y-50243809D01*
X104995000Y-50243809D02*
X105042619Y-50291428D01*
X105042619Y-50291428D02*
X105137857Y-50339047D01*
X105137857Y-50339047D02*
X105233095Y-50339047D01*
X105233095Y-50339047D02*
X105328333Y-50291428D01*
X105328333Y-50291428D02*
X105375952Y-50243809D01*
X105375952Y-50243809D02*
X105423571Y-50148571D01*
X105423571Y-50148571D02*
X105471190Y-49958095D01*
X105471190Y-49958095D02*
X105518809Y-49862857D01*
X105518809Y-49862857D02*
X105566428Y-49815238D01*
X105566428Y-49815238D02*
X105661666Y-49767619D01*
X105661666Y-49767619D02*
X105756904Y-49767619D01*
X105756904Y-49767619D02*
X105852142Y-49815238D01*
X105852142Y-49815238D02*
X105899761Y-49862857D01*
X105899761Y-49862857D02*
X105947380Y-49958095D01*
X105947380Y-49958095D02*
X105947380Y-50196190D01*
X105947380Y-50196190D02*
X105899761Y-50339047D01*
X105042619Y-51339047D02*
X104995000Y-51291428D01*
X104995000Y-51291428D02*
X104947380Y-51148571D01*
X104947380Y-51148571D02*
X104947380Y-51053333D01*
X104947380Y-51053333D02*
X104995000Y-50910476D01*
X104995000Y-50910476D02*
X105090238Y-50815238D01*
X105090238Y-50815238D02*
X105185476Y-50767619D01*
X105185476Y-50767619D02*
X105375952Y-50720000D01*
X105375952Y-50720000D02*
X105518809Y-50720000D01*
X105518809Y-50720000D02*
X105709285Y-50767619D01*
X105709285Y-50767619D02*
X105804523Y-50815238D01*
X105804523Y-50815238D02*
X105899761Y-50910476D01*
X105899761Y-50910476D02*
X105947380Y-51053333D01*
X105947380Y-51053333D02*
X105947380Y-51148571D01*
X105947380Y-51148571D02*
X105899761Y-51291428D01*
X105899761Y-51291428D02*
X105852142Y-51339047D01*
X104947380Y-51767619D02*
X105947380Y-51767619D01*
X104947380Y-52339047D02*
X105518809Y-51910476D01*
X105947380Y-52339047D02*
X105375952Y-51767619D01*
D14*
X114033904Y-73927909D02*
X114033904Y-74774576D01*
X113731523Y-73444100D02*
X113429142Y-74351242D01*
X113429142Y-74351242D02*
X114215333Y-74351242D01*
X115400666Y-73504576D02*
X116186857Y-73504576D01*
X116186857Y-73504576D02*
X115763523Y-73988385D01*
X115763523Y-73988385D02*
X115944952Y-73988385D01*
X115944952Y-73988385D02*
X116065904Y-74048861D01*
X116065904Y-74048861D02*
X116126380Y-74109338D01*
X116126380Y-74109338D02*
X116186857Y-74230290D01*
X116186857Y-74230290D02*
X116186857Y-74532671D01*
X116186857Y-74532671D02*
X116126380Y-74653623D01*
X116126380Y-74653623D02*
X116065904Y-74714100D01*
X116065904Y-74714100D02*
X115944952Y-74774576D01*
X115944952Y-74774576D02*
X115582095Y-74774576D01*
X115582095Y-74774576D02*
X115461142Y-74714100D01*
X115461142Y-74714100D02*
X115400666Y-74653623D01*
D13*
X128807380Y-45958095D02*
X127997857Y-45958095D01*
X127997857Y-45958095D02*
X127902619Y-46005714D01*
X127902619Y-46005714D02*
X127855000Y-46053333D01*
X127855000Y-46053333D02*
X127807380Y-46148571D01*
X127807380Y-46148571D02*
X127807380Y-46339047D01*
X127807380Y-46339047D02*
X127855000Y-46434285D01*
X127855000Y-46434285D02*
X127902619Y-46481904D01*
X127902619Y-46481904D02*
X127997857Y-46529523D01*
X127997857Y-46529523D02*
X128807380Y-46529523D01*
X127807380Y-47005714D02*
X128807380Y-47005714D01*
X128807380Y-47005714D02*
X128807380Y-47386666D01*
X128807380Y-47386666D02*
X128759761Y-47481904D01*
X128759761Y-47481904D02*
X128712142Y-47529523D01*
X128712142Y-47529523D02*
X128616904Y-47577142D01*
X128616904Y-47577142D02*
X128474047Y-47577142D01*
X128474047Y-47577142D02*
X128378809Y-47529523D01*
X128378809Y-47529523D02*
X128331190Y-47481904D01*
X128331190Y-47481904D02*
X128283571Y-47386666D01*
X128283571Y-47386666D02*
X128283571Y-47005714D01*
X127807380Y-48005714D02*
X128807380Y-48005714D01*
X128807380Y-48005714D02*
X128807380Y-48243809D01*
X128807380Y-48243809D02*
X128759761Y-48386666D01*
X128759761Y-48386666D02*
X128664523Y-48481904D01*
X128664523Y-48481904D02*
X128569285Y-48529523D01*
X128569285Y-48529523D02*
X128378809Y-48577142D01*
X128378809Y-48577142D02*
X128235952Y-48577142D01*
X128235952Y-48577142D02*
X128045476Y-48529523D01*
X128045476Y-48529523D02*
X127950238Y-48481904D01*
X127950238Y-48481904D02*
X127855000Y-48386666D01*
X127855000Y-48386666D02*
X127807380Y-48243809D01*
X127807380Y-48243809D02*
X127807380Y-48005714D01*
X127807380Y-49005714D02*
X128807380Y-49005714D01*
D14*
X109969904Y-73504576D02*
X109727999Y-73504576D01*
X109727999Y-73504576D02*
X109607047Y-73565052D01*
X109607047Y-73565052D02*
X109546571Y-73625528D01*
X109546571Y-73625528D02*
X109425618Y-73806957D01*
X109425618Y-73806957D02*
X109365142Y-74048861D01*
X109365142Y-74048861D02*
X109365142Y-74532671D01*
X109365142Y-74532671D02*
X109425618Y-74653623D01*
X109425618Y-74653623D02*
X109486095Y-74714100D01*
X109486095Y-74714100D02*
X109607047Y-74774576D01*
X109607047Y-74774576D02*
X109848952Y-74774576D01*
X109848952Y-74774576D02*
X109969904Y-74714100D01*
X109969904Y-74714100D02*
X110030380Y-74653623D01*
X110030380Y-74653623D02*
X110090857Y-74532671D01*
X110090857Y-74532671D02*
X110090857Y-74230290D01*
X110090857Y-74230290D02*
X110030380Y-74109338D01*
X110030380Y-74109338D02*
X109969904Y-74048861D01*
X109969904Y-74048861D02*
X109848952Y-73988385D01*
X109848952Y-73988385D02*
X109607047Y-73988385D01*
X109607047Y-73988385D02*
X109486095Y-74048861D01*
X109486095Y-74048861D02*
X109425618Y-74109338D01*
X109425618Y-74109338D02*
X109365142Y-74230290D01*
D13*
X117647380Y-45958095D02*
X118647380Y-45958095D01*
X118647380Y-45958095D02*
X118647380Y-46339047D01*
X118647380Y-46339047D02*
X118599761Y-46434285D01*
X118599761Y-46434285D02*
X118552142Y-46481904D01*
X118552142Y-46481904D02*
X118456904Y-46529523D01*
X118456904Y-46529523D02*
X118314047Y-46529523D01*
X118314047Y-46529523D02*
X118218809Y-46481904D01*
X118218809Y-46481904D02*
X118171190Y-46434285D01*
X118171190Y-46434285D02*
X118123571Y-46339047D01*
X118123571Y-46339047D02*
X118123571Y-45958095D01*
X118171190Y-47291428D02*
X118123571Y-47434285D01*
X118123571Y-47434285D02*
X118075952Y-47481904D01*
X118075952Y-47481904D02*
X117980714Y-47529523D01*
X117980714Y-47529523D02*
X117837857Y-47529523D01*
X117837857Y-47529523D02*
X117742619Y-47481904D01*
X117742619Y-47481904D02*
X117695000Y-47434285D01*
X117695000Y-47434285D02*
X117647380Y-47339047D01*
X117647380Y-47339047D02*
X117647380Y-46958095D01*
X117647380Y-46958095D02*
X118647380Y-46958095D01*
X118647380Y-46958095D02*
X118647380Y-47291428D01*
X118647380Y-47291428D02*
X118599761Y-47386666D01*
X118599761Y-47386666D02*
X118552142Y-47434285D01*
X118552142Y-47434285D02*
X118456904Y-47481904D01*
X118456904Y-47481904D02*
X118361666Y-47481904D01*
X118361666Y-47481904D02*
X118266428Y-47434285D01*
X118266428Y-47434285D02*
X118218809Y-47386666D01*
X118218809Y-47386666D02*
X118171190Y-47291428D01*
X118171190Y-47291428D02*
X118171190Y-46958095D01*
X118647380Y-48434285D02*
X118647380Y-47958095D01*
X118647380Y-47958095D02*
X118171190Y-47910476D01*
X118171190Y-47910476D02*
X118218809Y-47958095D01*
X118218809Y-47958095D02*
X118266428Y-48053333D01*
X118266428Y-48053333D02*
X118266428Y-48291428D01*
X118266428Y-48291428D02*
X118218809Y-48386666D01*
X118218809Y-48386666D02*
X118171190Y-48434285D01*
X118171190Y-48434285D02*
X118075952Y-48481904D01*
X118075952Y-48481904D02*
X117837857Y-48481904D01*
X117837857Y-48481904D02*
X117742619Y-48434285D01*
X117742619Y-48434285D02*
X117695000Y-48386666D01*
X117695000Y-48386666D02*
X117647380Y-48291428D01*
X117647380Y-48291428D02*
X117647380Y-48053333D01*
X117647380Y-48053333D02*
X117695000Y-47958095D01*
X117695000Y-47958095D02*
X117742619Y-47910476D01*
D12*
X117626190Y-62135052D02*
X117626190Y-59595052D01*
X117626190Y-59595052D02*
X118230952Y-59595052D01*
X118230952Y-59595052D02*
X118593809Y-59716004D01*
X118593809Y-59716004D02*
X118835714Y-59957909D01*
X118835714Y-59957909D02*
X118956667Y-60199814D01*
X118956667Y-60199814D02*
X119077619Y-60683623D01*
X119077619Y-60683623D02*
X119077619Y-61046480D01*
X119077619Y-61046480D02*
X118956667Y-61530290D01*
X118956667Y-61530290D02*
X118835714Y-61772195D01*
X118835714Y-61772195D02*
X118593809Y-62014100D01*
X118593809Y-62014100D02*
X118230952Y-62135052D01*
X118230952Y-62135052D02*
X117626190Y-62135052D01*
X120045238Y-61409338D02*
X121254762Y-61409338D01*
X119803333Y-62135052D02*
X120650000Y-59595052D01*
X120650000Y-59595052D02*
X121496667Y-62135052D01*
X123794762Y-61893147D02*
X123673810Y-62014100D01*
X123673810Y-62014100D02*
X123310952Y-62135052D01*
X123310952Y-62135052D02*
X123069048Y-62135052D01*
X123069048Y-62135052D02*
X122706191Y-62014100D01*
X122706191Y-62014100D02*
X122464286Y-61772195D01*
X122464286Y-61772195D02*
X122343333Y-61530290D01*
X122343333Y-61530290D02*
X122222381Y-61046480D01*
X122222381Y-61046480D02*
X122222381Y-60683623D01*
X122222381Y-60683623D02*
X122343333Y-60199814D01*
X122343333Y-60199814D02*
X122464286Y-59957909D01*
X122464286Y-59957909D02*
X122706191Y-59716004D01*
X122706191Y-59716004D02*
X123069048Y-59595052D01*
X123069048Y-59595052D02*
X123310952Y-59595052D01*
X123310952Y-59595052D02*
X123673810Y-59716004D01*
X123673810Y-59716004D02*
X123794762Y-59836957D01*
X103535238Y-61409338D02*
X104744762Y-61409338D01*
X103293333Y-62135052D02*
X104140000Y-59595052D01*
X104140000Y-59595052D02*
X104986667Y-62135052D01*
X105833333Y-62135052D02*
X105833333Y-59595052D01*
X105833333Y-59595052D02*
X106438095Y-59595052D01*
X106438095Y-59595052D02*
X106800952Y-59716004D01*
X106800952Y-59716004D02*
X107042857Y-59957909D01*
X107042857Y-59957909D02*
X107163810Y-60199814D01*
X107163810Y-60199814D02*
X107284762Y-60683623D01*
X107284762Y-60683623D02*
X107284762Y-61046480D01*
X107284762Y-61046480D02*
X107163810Y-61530290D01*
X107163810Y-61530290D02*
X107042857Y-61772195D01*
X107042857Y-61772195D02*
X106800952Y-62014100D01*
X106800952Y-62014100D02*
X106438095Y-62135052D01*
X106438095Y-62135052D02*
X105833333Y-62135052D01*
X109824762Y-61893147D02*
X109703810Y-62014100D01*
X109703810Y-62014100D02*
X109340952Y-62135052D01*
X109340952Y-62135052D02*
X109099048Y-62135052D01*
X109099048Y-62135052D02*
X108736191Y-62014100D01*
X108736191Y-62014100D02*
X108494286Y-61772195D01*
X108494286Y-61772195D02*
X108373333Y-61530290D01*
X108373333Y-61530290D02*
X108252381Y-61046480D01*
X108252381Y-61046480D02*
X108252381Y-60683623D01*
X108252381Y-60683623D02*
X108373333Y-60199814D01*
X108373333Y-60199814D02*
X108494286Y-59957909D01*
X108494286Y-59957909D02*
X108736191Y-59716004D01*
X108736191Y-59716004D02*
X109099048Y-59595052D01*
X109099048Y-59595052D02*
X109340952Y-59595052D01*
X109340952Y-59595052D02*
X109703810Y-59716004D01*
X109703810Y-59716004D02*
X109824762Y-59836957D01*
D13*
X128777904Y-61740238D02*
X128682666Y-61692619D01*
X128682666Y-61692619D02*
X128539809Y-61692619D01*
X128539809Y-61692619D02*
X128396952Y-61740238D01*
X128396952Y-61740238D02*
X128301714Y-61835476D01*
X128301714Y-61835476D02*
X128254095Y-61930714D01*
X128254095Y-61930714D02*
X128206476Y-62121190D01*
X128206476Y-62121190D02*
X128206476Y-62264047D01*
X128206476Y-62264047D02*
X128254095Y-62454523D01*
X128254095Y-62454523D02*
X128301714Y-62549761D01*
X128301714Y-62549761D02*
X128396952Y-62645000D01*
X128396952Y-62645000D02*
X128539809Y-62692619D01*
X128539809Y-62692619D02*
X128635047Y-62692619D01*
X128635047Y-62692619D02*
X128777904Y-62645000D01*
X128777904Y-62645000D02*
X128825523Y-62597380D01*
X128825523Y-62597380D02*
X128825523Y-62264047D01*
X128825523Y-62264047D02*
X128635047Y-62264047D01*
X129254095Y-62692619D02*
X129254095Y-61692619D01*
X129254095Y-61692619D02*
X129825523Y-62692619D01*
X129825523Y-62692619D02*
X129825523Y-61692619D01*
X130301714Y-62692619D02*
X130301714Y-61692619D01*
X130301714Y-61692619D02*
X130539809Y-61692619D01*
X130539809Y-61692619D02*
X130682666Y-61740238D01*
X130682666Y-61740238D02*
X130777904Y-61835476D01*
X130777904Y-61835476D02*
X130825523Y-61930714D01*
X130825523Y-61930714D02*
X130873142Y-62121190D01*
X130873142Y-62121190D02*
X130873142Y-62264047D01*
X130873142Y-62264047D02*
X130825523Y-62454523D01*
X130825523Y-62454523D02*
X130777904Y-62549761D01*
X130777904Y-62549761D02*
X130682666Y-62645000D01*
X130682666Y-62645000D02*
X130539809Y-62692619D01*
X130539809Y-62692619D02*
X130301714Y-62692619D01*
X102407380Y-45958095D02*
X103407380Y-45958095D01*
X103407380Y-45958095D02*
X103407380Y-46339047D01*
X103407380Y-46339047D02*
X103359761Y-46434285D01*
X103359761Y-46434285D02*
X103312142Y-46481904D01*
X103312142Y-46481904D02*
X103216904Y-46529523D01*
X103216904Y-46529523D02*
X103074047Y-46529523D01*
X103074047Y-46529523D02*
X102978809Y-46481904D01*
X102978809Y-46481904D02*
X102931190Y-46434285D01*
X102931190Y-46434285D02*
X102883571Y-46339047D01*
X102883571Y-46339047D02*
X102883571Y-45958095D01*
X102693095Y-46910476D02*
X102693095Y-47386666D01*
X102407380Y-46815238D02*
X103407380Y-47148571D01*
X103407380Y-47148571D02*
X102407380Y-47481904D01*
X103074047Y-48243809D02*
X102407380Y-48243809D01*
X103455000Y-48005714D02*
X102740714Y-47767619D01*
X102740714Y-47767619D02*
X102740714Y-48386666D01*
X103455000Y-49481904D02*
X102169285Y-48624762D01*
X102455000Y-49767619D02*
X102407380Y-49910476D01*
X102407380Y-49910476D02*
X102407380Y-50148571D01*
X102407380Y-50148571D02*
X102455000Y-50243809D01*
X102455000Y-50243809D02*
X102502619Y-50291428D01*
X102502619Y-50291428D02*
X102597857Y-50339047D01*
X102597857Y-50339047D02*
X102693095Y-50339047D01*
X102693095Y-50339047D02*
X102788333Y-50291428D01*
X102788333Y-50291428D02*
X102835952Y-50243809D01*
X102835952Y-50243809D02*
X102883571Y-50148571D01*
X102883571Y-50148571D02*
X102931190Y-49958095D01*
X102931190Y-49958095D02*
X102978809Y-49862857D01*
X102978809Y-49862857D02*
X103026428Y-49815238D01*
X103026428Y-49815238D02*
X103121666Y-49767619D01*
X103121666Y-49767619D02*
X103216904Y-49767619D01*
X103216904Y-49767619D02*
X103312142Y-49815238D01*
X103312142Y-49815238D02*
X103359761Y-49862857D01*
X103359761Y-49862857D02*
X103407380Y-49958095D01*
X103407380Y-49958095D02*
X103407380Y-50196190D01*
X103407380Y-50196190D02*
X103359761Y-50339047D01*
X102455000Y-50720000D02*
X102407380Y-50862857D01*
X102407380Y-50862857D02*
X102407380Y-51100952D01*
X102407380Y-51100952D02*
X102455000Y-51196190D01*
X102455000Y-51196190D02*
X102502619Y-51243809D01*
X102502619Y-51243809D02*
X102597857Y-51291428D01*
X102597857Y-51291428D02*
X102693095Y-51291428D01*
X102693095Y-51291428D02*
X102788333Y-51243809D01*
X102788333Y-51243809D02*
X102835952Y-51196190D01*
X102835952Y-51196190D02*
X102883571Y-51100952D01*
X102883571Y-51100952D02*
X102931190Y-50910476D01*
X102931190Y-50910476D02*
X102978809Y-50815238D01*
X102978809Y-50815238D02*
X103026428Y-50767619D01*
X103026428Y-50767619D02*
X103121666Y-50720000D01*
X103121666Y-50720000D02*
X103216904Y-50720000D01*
X103216904Y-50720000D02*
X103312142Y-50767619D01*
X103312142Y-50767619D02*
X103359761Y-50815238D01*
X103359761Y-50815238D02*
X103407380Y-50910476D01*
X103407380Y-50910476D02*
X103407380Y-51148571D01*
X103407380Y-51148571D02*
X103359761Y-51291428D01*
X107487380Y-45958095D02*
X108487380Y-45958095D01*
X108487380Y-45958095D02*
X108487380Y-46339047D01*
X108487380Y-46339047D02*
X108439761Y-46434285D01*
X108439761Y-46434285D02*
X108392142Y-46481904D01*
X108392142Y-46481904D02*
X108296904Y-46529523D01*
X108296904Y-46529523D02*
X108154047Y-46529523D01*
X108154047Y-46529523D02*
X108058809Y-46481904D01*
X108058809Y-46481904D02*
X108011190Y-46434285D01*
X108011190Y-46434285D02*
X107963571Y-46339047D01*
X107963571Y-46339047D02*
X107963571Y-45958095D01*
X107773095Y-46910476D02*
X107773095Y-47386666D01*
X107487380Y-46815238D02*
X108487380Y-47148571D01*
X108487380Y-47148571D02*
X107487380Y-47481904D01*
X108392142Y-47767619D02*
X108439761Y-47815238D01*
X108439761Y-47815238D02*
X108487380Y-47910476D01*
X108487380Y-47910476D02*
X108487380Y-48148571D01*
X108487380Y-48148571D02*
X108439761Y-48243809D01*
X108439761Y-48243809D02*
X108392142Y-48291428D01*
X108392142Y-48291428D02*
X108296904Y-48339047D01*
X108296904Y-48339047D02*
X108201666Y-48339047D01*
X108201666Y-48339047D02*
X108058809Y-48291428D01*
X108058809Y-48291428D02*
X107487380Y-47720000D01*
X107487380Y-47720000D02*
X107487380Y-48339047D01*
X108535000Y-49481904D02*
X107249285Y-48624762D01*
X107487380Y-49815238D02*
X108487380Y-49815238D01*
X108487380Y-49815238D02*
X107773095Y-50148571D01*
X107773095Y-50148571D02*
X108487380Y-50481904D01*
X108487380Y-50481904D02*
X107487380Y-50481904D01*
X107487380Y-50958095D02*
X108487380Y-50958095D01*
X107535000Y-51386666D02*
X107487380Y-51529523D01*
X107487380Y-51529523D02*
X107487380Y-51767618D01*
X107487380Y-51767618D02*
X107535000Y-51862856D01*
X107535000Y-51862856D02*
X107582619Y-51910475D01*
X107582619Y-51910475D02*
X107677857Y-51958094D01*
X107677857Y-51958094D02*
X107773095Y-51958094D01*
X107773095Y-51958094D02*
X107868333Y-51910475D01*
X107868333Y-51910475D02*
X107915952Y-51862856D01*
X107915952Y-51862856D02*
X107963571Y-51767618D01*
X107963571Y-51767618D02*
X108011190Y-51577142D01*
X108011190Y-51577142D02*
X108058809Y-51481904D01*
X108058809Y-51481904D02*
X108106428Y-51434285D01*
X108106428Y-51434285D02*
X108201666Y-51386666D01*
X108201666Y-51386666D02*
X108296904Y-51386666D01*
X108296904Y-51386666D02*
X108392142Y-51434285D01*
X108392142Y-51434285D02*
X108439761Y-51481904D01*
X108439761Y-51481904D02*
X108487380Y-51577142D01*
X108487380Y-51577142D02*
X108487380Y-51815237D01*
X108487380Y-51815237D02*
X108439761Y-51958094D01*
X108487380Y-52577142D02*
X108487380Y-52767618D01*
X108487380Y-52767618D02*
X108439761Y-52862856D01*
X108439761Y-52862856D02*
X108344523Y-52958094D01*
X108344523Y-52958094D02*
X108154047Y-53005713D01*
X108154047Y-53005713D02*
X107820714Y-53005713D01*
X107820714Y-53005713D02*
X107630238Y-52958094D01*
X107630238Y-52958094D02*
X107535000Y-52862856D01*
X107535000Y-52862856D02*
X107487380Y-52767618D01*
X107487380Y-52767618D02*
X107487380Y-52577142D01*
X107487380Y-52577142D02*
X107535000Y-52481904D01*
X107535000Y-52481904D02*
X107630238Y-52386666D01*
X107630238Y-52386666D02*
X107820714Y-52339047D01*
X107820714Y-52339047D02*
X108154047Y-52339047D01*
X108154047Y-52339047D02*
X108344523Y-52386666D01*
X108344523Y-52386666D02*
X108439761Y-52481904D01*
X108439761Y-52481904D02*
X108487380Y-52577142D01*
X108535000Y-54148570D02*
X107249285Y-53291428D01*
X107535000Y-54434285D02*
X107487380Y-54577142D01*
X107487380Y-54577142D02*
X107487380Y-54815237D01*
X107487380Y-54815237D02*
X107535000Y-54910475D01*
X107535000Y-54910475D02*
X107582619Y-54958094D01*
X107582619Y-54958094D02*
X107677857Y-55005713D01*
X107677857Y-55005713D02*
X107773095Y-55005713D01*
X107773095Y-55005713D02*
X107868333Y-54958094D01*
X107868333Y-54958094D02*
X107915952Y-54910475D01*
X107915952Y-54910475D02*
X107963571Y-54815237D01*
X107963571Y-54815237D02*
X108011190Y-54624761D01*
X108011190Y-54624761D02*
X108058809Y-54529523D01*
X108058809Y-54529523D02*
X108106428Y-54481904D01*
X108106428Y-54481904D02*
X108201666Y-54434285D01*
X108201666Y-54434285D02*
X108296904Y-54434285D01*
X108296904Y-54434285D02*
X108392142Y-54481904D01*
X108392142Y-54481904D02*
X108439761Y-54529523D01*
X108439761Y-54529523D02*
X108487380Y-54624761D01*
X108487380Y-54624761D02*
X108487380Y-54862856D01*
X108487380Y-54862856D02*
X108439761Y-55005713D01*
X107582619Y-56005713D02*
X107535000Y-55958094D01*
X107535000Y-55958094D02*
X107487380Y-55815237D01*
X107487380Y-55815237D02*
X107487380Y-55719999D01*
X107487380Y-55719999D02*
X107535000Y-55577142D01*
X107535000Y-55577142D02*
X107630238Y-55481904D01*
X107630238Y-55481904D02*
X107725476Y-55434285D01*
X107725476Y-55434285D02*
X107915952Y-55386666D01*
X107915952Y-55386666D02*
X108058809Y-55386666D01*
X108058809Y-55386666D02*
X108249285Y-55434285D01*
X108249285Y-55434285D02*
X108344523Y-55481904D01*
X108344523Y-55481904D02*
X108439761Y-55577142D01*
X108439761Y-55577142D02*
X108487380Y-55719999D01*
X108487380Y-55719999D02*
X108487380Y-55815237D01*
X108487380Y-55815237D02*
X108439761Y-55958094D01*
X108439761Y-55958094D02*
X108392142Y-56005713D01*
X107487380Y-56910475D02*
X107487380Y-56434285D01*
X107487380Y-56434285D02*
X108487380Y-56434285D01*
D14*
X120250857Y-74774576D02*
X119525142Y-74774576D01*
X119887999Y-74774576D02*
X119887999Y-73504576D01*
X119887999Y-73504576D02*
X119767047Y-73686004D01*
X119767047Y-73686004D02*
X119646095Y-73806957D01*
X119646095Y-73806957D02*
X119525142Y-73867433D01*
D13*
X126219761Y-46481904D02*
X126267380Y-46386666D01*
X126267380Y-46386666D02*
X126267380Y-46243809D01*
X126267380Y-46243809D02*
X126219761Y-46100952D01*
X126219761Y-46100952D02*
X126124523Y-46005714D01*
X126124523Y-46005714D02*
X126029285Y-45958095D01*
X126029285Y-45958095D02*
X125838809Y-45910476D01*
X125838809Y-45910476D02*
X125695952Y-45910476D01*
X125695952Y-45910476D02*
X125505476Y-45958095D01*
X125505476Y-45958095D02*
X125410238Y-46005714D01*
X125410238Y-46005714D02*
X125315000Y-46100952D01*
X125315000Y-46100952D02*
X125267380Y-46243809D01*
X125267380Y-46243809D02*
X125267380Y-46339047D01*
X125267380Y-46339047D02*
X125315000Y-46481904D01*
X125315000Y-46481904D02*
X125362619Y-46529523D01*
X125362619Y-46529523D02*
X125695952Y-46529523D01*
X125695952Y-46529523D02*
X125695952Y-46339047D01*
X125267380Y-46958095D02*
X126267380Y-46958095D01*
X126267380Y-46958095D02*
X125267380Y-47529523D01*
X125267380Y-47529523D02*
X126267380Y-47529523D01*
X125267380Y-48005714D02*
X126267380Y-48005714D01*
X126267380Y-48005714D02*
X126267380Y-48243809D01*
X126267380Y-48243809D02*
X126219761Y-48386666D01*
X126219761Y-48386666D02*
X126124523Y-48481904D01*
X126124523Y-48481904D02*
X126029285Y-48529523D01*
X126029285Y-48529523D02*
X125838809Y-48577142D01*
X125838809Y-48577142D02*
X125695952Y-48577142D01*
X125695952Y-48577142D02*
X125505476Y-48529523D01*
X125505476Y-48529523D02*
X125410238Y-48481904D01*
X125410238Y-48481904D02*
X125315000Y-48386666D01*
X125315000Y-48386666D02*
X125267380Y-48243809D01*
X125267380Y-48243809D02*
X125267380Y-48005714D01*
X110027380Y-45958095D02*
X111027380Y-45958095D01*
X111027380Y-45958095D02*
X111027380Y-46339047D01*
X111027380Y-46339047D02*
X110979761Y-46434285D01*
X110979761Y-46434285D02*
X110932142Y-46481904D01*
X110932142Y-46481904D02*
X110836904Y-46529523D01*
X110836904Y-46529523D02*
X110694047Y-46529523D01*
X110694047Y-46529523D02*
X110598809Y-46481904D01*
X110598809Y-46481904D02*
X110551190Y-46434285D01*
X110551190Y-46434285D02*
X110503571Y-46339047D01*
X110503571Y-46339047D02*
X110503571Y-45958095D01*
X110313095Y-46910476D02*
X110313095Y-47386666D01*
X110027380Y-46815238D02*
X111027380Y-47148571D01*
X111027380Y-47148571D02*
X110027380Y-47481904D01*
X110027380Y-48339047D02*
X110027380Y-47767619D01*
X110027380Y-48053333D02*
X111027380Y-48053333D01*
X111027380Y-48053333D02*
X110884523Y-47958095D01*
X110884523Y-47958095D02*
X110789285Y-47862857D01*
X110789285Y-47862857D02*
X110741666Y-47767619D01*
X111075000Y-49481904D02*
X109789285Y-48624762D01*
X110027380Y-49815238D02*
X111027380Y-49815238D01*
X111027380Y-49815238D02*
X110313095Y-50148571D01*
X110313095Y-50148571D02*
X111027380Y-50481904D01*
X111027380Y-50481904D02*
X110027380Y-50481904D01*
X111027380Y-51148571D02*
X111027380Y-51339047D01*
X111027380Y-51339047D02*
X110979761Y-51434285D01*
X110979761Y-51434285D02*
X110884523Y-51529523D01*
X110884523Y-51529523D02*
X110694047Y-51577142D01*
X110694047Y-51577142D02*
X110360714Y-51577142D01*
X110360714Y-51577142D02*
X110170238Y-51529523D01*
X110170238Y-51529523D02*
X110075000Y-51434285D01*
X110075000Y-51434285D02*
X110027380Y-51339047D01*
X110027380Y-51339047D02*
X110027380Y-51148571D01*
X110027380Y-51148571D02*
X110075000Y-51053333D01*
X110075000Y-51053333D02*
X110170238Y-50958095D01*
X110170238Y-50958095D02*
X110360714Y-50910476D01*
X110360714Y-50910476D02*
X110694047Y-50910476D01*
X110694047Y-50910476D02*
X110884523Y-50958095D01*
X110884523Y-50958095D02*
X110979761Y-51053333D01*
X110979761Y-51053333D02*
X111027380Y-51148571D01*
X110075000Y-51958095D02*
X110027380Y-52100952D01*
X110027380Y-52100952D02*
X110027380Y-52339047D01*
X110027380Y-52339047D02*
X110075000Y-52434285D01*
X110075000Y-52434285D02*
X110122619Y-52481904D01*
X110122619Y-52481904D02*
X110217857Y-52529523D01*
X110217857Y-52529523D02*
X110313095Y-52529523D01*
X110313095Y-52529523D02*
X110408333Y-52481904D01*
X110408333Y-52481904D02*
X110455952Y-52434285D01*
X110455952Y-52434285D02*
X110503571Y-52339047D01*
X110503571Y-52339047D02*
X110551190Y-52148571D01*
X110551190Y-52148571D02*
X110598809Y-52053333D01*
X110598809Y-52053333D02*
X110646428Y-52005714D01*
X110646428Y-52005714D02*
X110741666Y-51958095D01*
X110741666Y-51958095D02*
X110836904Y-51958095D01*
X110836904Y-51958095D02*
X110932142Y-52005714D01*
X110932142Y-52005714D02*
X110979761Y-52053333D01*
X110979761Y-52053333D02*
X111027380Y-52148571D01*
X111027380Y-52148571D02*
X111027380Y-52386666D01*
X111027380Y-52386666D02*
X110979761Y-52529523D01*
X110027380Y-52958095D02*
X111027380Y-52958095D01*
X111075000Y-54148570D02*
X109789285Y-53291428D01*
X110075000Y-54434285D02*
X110027380Y-54577142D01*
X110027380Y-54577142D02*
X110027380Y-54815237D01*
X110027380Y-54815237D02*
X110075000Y-54910475D01*
X110075000Y-54910475D02*
X110122619Y-54958094D01*
X110122619Y-54958094D02*
X110217857Y-55005713D01*
X110217857Y-55005713D02*
X110313095Y-55005713D01*
X110313095Y-55005713D02*
X110408333Y-54958094D01*
X110408333Y-54958094D02*
X110455952Y-54910475D01*
X110455952Y-54910475D02*
X110503571Y-54815237D01*
X110503571Y-54815237D02*
X110551190Y-54624761D01*
X110551190Y-54624761D02*
X110598809Y-54529523D01*
X110598809Y-54529523D02*
X110646428Y-54481904D01*
X110646428Y-54481904D02*
X110741666Y-54434285D01*
X110741666Y-54434285D02*
X110836904Y-54434285D01*
X110836904Y-54434285D02*
X110932142Y-54481904D01*
X110932142Y-54481904D02*
X110979761Y-54529523D01*
X110979761Y-54529523D02*
X111027380Y-54624761D01*
X111027380Y-54624761D02*
X111027380Y-54862856D01*
X111027380Y-54862856D02*
X110979761Y-55005713D01*
X110027380Y-55434285D02*
X111027380Y-55434285D01*
X111027380Y-55434285D02*
X111027380Y-55672380D01*
X111027380Y-55672380D02*
X110979761Y-55815237D01*
X110979761Y-55815237D02*
X110884523Y-55910475D01*
X110884523Y-55910475D02*
X110789285Y-55958094D01*
X110789285Y-55958094D02*
X110598809Y-56005713D01*
X110598809Y-56005713D02*
X110455952Y-56005713D01*
X110455952Y-56005713D02*
X110265476Y-55958094D01*
X110265476Y-55958094D02*
X110170238Y-55910475D01*
X110170238Y-55910475D02*
X110075000Y-55815237D01*
X110075000Y-55815237D02*
X110027380Y-55672380D01*
X110027380Y-55672380D02*
X110027380Y-55434285D01*
X110313095Y-56386666D02*
X110313095Y-56862856D01*
X110027380Y-56291428D02*
X111027380Y-56624761D01*
X111027380Y-56624761D02*
X110027380Y-56958094D01*
X123727380Y-45815238D02*
X122727380Y-46148571D01*
X122727380Y-46148571D02*
X123727380Y-46481904D01*
X122727380Y-46815238D02*
X123727380Y-46815238D01*
X123727380Y-46815238D02*
X123727380Y-47053333D01*
X123727380Y-47053333D02*
X123679761Y-47196190D01*
X123679761Y-47196190D02*
X123584523Y-47291428D01*
X123584523Y-47291428D02*
X123489285Y-47339047D01*
X123489285Y-47339047D02*
X123298809Y-47386666D01*
X123298809Y-47386666D02*
X123155952Y-47386666D01*
X123155952Y-47386666D02*
X122965476Y-47339047D01*
X122965476Y-47339047D02*
X122870238Y-47291428D01*
X122870238Y-47291428D02*
X122775000Y-47196190D01*
X122775000Y-47196190D02*
X122727380Y-47053333D01*
X122727380Y-47053333D02*
X122727380Y-46815238D01*
X122727380Y-47815238D02*
X123727380Y-47815238D01*
X123727380Y-47815238D02*
X123727380Y-48053333D01*
X123727380Y-48053333D02*
X123679761Y-48196190D01*
X123679761Y-48196190D02*
X123584523Y-48291428D01*
X123584523Y-48291428D02*
X123489285Y-48339047D01*
X123489285Y-48339047D02*
X123298809Y-48386666D01*
X123298809Y-48386666D02*
X123155952Y-48386666D01*
X123155952Y-48386666D02*
X122965476Y-48339047D01*
X122965476Y-48339047D02*
X122870238Y-48291428D01*
X122870238Y-48291428D02*
X122775000Y-48196190D01*
X122775000Y-48196190D02*
X122727380Y-48053333D01*
X122727380Y-48053333D02*
X122727380Y-47815238D01*
X100819761Y-46481904D02*
X100867380Y-46386666D01*
X100867380Y-46386666D02*
X100867380Y-46243809D01*
X100867380Y-46243809D02*
X100819761Y-46100952D01*
X100819761Y-46100952D02*
X100724523Y-46005714D01*
X100724523Y-46005714D02*
X100629285Y-45958095D01*
X100629285Y-45958095D02*
X100438809Y-45910476D01*
X100438809Y-45910476D02*
X100295952Y-45910476D01*
X100295952Y-45910476D02*
X100105476Y-45958095D01*
X100105476Y-45958095D02*
X100010238Y-46005714D01*
X100010238Y-46005714D02*
X99915000Y-46100952D01*
X99915000Y-46100952D02*
X99867380Y-46243809D01*
X99867380Y-46243809D02*
X99867380Y-46339047D01*
X99867380Y-46339047D02*
X99915000Y-46481904D01*
X99915000Y-46481904D02*
X99962619Y-46529523D01*
X99962619Y-46529523D02*
X100295952Y-46529523D01*
X100295952Y-46529523D02*
X100295952Y-46339047D01*
X99867380Y-46958095D02*
X100867380Y-46958095D01*
X100867380Y-46958095D02*
X99867380Y-47529523D01*
X99867380Y-47529523D02*
X100867380Y-47529523D01*
X99867380Y-48005714D02*
X100867380Y-48005714D01*
X100867380Y-48005714D02*
X100867380Y-48243809D01*
X100867380Y-48243809D02*
X100819761Y-48386666D01*
X100819761Y-48386666D02*
X100724523Y-48481904D01*
X100724523Y-48481904D02*
X100629285Y-48529523D01*
X100629285Y-48529523D02*
X100438809Y-48577142D01*
X100438809Y-48577142D02*
X100295952Y-48577142D01*
X100295952Y-48577142D02*
X100105476Y-48529523D01*
X100105476Y-48529523D02*
X100010238Y-48481904D01*
X100010238Y-48481904D02*
X99915000Y-48386666D01*
X99915000Y-48386666D02*
X99867380Y-48243809D01*
X99867380Y-48243809D02*
X99867380Y-48005714D01*
X116059761Y-46481904D02*
X116107380Y-46386666D01*
X116107380Y-46386666D02*
X116107380Y-46243809D01*
X116107380Y-46243809D02*
X116059761Y-46100952D01*
X116059761Y-46100952D02*
X115964523Y-46005714D01*
X115964523Y-46005714D02*
X115869285Y-45958095D01*
X115869285Y-45958095D02*
X115678809Y-45910476D01*
X115678809Y-45910476D02*
X115535952Y-45910476D01*
X115535952Y-45910476D02*
X115345476Y-45958095D01*
X115345476Y-45958095D02*
X115250238Y-46005714D01*
X115250238Y-46005714D02*
X115155000Y-46100952D01*
X115155000Y-46100952D02*
X115107380Y-46243809D01*
X115107380Y-46243809D02*
X115107380Y-46339047D01*
X115107380Y-46339047D02*
X115155000Y-46481904D01*
X115155000Y-46481904D02*
X115202619Y-46529523D01*
X115202619Y-46529523D02*
X115535952Y-46529523D01*
X115535952Y-46529523D02*
X115535952Y-46339047D01*
X115107380Y-46958095D02*
X116107380Y-46958095D01*
X116107380Y-46958095D02*
X115107380Y-47529523D01*
X115107380Y-47529523D02*
X116107380Y-47529523D01*
X115107380Y-48005714D02*
X116107380Y-48005714D01*
X116107380Y-48005714D02*
X116107380Y-48243809D01*
X116107380Y-48243809D02*
X116059761Y-48386666D01*
X116059761Y-48386666D02*
X115964523Y-48481904D01*
X115964523Y-48481904D02*
X115869285Y-48529523D01*
X115869285Y-48529523D02*
X115678809Y-48577142D01*
X115678809Y-48577142D02*
X115535952Y-48577142D01*
X115535952Y-48577142D02*
X115345476Y-48529523D01*
X115345476Y-48529523D02*
X115250238Y-48481904D01*
X115250238Y-48481904D02*
X115155000Y-48386666D01*
X115155000Y-48386666D02*
X115107380Y-48243809D01*
X115107380Y-48243809D02*
X115107380Y-48005714D01*
%TO.C,RV1*%
X134659761Y-50642619D02*
X134326428Y-50166428D01*
X134088333Y-50642619D02*
X134088333Y-49642619D01*
X134088333Y-49642619D02*
X134469285Y-49642619D01*
X134469285Y-49642619D02*
X134564523Y-49690238D01*
X134564523Y-49690238D02*
X134612142Y-49737857D01*
X134612142Y-49737857D02*
X134659761Y-49833095D01*
X134659761Y-49833095D02*
X134659761Y-49975952D01*
X134659761Y-49975952D02*
X134612142Y-50071190D01*
X134612142Y-50071190D02*
X134564523Y-50118809D01*
X134564523Y-50118809D02*
X134469285Y-50166428D01*
X134469285Y-50166428D02*
X134088333Y-50166428D01*
X134945476Y-49642619D02*
X135278809Y-50642619D01*
X135278809Y-50642619D02*
X135612142Y-49642619D01*
X136469285Y-50642619D02*
X135897857Y-50642619D01*
X136183571Y-50642619D02*
X136183571Y-49642619D01*
X136183571Y-49642619D02*
X136088333Y-49785476D01*
X136088333Y-49785476D02*
X135993095Y-49880714D01*
X135993095Y-49880714D02*
X135897857Y-49928333D01*
%TO.C,J3*%
X112696666Y-45182619D02*
X112696666Y-45896904D01*
X112696666Y-45896904D02*
X112649047Y-46039761D01*
X112649047Y-46039761D02*
X112553809Y-46135000D01*
X112553809Y-46135000D02*
X112410952Y-46182619D01*
X112410952Y-46182619D02*
X112315714Y-46182619D01*
X113077619Y-45182619D02*
X113696666Y-45182619D01*
X113696666Y-45182619D02*
X113363333Y-45563571D01*
X113363333Y-45563571D02*
X113506190Y-45563571D01*
X113506190Y-45563571D02*
X113601428Y-45611190D01*
X113601428Y-45611190D02*
X113649047Y-45658809D01*
X113649047Y-45658809D02*
X113696666Y-45754047D01*
X113696666Y-45754047D02*
X113696666Y-45992142D01*
X113696666Y-45992142D02*
X113649047Y-46087380D01*
X113649047Y-46087380D02*
X113601428Y-46135000D01*
X113601428Y-46135000D02*
X113506190Y-46182619D01*
X113506190Y-46182619D02*
X113220476Y-46182619D01*
X113220476Y-46182619D02*
X113125238Y-46135000D01*
X113125238Y-46135000D02*
X113077619Y-46087380D01*
%TO.C,J5*%
X121586666Y-45182619D02*
X121586666Y-45896904D01*
X121586666Y-45896904D02*
X121539047Y-46039761D01*
X121539047Y-46039761D02*
X121443809Y-46135000D01*
X121443809Y-46135000D02*
X121300952Y-46182619D01*
X121300952Y-46182619D02*
X121205714Y-46182619D01*
X122539047Y-45182619D02*
X122062857Y-45182619D01*
X122062857Y-45182619D02*
X122015238Y-45658809D01*
X122015238Y-45658809D02*
X122062857Y-45611190D01*
X122062857Y-45611190D02*
X122158095Y-45563571D01*
X122158095Y-45563571D02*
X122396190Y-45563571D01*
X122396190Y-45563571D02*
X122491428Y-45611190D01*
X122491428Y-45611190D02*
X122539047Y-45658809D01*
X122539047Y-45658809D02*
X122586666Y-45754047D01*
X122586666Y-45754047D02*
X122586666Y-45992142D01*
X122586666Y-45992142D02*
X122539047Y-46087380D01*
X122539047Y-46087380D02*
X122491428Y-46135000D01*
X122491428Y-46135000D02*
X122396190Y-46182619D01*
X122396190Y-46182619D02*
X122158095Y-46182619D01*
X122158095Y-46182619D02*
X122062857Y-46135000D01*
X122062857Y-46135000D02*
X122015238Y-46087380D01*
%TO.C,J4*%
X97456666Y-45182619D02*
X97456666Y-45896904D01*
X97456666Y-45896904D02*
X97409047Y-46039761D01*
X97409047Y-46039761D02*
X97313809Y-46135000D01*
X97313809Y-46135000D02*
X97170952Y-46182619D01*
X97170952Y-46182619D02*
X97075714Y-46182619D01*
X98361428Y-45515952D02*
X98361428Y-46182619D01*
X98123333Y-45135000D02*
X97885238Y-45849285D01*
X97885238Y-45849285D02*
X98504285Y-45849285D01*
D15*
%TO.C,J1*%
X90710000Y-63900000D02*
X94710000Y-63900000D01*
X89680000Y-63610000D02*
X95700000Y-63610000D01*
X95700000Y-63610000D02*
X95700000Y-58310000D01*
X89680000Y-63030000D02*
X90280000Y-63030000D01*
X90280000Y-63030000D02*
X90280000Y-61430000D01*
X94700000Y-62230000D02*
X94170000Y-61980000D01*
X94700000Y-62230000D02*
X94700000Y-59690000D01*
X95700000Y-62230000D02*
X94700000Y-62230000D01*
X94170000Y-61980000D02*
X94170000Y-59940000D01*
X95700000Y-61980000D02*
X94700000Y-61980000D01*
X90280000Y-61430000D02*
X89680000Y-61430000D01*
X89680000Y-60490000D02*
X90280000Y-60490000D01*
X90280000Y-60490000D02*
X90280000Y-58890000D01*
X94170000Y-59940000D02*
X94700000Y-59690000D01*
X95700000Y-59940000D02*
X94700000Y-59940000D01*
X94700000Y-59690000D02*
X95700000Y-59690000D01*
X90280000Y-58890000D02*
X89680000Y-58890000D01*
X89680000Y-58310000D02*
X89680000Y-63610000D01*
X95700000Y-58310000D02*
X89680000Y-58310000D01*
%TO.C,D4*%
X114779000Y-69461000D02*
X112859000Y-69461000D01*
X112859000Y-69461000D02*
X112859000Y-72146000D01*
X114779000Y-72146000D02*
X114779000Y-69461000D01*
%TO.C,RV1*%
X130750000Y-46945000D02*
X132080000Y-46945000D01*
X130750000Y-48275000D02*
X130750000Y-46945000D01*
X130750000Y-49545000D02*
X130750000Y-54685000D01*
X130750000Y-49545000D02*
X133410000Y-49545000D01*
X130750000Y-54685000D02*
X133410000Y-54685000D01*
X133410000Y-49545000D02*
X133410000Y-54685000D01*
%TO.C,R1*%
X120623000Y-67362936D02*
X120623000Y-67817064D01*
X119153000Y-67362936D02*
X119153000Y-67817064D01*
%TO.C,D5*%
X112747000Y-69461000D02*
X110827000Y-69461000D01*
X110827000Y-69461000D02*
X110827000Y-72146000D01*
X112747000Y-72146000D02*
X112747000Y-69461000D01*
%TO.C,J3*%
X113900000Y-39910000D02*
X113900000Y-43910000D01*
X114190000Y-38880000D02*
X114190000Y-44900000D01*
X114190000Y-44900000D02*
X119490000Y-44900000D01*
X114770000Y-38880000D02*
X114770000Y-39480000D01*
X114770000Y-39480000D02*
X116370000Y-39480000D01*
X115570000Y-43900000D02*
X115820000Y-43370000D01*
X115570000Y-43900000D02*
X118110000Y-43900000D01*
X115570000Y-44900000D02*
X115570000Y-43900000D01*
X115820000Y-43370000D02*
X117860000Y-43370000D01*
X115820000Y-44900000D02*
X115820000Y-43900000D01*
X116370000Y-39480000D02*
X116370000Y-38880000D01*
X117310000Y-38880000D02*
X117310000Y-39480000D01*
X117310000Y-39480000D02*
X118910000Y-39480000D01*
X117860000Y-43370000D02*
X118110000Y-43900000D01*
X117860000Y-44900000D02*
X117860000Y-43900000D01*
X118110000Y-43900000D02*
X118110000Y-44900000D01*
X118910000Y-39480000D02*
X118910000Y-38880000D01*
X119490000Y-38880000D02*
X114190000Y-38880000D01*
X119490000Y-44900000D02*
X119490000Y-38880000D01*
%TO.C,R3*%
X116559000Y-67362936D02*
X116559000Y-67817064D01*
X115089000Y-67362936D02*
X115089000Y-67817064D01*
%TO.C,R0*%
X122655000Y-67362936D02*
X122655000Y-67817064D01*
X121185000Y-67362936D02*
X121185000Y-67817064D01*
%TO.C,J2*%
X137890000Y-58020000D02*
X133890000Y-58020000D01*
X138920000Y-58310000D02*
X132900000Y-58310000D01*
X132900000Y-58310000D02*
X132900000Y-63610000D01*
X138920000Y-58890000D02*
X138320000Y-58890000D01*
X138320000Y-58890000D02*
X138320000Y-60490000D01*
X133900000Y-59690000D02*
X134430000Y-59940000D01*
X133900000Y-59690000D02*
X133900000Y-62230000D01*
X132900000Y-59690000D02*
X133900000Y-59690000D01*
X134430000Y-59940000D02*
X134430000Y-61980000D01*
X132900000Y-59940000D02*
X133900000Y-59940000D01*
X138320000Y-60490000D02*
X138920000Y-60490000D01*
X138920000Y-61430000D02*
X138320000Y-61430000D01*
X138320000Y-61430000D02*
X138320000Y-63030000D01*
X134430000Y-61980000D02*
X133900000Y-62230000D01*
X132900000Y-61980000D02*
X133900000Y-61980000D01*
X133900000Y-62230000D02*
X132900000Y-62230000D01*
X138320000Y-63030000D02*
X138920000Y-63030000D01*
X138920000Y-63610000D02*
X138920000Y-58310000D01*
X132900000Y-63610000D02*
X138920000Y-63610000D01*
%TO.C,R2*%
X118591000Y-67362936D02*
X118591000Y-67817064D01*
X117121000Y-67362936D02*
X117121000Y-67817064D01*
%TO.C,D2*%
X118843000Y-69461000D02*
X116923000Y-69461000D01*
X116923000Y-69461000D02*
X116923000Y-72146000D01*
X118843000Y-72146000D02*
X118843000Y-69461000D01*
%TO.C,R7*%
X108431000Y-67362936D02*
X108431000Y-67817064D01*
X106961000Y-67362936D02*
X106961000Y-67817064D01*
%TO.C,R8*%
X125653436Y-49303000D02*
X126107564Y-49303000D01*
X125653436Y-50773000D02*
X126107564Y-50773000D01*
%TO.C,D1*%
X120848000Y-69461000D02*
X118928000Y-69461000D01*
X118928000Y-69461000D02*
X118928000Y-72146000D01*
X120848000Y-72146000D02*
X120848000Y-69461000D01*
%TO.C,U2*%
X113960000Y-51730000D02*
X114410000Y-51730000D01*
X117180000Y-52180000D02*
X117180000Y-51730000D01*
X113960000Y-52180000D02*
X113960000Y-51730000D01*
X117180000Y-54500000D02*
X117180000Y-54950000D01*
X113960000Y-54500000D02*
X113960000Y-54950000D01*
X117180000Y-54950000D02*
X116730000Y-54950000D01*
X113960000Y-54950000D02*
X114410000Y-54950000D01*
%TO.C,C1*%
X126141752Y-52805000D02*
X125619248Y-52805000D01*
X126141752Y-51335000D02*
X125619248Y-51335000D01*
%TO.C,D0*%
X122880000Y-69461000D02*
X120960000Y-69461000D01*
X120960000Y-69461000D02*
X120960000Y-72146000D01*
X122880000Y-72146000D02*
X122880000Y-69461000D01*
%TO.C,R5*%
X112477000Y-67362936D02*
X112477000Y-67817064D01*
X111007000Y-67362936D02*
X111007000Y-67817064D01*
%TO.C,D6*%
X110715000Y-69461000D02*
X108795000Y-69461000D01*
X108795000Y-69461000D02*
X108795000Y-72146000D01*
X110715000Y-72146000D02*
X110715000Y-69461000D01*
%TO.C,C5*%
X120642748Y-51335000D02*
X121165252Y-51335000D01*
X120642748Y-52805000D02*
X121165252Y-52805000D01*
%TO.C,J5*%
X121520000Y-39910000D02*
X121520000Y-43910000D01*
X121810000Y-38880000D02*
X121810000Y-44900000D01*
X121810000Y-44900000D02*
X129650000Y-44900000D01*
X122390000Y-38880000D02*
X122390000Y-39480000D01*
X122390000Y-39480000D02*
X123990000Y-39480000D01*
X123190000Y-43900000D02*
X123440000Y-43370000D01*
X123190000Y-43900000D02*
X128270000Y-43900000D01*
X123190000Y-44900000D02*
X123190000Y-43900000D01*
X123440000Y-43370000D02*
X128020000Y-43370000D01*
X123440000Y-44900000D02*
X123440000Y-43900000D01*
X123990000Y-39480000D02*
X123990000Y-38880000D01*
X124930000Y-38880000D02*
X124930000Y-39480000D01*
X124930000Y-39480000D02*
X126530000Y-39480000D01*
X126530000Y-39480000D02*
X126530000Y-38880000D01*
X127470000Y-38880000D02*
X127470000Y-39480000D01*
X127470000Y-39480000D02*
X129070000Y-39480000D01*
X128020000Y-43370000D02*
X128270000Y-43900000D01*
X128020000Y-44900000D02*
X128020000Y-43900000D01*
X128270000Y-43900000D02*
X128270000Y-44900000D01*
X129070000Y-39480000D02*
X129070000Y-38880000D01*
X129650000Y-38880000D02*
X121810000Y-38880000D01*
X129650000Y-44900000D02*
X129650000Y-38880000D01*
%TO.C,D3*%
X116811000Y-69461000D02*
X114891000Y-69461000D01*
X114891000Y-69461000D02*
X114891000Y-72146000D01*
X116811000Y-72146000D02*
X116811000Y-69461000D01*
%TO.C,D7*%
X108683000Y-69461000D02*
X106763000Y-69461000D01*
X106763000Y-69461000D02*
X106763000Y-72146000D01*
X108683000Y-72146000D02*
X108683000Y-69461000D01*
%TO.C,R4*%
X114527000Y-67362936D02*
X114527000Y-67817064D01*
X113057000Y-67362936D02*
X113057000Y-67817064D01*
%TO.C,D10*%
X119294000Y-49188000D02*
X119294000Y-50888000D01*
X119294000Y-49188000D02*
X121954000Y-49188000D01*
X119294000Y-50888000D02*
X121954000Y-50888000D01*
%TO.C,J4*%
X98660000Y-39910000D02*
X98660000Y-43910000D01*
X98950000Y-38880000D02*
X98950000Y-44900000D01*
X98950000Y-44900000D02*
X111870000Y-44900000D01*
X99530000Y-38880000D02*
X99530000Y-39480000D01*
X99530000Y-39480000D02*
X101130000Y-39480000D01*
X100330000Y-43900000D02*
X100580000Y-43370000D01*
X100330000Y-43900000D02*
X110490000Y-43900000D01*
X100330000Y-44900000D02*
X100330000Y-43900000D01*
X100580000Y-43370000D02*
X110240000Y-43370000D01*
X100580000Y-44900000D02*
X100580000Y-43900000D01*
X101130000Y-39480000D02*
X101130000Y-38880000D01*
X102070000Y-38880000D02*
X102070000Y-39480000D01*
X102070000Y-39480000D02*
X103670000Y-39480000D01*
X103670000Y-39480000D02*
X103670000Y-38880000D01*
X104610000Y-38880000D02*
X104610000Y-39480000D01*
X104610000Y-39480000D02*
X106210000Y-39480000D01*
X106210000Y-39480000D02*
X106210000Y-38880000D01*
X107150000Y-38880000D02*
X107150000Y-39480000D01*
X107150000Y-39480000D02*
X108750000Y-39480000D01*
X108750000Y-39480000D02*
X108750000Y-38880000D01*
X109690000Y-38880000D02*
X109690000Y-39480000D01*
X109690000Y-39480000D02*
X111290000Y-39480000D01*
X110240000Y-43370000D02*
X110490000Y-43900000D01*
X110240000Y-44900000D02*
X110240000Y-43900000D01*
X110490000Y-43900000D02*
X110490000Y-44900000D01*
X111290000Y-39480000D02*
X111290000Y-38880000D01*
X111870000Y-38880000D02*
X98950000Y-38880000D01*
X111870000Y-44900000D02*
X111870000Y-38880000D01*
%TO.C,R6*%
X110463000Y-67362936D02*
X110463000Y-67817064D01*
X108993000Y-67362936D02*
X108993000Y-67817064D01*
%TD*%
%LPC*%
D16*
%TO.C,J1*%
X92710000Y-62230000D03*
D17*
X92710000Y-59690000D03*
%TD*%
D18*
%TO.C,H3*%
X135890000Y-72390000D03*
%TD*%
D19*
%TO.C,D4*%
X113819000Y-70208500D03*
X113819000Y-72083500D03*
%TD*%
D20*
%TO.C,RV1*%
X132080000Y-48275000D03*
D21*
X132080000Y-50815000D03*
X132080000Y-53355000D03*
%TD*%
D22*
%TO.C,R1*%
X119888000Y-66677500D03*
X119888000Y-68502500D03*
%TD*%
D19*
%TO.C,D5*%
X111787000Y-70208500D03*
X111787000Y-72083500D03*
%TD*%
D23*
%TO.C,J3*%
X115570000Y-41910000D03*
D24*
X118110000Y-41910000D03*
%TD*%
D22*
%TO.C,R3*%
X115824000Y-66677500D03*
X115824000Y-68502500D03*
%TD*%
%TO.C,R0*%
X121920000Y-66677500D03*
X121920000Y-68502500D03*
%TD*%
D25*
%TO.C,J2*%
X135890000Y-59690000D03*
D17*
X135890000Y-62230000D03*
%TD*%
D22*
%TO.C,R2*%
X117856000Y-66677500D03*
X117856000Y-68502500D03*
%TD*%
D19*
%TO.C,D2*%
X117883000Y-70208500D03*
X117883000Y-72083500D03*
%TD*%
D22*
%TO.C,R7*%
X107696000Y-66677500D03*
X107696000Y-68502500D03*
%TD*%
D26*
%TO.C,R8*%
X124968000Y-50038000D03*
X126793000Y-50038000D03*
%TD*%
D19*
%TO.C,D1*%
X119888000Y-70208500D03*
X119888000Y-72083500D03*
%TD*%
D27*
%TO.C,U2*%
X116370000Y-51890000D03*
D28*
X115970000Y-51890000D03*
X115570000Y-51890000D03*
X115170000Y-51890000D03*
D29*
X114770000Y-51890000D03*
D30*
X114120000Y-52540000D03*
D31*
X114120000Y-52940000D03*
X114120000Y-53340000D03*
X114120000Y-53740000D03*
D32*
X114120000Y-54140000D03*
D33*
X114770000Y-54790000D03*
D28*
X115170000Y-54790000D03*
X115570000Y-54790000D03*
X115970000Y-54790000D03*
D34*
X116370000Y-54790000D03*
D35*
X117020000Y-54140000D03*
D31*
X117020000Y-53740000D03*
X117020000Y-53340000D03*
X117020000Y-52940000D03*
D36*
X117020000Y-52540000D03*
D20*
X115570000Y-53340000D03*
%TD*%
D18*
%TO.C,H4*%
X135890000Y-41910000D03*
%TD*%
D37*
%TO.C,C1*%
X126830500Y-52070000D03*
X124930500Y-52070000D03*
%TD*%
D19*
%TO.C,D0*%
X121920000Y-70208500D03*
X121920000Y-72083500D03*
%TD*%
D22*
%TO.C,R5*%
X111742000Y-66677500D03*
X111742000Y-68502500D03*
%TD*%
D18*
%TO.C,H1*%
X92710000Y-41910000D03*
%TD*%
D19*
%TO.C,D6*%
X109755000Y-70208500D03*
X109755000Y-72083500D03*
%TD*%
D18*
%TO.C,H2*%
X92710000Y-72390000D03*
%TD*%
D38*
%TO.C,C5*%
X119954000Y-52070000D03*
X121854000Y-52070000D03*
%TD*%
D23*
%TO.C,J5*%
X123190000Y-41910000D03*
D24*
X125730000Y-41910000D03*
X128270000Y-41910000D03*
%TD*%
D19*
%TO.C,D3*%
X115851000Y-70208500D03*
X115851000Y-72083500D03*
%TD*%
%TO.C,D7*%
X107723000Y-70208500D03*
X107723000Y-72083500D03*
%TD*%
D22*
%TO.C,R4*%
X113792000Y-66677500D03*
X113792000Y-68502500D03*
%TD*%
D39*
%TO.C,D10*%
X119854000Y-50038000D03*
X121954000Y-50038000D03*
%TD*%
D23*
%TO.C,J4*%
X100330000Y-41910000D03*
D24*
X102870000Y-41910000D03*
X105410000Y-41910000D03*
X107950000Y-41910000D03*
X110490000Y-41910000D03*
%TD*%
D22*
%TO.C,R6*%
X109728000Y-66677500D03*
X109728000Y-68502500D03*
%TD*%
M02*
