%TF.GenerationSoftware,KiCad,Pcbnew,7.0.1-3b83917a11~172~ubuntu22.04.1*%
%TF.CreationDate,2023-04-03T09:33:55-05:00*%
%TF.ProjectId,adda-blinky,61646461-2d62-46c6-996e-6b792e6b6963,rev?*%
%TF.SameCoordinates,Original*%
%TF.FileFunction,Legend,Top*%
%TF.FilePolarity,Positive*%
%FSLAX46Y46*%
G04 Gerber Fmt 4.6, Leading zero omitted, Abs format (unit mm)*
G04 Created by KiCad (PCBNEW 7.0.1-3b83917a11~172~ubuntu22.04.1) date 2023-04-03 09:33:55*
%MOMM*%
%LPD*%
G01*
G04 APERTURE LIST*
G04 Aperture macros list*
%AMRoundRect*
0 Rectangle with rounded corners*
0 $1 Rounding radius*
0 $2 $3 $4 $5 $6 $7 $8 $9 X,Y pos of 4 corners*
0 Add a 4 corners polygon primitive as box body*
4,1,4,$2,$3,$4,$5,$6,$7,$8,$9,$2,$3,0*
0 Add four circle primitives for the rounded corners*
1,1,$1+$1,$2,$3*
1,1,$1+$1,$4,$5*
1,1,$1+$1,$6,$7*
1,1,$1+$1,$8,$9*
0 Add four rect primitives between the rounded corners*
20,1,$1+$1,$2,$3,$4,$5,0*
20,1,$1+$1,$4,$5,$6,$7,0*
20,1,$1+$1,$6,$7,$8,$9,0*
20,1,$1+$1,$8,$9,$2,$3,0*%
%AMFreePoly0*
4,1,14,0.334644,0.085355,0.385355,0.034644,0.400000,-0.000711,0.400000,-0.050000,0.385355,-0.085355,0.350000,-0.100000,-0.350000,-0.100000,-0.385355,-0.085355,-0.400000,-0.050000,-0.400000,0.050000,-0.385355,0.085355,-0.350000,0.100000,0.299289,0.100000,0.334644,0.085355,0.334644,0.085355,$1*%
%AMFreePoly1*
4,1,14,0.385355,0.085355,0.400000,0.050000,0.400000,0.000711,0.385355,-0.034644,0.334644,-0.085355,0.299289,-0.100000,-0.350000,-0.100000,-0.385355,-0.085355,-0.400000,-0.050000,-0.400000,0.050000,-0.385355,0.085355,-0.350000,0.100000,0.350000,0.100000,0.385355,0.085355,0.385355,0.085355,$1*%
%AMFreePoly2*
4,1,14,0.085355,0.385355,0.100000,0.350000,0.100000,-0.350000,0.085355,-0.385355,0.050000,-0.400000,-0.050000,-0.400000,-0.085355,-0.385355,-0.100000,-0.350000,-0.100000,0.299289,-0.085355,0.334644,-0.034644,0.385355,0.000711,0.400000,0.050000,0.400000,0.085355,0.385355,0.085355,0.385355,$1*%
%AMFreePoly3*
4,1,14,0.034644,0.385355,0.085355,0.334644,0.100000,0.299289,0.100000,-0.350000,0.085355,-0.385355,0.050000,-0.400000,-0.050000,-0.400000,-0.085355,-0.385355,-0.100000,-0.350000,-0.100000,0.350000,-0.085355,0.385355,-0.050000,0.400000,-0.000711,0.400000,0.034644,0.385355,0.034644,0.385355,$1*%
%AMFreePoly4*
4,1,14,0.385355,0.085355,0.400000,0.050000,0.400000,-0.050000,0.385355,-0.085355,0.350000,-0.100000,-0.299289,-0.100000,-0.334644,-0.085354,-0.385355,-0.034644,-0.400000,0.000711,-0.400000,0.050000,-0.385355,0.085355,-0.350000,0.100000,0.350000,0.100000,0.385355,0.085355,0.385355,0.085355,$1*%
%AMFreePoly5*
4,1,14,0.385355,0.085355,0.400000,0.050000,0.400000,-0.050000,0.385355,-0.085355,0.350000,-0.100000,-0.350000,-0.100000,-0.385355,-0.085355,-0.400000,-0.050000,-0.400000,-0.000711,-0.385355,0.034644,-0.334643,0.085355,-0.299289,0.100000,0.350000,0.100000,0.385355,0.085355,0.385355,0.085355,$1*%
%AMFreePoly6*
4,1,14,0.085355,0.385355,0.100000,0.350000,0.100000,-0.299289,0.085355,-0.334644,0.034644,-0.385355,-0.000711,-0.400000,-0.050000,-0.400000,-0.085355,-0.385355,-0.100000,-0.350000,-0.100000,0.350000,-0.085355,0.385355,-0.050000,0.400000,0.050000,0.400000,0.085355,0.385355,0.085355,0.385355,$1*%
%AMFreePoly7*
4,1,14,0.085355,0.385355,0.100000,0.350000,0.100000,-0.350000,0.085355,-0.385355,0.050000,-0.400000,0.000711,-0.400000,-0.034644,-0.385355,-0.085355,-0.334644,-0.100000,-0.299289,-0.100000,0.350000,-0.085355,0.385355,-0.050000,0.400000,0.050000,0.400000,0.085355,0.385355,0.085355,0.385355,$1*%
G04 Aperture macros list end*
%ADD10C,0.254000*%
%ADD11C,0.100000*%
%ADD12C,0.150000*%
%ADD13C,0.203200*%
%ADD14C,0.120000*%
%ADD15RoundRect,0.250000X0.845000X-0.620000X0.845000X0.620000X-0.845000X0.620000X-0.845000X-0.620000X0*%
%ADD16O,2.190000X1.740000*%
%ADD17C,6.400000*%
%ADD18RoundRect,0.243750X-0.456250X0.243750X-0.456250X-0.243750X0.456250X-0.243750X0.456250X0.243750X0*%
%ADD19R,1.700000X1.700000*%
%ADD20O,1.700000X1.700000*%
%ADD21RoundRect,0.250000X-0.450000X0.262500X-0.450000X-0.262500X0.450000X-0.262500X0.450000X0.262500X0*%
%ADD22RoundRect,0.250000X-0.620000X-0.845000X0.620000X-0.845000X0.620000X0.845000X-0.620000X0.845000X0*%
%ADD23O,1.740000X2.190000*%
%ADD24RoundRect,0.250000X-0.845000X0.620000X-0.845000X-0.620000X0.845000X-0.620000X0.845000X0.620000X0*%
%ADD25RoundRect,0.250000X-0.262500X-0.450000X0.262500X-0.450000X0.262500X0.450000X-0.262500X0.450000X0*%
%ADD26FreePoly0,270.000000*%
%ADD27RoundRect,0.050000X-0.050000X0.350000X-0.050000X-0.350000X0.050000X-0.350000X0.050000X0.350000X0*%
%ADD28FreePoly1,270.000000*%
%ADD29FreePoly2,270.000000*%
%ADD30RoundRect,0.050000X-0.350000X0.050000X-0.350000X-0.050000X0.350000X-0.050000X0.350000X0.050000X0*%
%ADD31FreePoly3,270.000000*%
%ADD32FreePoly4,270.000000*%
%ADD33FreePoly5,270.000000*%
%ADD34FreePoly6,270.000000*%
%ADD35FreePoly7,270.000000*%
%ADD36RoundRect,0.250000X0.250000X0.475000X-0.250000X0.475000X-0.250000X-0.475000X0.250000X-0.475000X0*%
%ADD37RoundRect,0.250000X-0.250000X-0.475000X0.250000X-0.475000X0.250000X0.475000X-0.250000X0.475000X0*%
%ADD38RoundRect,0.112500X-0.187500X-0.112500X0.187500X-0.112500X0.187500X0.112500X-0.187500X0.112500X0*%
G04 APERTURE END LIST*
D10*
X116713000Y-60960000D02*
X115951000Y-61722000D01*
D11*
X129540000Y-46052500D02*
X139065000Y-46052500D01*
X139065000Y-55577500D01*
X129540000Y-55577500D01*
X129540000Y-46052500D01*
D10*
X110490000Y-60960000D02*
X116840000Y-60960000D01*
X110490000Y-63500000D02*
X104140000Y-63500000D01*
X101600000Y-60960000D01*
X104140000Y-58420000D01*
X110490000Y-58420000D01*
X110490000Y-63500000D01*
X125730000Y-60960000D02*
X123190000Y-63500000D01*
X116840000Y-63500000D01*
X116840000Y-58420000D01*
X123190000Y-58420000D01*
X125730000Y-60960000D01*
X114300000Y-65532000D02*
X115062000Y-64770000D01*
X126746000Y-60960000D02*
X125730000Y-60960000D01*
X101600000Y-60960000D02*
X100584000Y-60960000D01*
D12*
X112014000Y-61595000D02*
X113284000Y-60325000D01*
D10*
X114300000Y-65532000D02*
X113538000Y-64770000D01*
X116713000Y-60960000D02*
X115951000Y-60198000D01*
X114300000Y-60960000D02*
X114300000Y-65532000D01*
D12*
X98043904Y-63010238D02*
X97948666Y-62962619D01*
X97948666Y-62962619D02*
X97805809Y-62962619D01*
X97805809Y-62962619D02*
X97662952Y-63010238D01*
X97662952Y-63010238D02*
X97567714Y-63105476D01*
X97567714Y-63105476D02*
X97520095Y-63200714D01*
X97520095Y-63200714D02*
X97472476Y-63391190D01*
X97472476Y-63391190D02*
X97472476Y-63534047D01*
X97472476Y-63534047D02*
X97520095Y-63724523D01*
X97520095Y-63724523D02*
X97567714Y-63819761D01*
X97567714Y-63819761D02*
X97662952Y-63915000D01*
X97662952Y-63915000D02*
X97805809Y-63962619D01*
X97805809Y-63962619D02*
X97901047Y-63962619D01*
X97901047Y-63962619D02*
X98043904Y-63915000D01*
X98043904Y-63915000D02*
X98091523Y-63867380D01*
X98091523Y-63867380D02*
X98091523Y-63534047D01*
X98091523Y-63534047D02*
X97901047Y-63534047D01*
X98520095Y-63962619D02*
X98520095Y-62962619D01*
X98520095Y-62962619D02*
X99091523Y-63962619D01*
X99091523Y-63962619D02*
X99091523Y-62962619D01*
X99567714Y-63962619D02*
X99567714Y-62962619D01*
X99567714Y-62962619D02*
X99805809Y-62962619D01*
X99805809Y-62962619D02*
X99948666Y-63010238D01*
X99948666Y-63010238D02*
X100043904Y-63105476D01*
X100043904Y-63105476D02*
X100091523Y-63200714D01*
X100091523Y-63200714D02*
X100139142Y-63391190D01*
X100139142Y-63391190D02*
X100139142Y-63534047D01*
X100139142Y-63534047D02*
X100091523Y-63724523D01*
X100091523Y-63724523D02*
X100043904Y-63819761D01*
X100043904Y-63819761D02*
X99948666Y-63915000D01*
X99948666Y-63915000D02*
X99805809Y-63962619D01*
X99805809Y-63962619D02*
X99567714Y-63962619D01*
D13*
X117493142Y-73625528D02*
X117553618Y-73565052D01*
X117553618Y-73565052D02*
X117674571Y-73504576D01*
X117674571Y-73504576D02*
X117976952Y-73504576D01*
X117976952Y-73504576D02*
X118097904Y-73565052D01*
X118097904Y-73565052D02*
X118158380Y-73625528D01*
X118158380Y-73625528D02*
X118218857Y-73746480D01*
X118218857Y-73746480D02*
X118218857Y-73867433D01*
X118218857Y-73867433D02*
X118158380Y-74048861D01*
X118158380Y-74048861D02*
X117432666Y-74774576D01*
X117432666Y-74774576D02*
X118218857Y-74774576D01*
G36*
X100864610Y-62335229D02*
G01*
X96795771Y-62335229D01*
X96795771Y-60281354D01*
X97297132Y-60281354D01*
X97724087Y-61562221D01*
X97723674Y-61573667D01*
X97733338Y-61589972D01*
X97734518Y-61593512D01*
X97740756Y-61602488D01*
X97754095Y-61624993D01*
X97757626Y-61626762D01*
X97759880Y-61630005D01*
X97784046Y-61640002D01*
X97807437Y-61651724D01*
X97811364Y-61651303D01*
X97815013Y-61652813D01*
X97840735Y-61648159D01*
X97866763Y-61645374D01*
X97869842Y-61642894D01*
X97873726Y-61642192D01*
X97892858Y-61624363D01*
X97913237Y-61607956D01*
X97914485Y-61604210D01*
X97917376Y-61601517D01*
X97923835Y-61576162D01*
X97928511Y-61562133D01*
X98571351Y-61562133D01*
X98583872Y-61604774D01*
X98628963Y-61643846D01*
X98688021Y-61652337D01*
X98742294Y-61627552D01*
X98774551Y-61577358D01*
X98774551Y-60799302D01*
X99174244Y-60799302D01*
X99176113Y-60825436D01*
X99176113Y-61562133D01*
X99188634Y-61604774D01*
X99233725Y-61643846D01*
X99292783Y-61652337D01*
X99347056Y-61627552D01*
X99379313Y-61577358D01*
X99379313Y-60863896D01*
X99398373Y-60844835D01*
X99483127Y-60802459D01*
X99616586Y-60802459D01*
X99685794Y-60837062D01*
X99720399Y-60906273D01*
X99720399Y-61562133D01*
X99732920Y-61604774D01*
X99778011Y-61643846D01*
X99837069Y-61652337D01*
X99891342Y-61627552D01*
X99923599Y-61577358D01*
X99923599Y-60887757D01*
X99926214Y-60863534D01*
X99916927Y-60844960D01*
X99911078Y-60825040D01*
X99903825Y-60818755D01*
X99863971Y-60739047D01*
X99864111Y-60735101D01*
X99850758Y-60712619D01*
X99845865Y-60702833D01*
X99843321Y-60700098D01*
X99833642Y-60683802D01*
X99823396Y-60678679D01*
X99815596Y-60670294D01*
X99797234Y-60665598D01*
X99690900Y-60612431D01*
X99670403Y-60599259D01*
X99649637Y-60599259D01*
X99629204Y-60595582D01*
X99620338Y-60599259D01*
X99464610Y-60599259D01*
X99440387Y-60596644D01*
X99421813Y-60605930D01*
X99401894Y-60611780D01*
X99395609Y-60619033D01*
X99359350Y-60637162D01*
X99321701Y-60604539D01*
X99262643Y-60596048D01*
X99208370Y-60620833D01*
X99176113Y-60671027D01*
X99176113Y-60795879D01*
X99174244Y-60799302D01*
X98774551Y-60799302D01*
X98774551Y-60686252D01*
X98762030Y-60643611D01*
X98716939Y-60604539D01*
X98657881Y-60596048D01*
X98603608Y-60620833D01*
X98571351Y-60671027D01*
X98571351Y-61562133D01*
X97928511Y-61562133D01*
X98339074Y-60330448D01*
X98506855Y-60330448D01*
X98511652Y-60352499D01*
X98513262Y-60375006D01*
X98517895Y-60381195D01*
X98519539Y-60388750D01*
X98535496Y-60404707D01*
X98549019Y-60422771D01*
X98556261Y-60425472D01*
X98582773Y-60451984D01*
X98583872Y-60455726D01*
X98598162Y-60468109D01*
X98609494Y-60483246D01*
X98620270Y-60487265D01*
X98628963Y-60494798D01*
X98640348Y-60496434D01*
X98650443Y-60501947D01*
X98658151Y-60501395D01*
X98665396Y-60504098D01*
X98676637Y-60501652D01*
X98688021Y-60503289D01*
X98698482Y-60498511D01*
X98709955Y-60497691D01*
X98716143Y-60493058D01*
X98723698Y-60491415D01*
X98731830Y-60483282D01*
X98742294Y-60478504D01*
X98748513Y-60468825D01*
X98757720Y-60461934D01*
X98760421Y-60454692D01*
X98800132Y-60414981D01*
X98818197Y-60401458D01*
X98826083Y-60380314D01*
X98836897Y-60360511D01*
X98836345Y-60352800D01*
X98839048Y-60345555D01*
X98834250Y-60323503D01*
X98832641Y-60300998D01*
X98828007Y-60294808D01*
X98826364Y-60287254D01*
X98810407Y-60271297D01*
X98796885Y-60253234D01*
X98789641Y-60250532D01*
X98763128Y-60224019D01*
X98762030Y-60220278D01*
X98747739Y-60207894D01*
X98736407Y-60192757D01*
X98725630Y-60188737D01*
X98716939Y-60181206D01*
X98705552Y-60179568D01*
X98695458Y-60174057D01*
X98687750Y-60174608D01*
X98680505Y-60171906D01*
X98669263Y-60174351D01*
X98657881Y-60172715D01*
X98647417Y-60177493D01*
X98635946Y-60178314D01*
X98629757Y-60182946D01*
X98622203Y-60184590D01*
X98614071Y-60192721D01*
X98603608Y-60197500D01*
X98597388Y-60207178D01*
X98588182Y-60214070D01*
X98585480Y-60221312D01*
X98545769Y-60261023D01*
X98527706Y-60274546D01*
X98519819Y-60295690D01*
X98509006Y-60315494D01*
X98509557Y-60323203D01*
X98506855Y-60330448D01*
X98339074Y-60330448D01*
X98350624Y-60295797D01*
X98352230Y-60251385D01*
X98321809Y-60200059D01*
X98268467Y-60173328D01*
X98209141Y-60179678D01*
X98162667Y-60217096D01*
X97826285Y-61226239D01*
X97494719Y-60231540D01*
X97469356Y-60195047D01*
X97414224Y-60172239D01*
X97355511Y-60182859D01*
X97311861Y-60223535D01*
X97297132Y-60281354D01*
X96795771Y-60281354D01*
X96795771Y-59584771D01*
X100864610Y-59584771D01*
X100864610Y-62335229D01*
G37*
X107272666Y-73504576D02*
X108119333Y-73504576D01*
X108119333Y-73504576D02*
X107575047Y-74774576D01*
X112062380Y-73504576D02*
X111457618Y-73504576D01*
X111457618Y-73504576D02*
X111397142Y-74109338D01*
X111397142Y-74109338D02*
X111457618Y-74048861D01*
X111457618Y-74048861D02*
X111578571Y-73988385D01*
X111578571Y-73988385D02*
X111880952Y-73988385D01*
X111880952Y-73988385D02*
X112001904Y-74048861D01*
X112001904Y-74048861D02*
X112062380Y-74109338D01*
X112062380Y-74109338D02*
X112122857Y-74230290D01*
X112122857Y-74230290D02*
X112122857Y-74532671D01*
X112122857Y-74532671D02*
X112062380Y-74653623D01*
X112062380Y-74653623D02*
X112001904Y-74714100D01*
X112001904Y-74714100D02*
X111880952Y-74774576D01*
X111880952Y-74774576D02*
X111578571Y-74774576D01*
X111578571Y-74774576D02*
X111457618Y-74714100D01*
X111457618Y-74714100D02*
X111397142Y-74653623D01*
X121859523Y-73504576D02*
X121980476Y-73504576D01*
X121980476Y-73504576D02*
X122101428Y-73565052D01*
X122101428Y-73565052D02*
X122161904Y-73625528D01*
X122161904Y-73625528D02*
X122222380Y-73746480D01*
X122222380Y-73746480D02*
X122282857Y-73988385D01*
X122282857Y-73988385D02*
X122282857Y-74290766D01*
X122282857Y-74290766D02*
X122222380Y-74532671D01*
X122222380Y-74532671D02*
X122161904Y-74653623D01*
X122161904Y-74653623D02*
X122101428Y-74714100D01*
X122101428Y-74714100D02*
X121980476Y-74774576D01*
X121980476Y-74774576D02*
X121859523Y-74774576D01*
X121859523Y-74774576D02*
X121738571Y-74714100D01*
X121738571Y-74714100D02*
X121678095Y-74653623D01*
X121678095Y-74653623D02*
X121617618Y-74532671D01*
X121617618Y-74532671D02*
X121557142Y-74290766D01*
X121557142Y-74290766D02*
X121557142Y-73988385D01*
X121557142Y-73988385D02*
X121617618Y-73746480D01*
X121617618Y-73746480D02*
X121678095Y-73625528D01*
X121678095Y-73625528D02*
X121738571Y-73565052D01*
X121738571Y-73565052D02*
X121859523Y-73504576D01*
G36*
X129068577Y-60844835D02*
G01*
X129105736Y-60881994D01*
X129148113Y-60966749D01*
X129148113Y-61281636D01*
X129105736Y-61366389D01*
X129068577Y-61403549D01*
X128983825Y-61445926D01*
X128850365Y-61445926D01*
X128765611Y-61403549D01*
X128728451Y-61366389D01*
X128686075Y-61281637D01*
X128686075Y-60966748D01*
X128728450Y-60881995D01*
X128765611Y-60844835D01*
X128850365Y-60802459D01*
X128983824Y-60802459D01*
X129068577Y-60844835D01*
G37*
G36*
X132106610Y-62335229D02*
G01*
X126767771Y-62335229D01*
X126767771Y-60281354D01*
X127269132Y-60281354D01*
X127696087Y-61562221D01*
X127695674Y-61573667D01*
X127705338Y-61589972D01*
X127706518Y-61593512D01*
X127712756Y-61602488D01*
X127726095Y-61624993D01*
X127729626Y-61626762D01*
X127731880Y-61630005D01*
X127756046Y-61640002D01*
X127779437Y-61651724D01*
X127783364Y-61651303D01*
X127787013Y-61652813D01*
X127812735Y-61648159D01*
X127838763Y-61645374D01*
X127841842Y-61642894D01*
X127845726Y-61642192D01*
X127864858Y-61624363D01*
X127885237Y-61607956D01*
X127886485Y-61604210D01*
X127889376Y-61601517D01*
X127895835Y-61576162D01*
X128103179Y-60954131D01*
X128479198Y-60954131D01*
X128482875Y-60962996D01*
X128482875Y-61300152D01*
X128480260Y-61324375D01*
X128489546Y-61342948D01*
X128495396Y-61362869D01*
X128502649Y-61369154D01*
X128548381Y-61460618D01*
X128552015Y-61477321D01*
X128571818Y-61497124D01*
X128590878Y-61517614D01*
X128592799Y-61518105D01*
X128624578Y-61549884D01*
X128633309Y-61564583D01*
X128658365Y-61577111D01*
X128682920Y-61590519D01*
X128684898Y-61590377D01*
X128776050Y-61635953D01*
X128796548Y-61649126D01*
X128817313Y-61649126D01*
X128837746Y-61652803D01*
X128846612Y-61649126D01*
X129002340Y-61649126D01*
X129026563Y-61651741D01*
X129045136Y-61642454D01*
X129065057Y-61636605D01*
X129071342Y-61629351D01*
X129162806Y-61583619D01*
X129179509Y-61579986D01*
X129199306Y-61560188D01*
X129219802Y-61541123D01*
X129220293Y-61539200D01*
X129252070Y-61507423D01*
X129266770Y-61498692D01*
X129279301Y-61473629D01*
X129292706Y-61449080D01*
X129292564Y-61447102D01*
X129323689Y-61384852D01*
X129689784Y-61384852D01*
X129699070Y-61403425D01*
X129704920Y-61423345D01*
X129712173Y-61429630D01*
X129752026Y-61509335D01*
X129751887Y-61513284D01*
X129765249Y-61535780D01*
X129770135Y-61545552D01*
X129772675Y-61548282D01*
X129782357Y-61564583D01*
X129792603Y-61569706D01*
X129800404Y-61578092D01*
X129818765Y-61582787D01*
X129925098Y-61635953D01*
X129945596Y-61649126D01*
X129966361Y-61649126D01*
X129986794Y-61652803D01*
X129995660Y-61649126D01*
X130151388Y-61649126D01*
X130175611Y-61651741D01*
X130194184Y-61642454D01*
X130214105Y-61636605D01*
X130220390Y-61629351D01*
X130256648Y-61611222D01*
X130294297Y-61643846D01*
X130353355Y-61652337D01*
X130407628Y-61627552D01*
X130439885Y-61577358D01*
X130439885Y-61452503D01*
X130441754Y-61449080D01*
X130439885Y-61422946D01*
X130439885Y-60715929D01*
X130656808Y-60715929D01*
X130681593Y-60770202D01*
X130731787Y-60802459D01*
X130841447Y-60802459D01*
X130841447Y-61360629D01*
X130838832Y-61384852D01*
X130848118Y-61403425D01*
X130853968Y-61423345D01*
X130861221Y-61429630D01*
X130901074Y-61509335D01*
X130900935Y-61513284D01*
X130914297Y-61535780D01*
X130919183Y-61545552D01*
X130921723Y-61548282D01*
X130931405Y-61564583D01*
X130941651Y-61569706D01*
X130949452Y-61578092D01*
X130967813Y-61582787D01*
X131074146Y-61635953D01*
X131094644Y-61649126D01*
X131115409Y-61649126D01*
X131135842Y-61652803D01*
X131144708Y-61649126D01*
X131260035Y-61649126D01*
X131302676Y-61636605D01*
X131341748Y-61591514D01*
X131350239Y-61532456D01*
X131325454Y-61478183D01*
X131275260Y-61445926D01*
X131148461Y-61445926D01*
X131079252Y-61411321D01*
X131044647Y-61342113D01*
X131044647Y-60802459D01*
X131260035Y-60802459D01*
X131302676Y-60789938D01*
X131341748Y-60744847D01*
X131350239Y-60685789D01*
X131325454Y-60631516D01*
X131275260Y-60599259D01*
X131044647Y-60599259D01*
X131044647Y-60262919D01*
X131032126Y-60220278D01*
X130987035Y-60181206D01*
X130927977Y-60172715D01*
X130873704Y-60197500D01*
X130841447Y-60247694D01*
X130841447Y-60599259D01*
X130747012Y-60599259D01*
X130704371Y-60611780D01*
X130665299Y-60656871D01*
X130656808Y-60715929D01*
X130439885Y-60715929D01*
X130439885Y-60686252D01*
X130427364Y-60643611D01*
X130382273Y-60604539D01*
X130323215Y-60596048D01*
X130268942Y-60620833D01*
X130236685Y-60671027D01*
X130236685Y-61384490D01*
X130217625Y-61403549D01*
X130132873Y-61445926D01*
X129999413Y-61445926D01*
X129930204Y-61411321D01*
X129895599Y-61342113D01*
X129895599Y-60686252D01*
X129883078Y-60643611D01*
X129837987Y-60604539D01*
X129778929Y-60596048D01*
X129724656Y-60620833D01*
X129692399Y-60671027D01*
X129692399Y-61360629D01*
X129689784Y-61384852D01*
X129323689Y-61384852D01*
X129338140Y-61355950D01*
X129351313Y-61335453D01*
X129351313Y-61314688D01*
X129354990Y-61294255D01*
X129351313Y-61285389D01*
X129351313Y-60948233D01*
X129353928Y-60924010D01*
X129344641Y-60905436D01*
X129338792Y-60885516D01*
X129331539Y-60879231D01*
X129285806Y-60787764D01*
X129282173Y-60771063D01*
X129262378Y-60751268D01*
X129243310Y-60730770D01*
X129241388Y-60730278D01*
X129209609Y-60698499D01*
X129200880Y-60683802D01*
X129175829Y-60671276D01*
X129151269Y-60657866D01*
X129149290Y-60658007D01*
X129058138Y-60612431D01*
X129037641Y-60599259D01*
X129016875Y-60599259D01*
X128996442Y-60595582D01*
X128987576Y-60599259D01*
X128831848Y-60599259D01*
X128807625Y-60596644D01*
X128789051Y-60605930D01*
X128769132Y-60611780D01*
X128762847Y-60619033D01*
X128671385Y-60664764D01*
X128654681Y-60668398D01*
X128634877Y-60688200D01*
X128614386Y-60707262D01*
X128613894Y-60709184D01*
X128582116Y-60740962D01*
X128567418Y-60749692D01*
X128554892Y-60774742D01*
X128541482Y-60799302D01*
X128541623Y-60801281D01*
X128496047Y-60892434D01*
X128482875Y-60912932D01*
X128482875Y-60933698D01*
X128479198Y-60954131D01*
X128103179Y-60954131D01*
X128322624Y-60295797D01*
X128324230Y-60251385D01*
X128293809Y-60200059D01*
X128240467Y-60173328D01*
X128181141Y-60179678D01*
X128134667Y-60217096D01*
X127798285Y-61226239D01*
X127466719Y-60231540D01*
X127441356Y-60195047D01*
X127386224Y-60172239D01*
X127327511Y-60182859D01*
X127283861Y-60223535D01*
X127269132Y-60281354D01*
X126767771Y-60281354D01*
X126767771Y-59584771D01*
X132106610Y-59584771D01*
X132106610Y-62335229D01*
G37*
D12*
X104947380Y-45958095D02*
X105947380Y-45958095D01*
X105947380Y-45958095D02*
X105947380Y-46339047D01*
X105947380Y-46339047D02*
X105899761Y-46434285D01*
X105899761Y-46434285D02*
X105852142Y-46481904D01*
X105852142Y-46481904D02*
X105756904Y-46529523D01*
X105756904Y-46529523D02*
X105614047Y-46529523D01*
X105614047Y-46529523D02*
X105518809Y-46481904D01*
X105518809Y-46481904D02*
X105471190Y-46434285D01*
X105471190Y-46434285D02*
X105423571Y-46339047D01*
X105423571Y-46339047D02*
X105423571Y-45958095D01*
X105233095Y-46910476D02*
X105233095Y-47386666D01*
X104947380Y-46815238D02*
X105947380Y-47148571D01*
X105947380Y-47148571D02*
X104947380Y-47481904D01*
X105947380Y-47720000D02*
X105947380Y-48339047D01*
X105947380Y-48339047D02*
X105566428Y-48005714D01*
X105566428Y-48005714D02*
X105566428Y-48148571D01*
X105566428Y-48148571D02*
X105518809Y-48243809D01*
X105518809Y-48243809D02*
X105471190Y-48291428D01*
X105471190Y-48291428D02*
X105375952Y-48339047D01*
X105375952Y-48339047D02*
X105137857Y-48339047D01*
X105137857Y-48339047D02*
X105042619Y-48291428D01*
X105042619Y-48291428D02*
X104995000Y-48243809D01*
X104995000Y-48243809D02*
X104947380Y-48148571D01*
X104947380Y-48148571D02*
X104947380Y-47862857D01*
X104947380Y-47862857D02*
X104995000Y-47767619D01*
X104995000Y-47767619D02*
X105042619Y-47720000D01*
X105995000Y-49481904D02*
X104709285Y-48624762D01*
X104995000Y-49767619D02*
X104947380Y-49910476D01*
X104947380Y-49910476D02*
X104947380Y-50148571D01*
X104947380Y-50148571D02*
X104995000Y-50243809D01*
X104995000Y-50243809D02*
X105042619Y-50291428D01*
X105042619Y-50291428D02*
X105137857Y-50339047D01*
X105137857Y-50339047D02*
X105233095Y-50339047D01*
X105233095Y-50339047D02*
X105328333Y-50291428D01*
X105328333Y-50291428D02*
X105375952Y-50243809D01*
X105375952Y-50243809D02*
X105423571Y-50148571D01*
X105423571Y-50148571D02*
X105471190Y-49958095D01*
X105471190Y-49958095D02*
X105518809Y-49862857D01*
X105518809Y-49862857D02*
X105566428Y-49815238D01*
X105566428Y-49815238D02*
X105661666Y-49767619D01*
X105661666Y-49767619D02*
X105756904Y-49767619D01*
X105756904Y-49767619D02*
X105852142Y-49815238D01*
X105852142Y-49815238D02*
X105899761Y-49862857D01*
X105899761Y-49862857D02*
X105947380Y-49958095D01*
X105947380Y-49958095D02*
X105947380Y-50196190D01*
X105947380Y-50196190D02*
X105899761Y-50339047D01*
X105042619Y-51339047D02*
X104995000Y-51291428D01*
X104995000Y-51291428D02*
X104947380Y-51148571D01*
X104947380Y-51148571D02*
X104947380Y-51053333D01*
X104947380Y-51053333D02*
X104995000Y-50910476D01*
X104995000Y-50910476D02*
X105090238Y-50815238D01*
X105090238Y-50815238D02*
X105185476Y-50767619D01*
X105185476Y-50767619D02*
X105375952Y-50720000D01*
X105375952Y-50720000D02*
X105518809Y-50720000D01*
X105518809Y-50720000D02*
X105709285Y-50767619D01*
X105709285Y-50767619D02*
X105804523Y-50815238D01*
X105804523Y-50815238D02*
X105899761Y-50910476D01*
X105899761Y-50910476D02*
X105947380Y-51053333D01*
X105947380Y-51053333D02*
X105947380Y-51148571D01*
X105947380Y-51148571D02*
X105899761Y-51291428D01*
X105899761Y-51291428D02*
X105852142Y-51339047D01*
X104947380Y-51767619D02*
X105947380Y-51767619D01*
X104947380Y-52339047D02*
X105518809Y-51910476D01*
X105947380Y-52339047D02*
X105375952Y-51767619D01*
D13*
X114033904Y-73927909D02*
X114033904Y-74774576D01*
X113731523Y-73444100D02*
X113429142Y-74351242D01*
X113429142Y-74351242D02*
X114215333Y-74351242D01*
X115400666Y-73504576D02*
X116186857Y-73504576D01*
X116186857Y-73504576D02*
X115763523Y-73988385D01*
X115763523Y-73988385D02*
X115944952Y-73988385D01*
X115944952Y-73988385D02*
X116065904Y-74048861D01*
X116065904Y-74048861D02*
X116126380Y-74109338D01*
X116126380Y-74109338D02*
X116186857Y-74230290D01*
X116186857Y-74230290D02*
X116186857Y-74532671D01*
X116186857Y-74532671D02*
X116126380Y-74653623D01*
X116126380Y-74653623D02*
X116065904Y-74714100D01*
X116065904Y-74714100D02*
X115944952Y-74774576D01*
X115944952Y-74774576D02*
X115582095Y-74774576D01*
X115582095Y-74774576D02*
X115461142Y-74714100D01*
X115461142Y-74714100D02*
X115400666Y-74653623D01*
D12*
X128807380Y-45958095D02*
X127997857Y-45958095D01*
X127997857Y-45958095D02*
X127902619Y-46005714D01*
X127902619Y-46005714D02*
X127855000Y-46053333D01*
X127855000Y-46053333D02*
X127807380Y-46148571D01*
X127807380Y-46148571D02*
X127807380Y-46339047D01*
X127807380Y-46339047D02*
X127855000Y-46434285D01*
X127855000Y-46434285D02*
X127902619Y-46481904D01*
X127902619Y-46481904D02*
X127997857Y-46529523D01*
X127997857Y-46529523D02*
X128807380Y-46529523D01*
X127807380Y-47005714D02*
X128807380Y-47005714D01*
X128807380Y-47005714D02*
X128807380Y-47386666D01*
X128807380Y-47386666D02*
X128759761Y-47481904D01*
X128759761Y-47481904D02*
X128712142Y-47529523D01*
X128712142Y-47529523D02*
X128616904Y-47577142D01*
X128616904Y-47577142D02*
X128474047Y-47577142D01*
X128474047Y-47577142D02*
X128378809Y-47529523D01*
X128378809Y-47529523D02*
X128331190Y-47481904D01*
X128331190Y-47481904D02*
X128283571Y-47386666D01*
X128283571Y-47386666D02*
X128283571Y-47005714D01*
X127807380Y-48005714D02*
X128807380Y-48005714D01*
X128807380Y-48005714D02*
X128807380Y-48243809D01*
X128807380Y-48243809D02*
X128759761Y-48386666D01*
X128759761Y-48386666D02*
X128664523Y-48481904D01*
X128664523Y-48481904D02*
X128569285Y-48529523D01*
X128569285Y-48529523D02*
X128378809Y-48577142D01*
X128378809Y-48577142D02*
X128235952Y-48577142D01*
X128235952Y-48577142D02*
X128045476Y-48529523D01*
X128045476Y-48529523D02*
X127950238Y-48481904D01*
X127950238Y-48481904D02*
X127855000Y-48386666D01*
X127855000Y-48386666D02*
X127807380Y-48243809D01*
X127807380Y-48243809D02*
X127807380Y-48005714D01*
X127807380Y-49005714D02*
X128807380Y-49005714D01*
D13*
X109969904Y-73504576D02*
X109727999Y-73504576D01*
X109727999Y-73504576D02*
X109607047Y-73565052D01*
X109607047Y-73565052D02*
X109546571Y-73625528D01*
X109546571Y-73625528D02*
X109425618Y-73806957D01*
X109425618Y-73806957D02*
X109365142Y-74048861D01*
X109365142Y-74048861D02*
X109365142Y-74532671D01*
X109365142Y-74532671D02*
X109425618Y-74653623D01*
X109425618Y-74653623D02*
X109486095Y-74714100D01*
X109486095Y-74714100D02*
X109607047Y-74774576D01*
X109607047Y-74774576D02*
X109848952Y-74774576D01*
X109848952Y-74774576D02*
X109969904Y-74714100D01*
X109969904Y-74714100D02*
X110030380Y-74653623D01*
X110030380Y-74653623D02*
X110090857Y-74532671D01*
X110090857Y-74532671D02*
X110090857Y-74230290D01*
X110090857Y-74230290D02*
X110030380Y-74109338D01*
X110030380Y-74109338D02*
X109969904Y-74048861D01*
X109969904Y-74048861D02*
X109848952Y-73988385D01*
X109848952Y-73988385D02*
X109607047Y-73988385D01*
X109607047Y-73988385D02*
X109486095Y-74048861D01*
X109486095Y-74048861D02*
X109425618Y-74109338D01*
X109425618Y-74109338D02*
X109365142Y-74230290D01*
D12*
X117647380Y-45958095D02*
X118647380Y-45958095D01*
X118647380Y-45958095D02*
X118647380Y-46339047D01*
X118647380Y-46339047D02*
X118599761Y-46434285D01*
X118599761Y-46434285D02*
X118552142Y-46481904D01*
X118552142Y-46481904D02*
X118456904Y-46529523D01*
X118456904Y-46529523D02*
X118314047Y-46529523D01*
X118314047Y-46529523D02*
X118218809Y-46481904D01*
X118218809Y-46481904D02*
X118171190Y-46434285D01*
X118171190Y-46434285D02*
X118123571Y-46339047D01*
X118123571Y-46339047D02*
X118123571Y-45958095D01*
X118171190Y-47291428D02*
X118123571Y-47434285D01*
X118123571Y-47434285D02*
X118075952Y-47481904D01*
X118075952Y-47481904D02*
X117980714Y-47529523D01*
X117980714Y-47529523D02*
X117837857Y-47529523D01*
X117837857Y-47529523D02*
X117742619Y-47481904D01*
X117742619Y-47481904D02*
X117695000Y-47434285D01*
X117695000Y-47434285D02*
X117647380Y-47339047D01*
X117647380Y-47339047D02*
X117647380Y-46958095D01*
X117647380Y-46958095D02*
X118647380Y-46958095D01*
X118647380Y-46958095D02*
X118647380Y-47291428D01*
X118647380Y-47291428D02*
X118599761Y-47386666D01*
X118599761Y-47386666D02*
X118552142Y-47434285D01*
X118552142Y-47434285D02*
X118456904Y-47481904D01*
X118456904Y-47481904D02*
X118361666Y-47481904D01*
X118361666Y-47481904D02*
X118266428Y-47434285D01*
X118266428Y-47434285D02*
X118218809Y-47386666D01*
X118218809Y-47386666D02*
X118171190Y-47291428D01*
X118171190Y-47291428D02*
X118171190Y-46958095D01*
X118647380Y-48434285D02*
X118647380Y-47958095D01*
X118647380Y-47958095D02*
X118171190Y-47910476D01*
X118171190Y-47910476D02*
X118218809Y-47958095D01*
X118218809Y-47958095D02*
X118266428Y-48053333D01*
X118266428Y-48053333D02*
X118266428Y-48291428D01*
X118266428Y-48291428D02*
X118218809Y-48386666D01*
X118218809Y-48386666D02*
X118171190Y-48434285D01*
X118171190Y-48434285D02*
X118075952Y-48481904D01*
X118075952Y-48481904D02*
X117837857Y-48481904D01*
X117837857Y-48481904D02*
X117742619Y-48434285D01*
X117742619Y-48434285D02*
X117695000Y-48386666D01*
X117695000Y-48386666D02*
X117647380Y-48291428D01*
X117647380Y-48291428D02*
X117647380Y-48053333D01*
X117647380Y-48053333D02*
X117695000Y-47958095D01*
X117695000Y-47958095D02*
X117742619Y-47910476D01*
D10*
X117626190Y-62135052D02*
X117626190Y-59595052D01*
X117626190Y-59595052D02*
X118230952Y-59595052D01*
X118230952Y-59595052D02*
X118593809Y-59716004D01*
X118593809Y-59716004D02*
X118835714Y-59957909D01*
X118835714Y-59957909D02*
X118956667Y-60199814D01*
X118956667Y-60199814D02*
X119077619Y-60683623D01*
X119077619Y-60683623D02*
X119077619Y-61046480D01*
X119077619Y-61046480D02*
X118956667Y-61530290D01*
X118956667Y-61530290D02*
X118835714Y-61772195D01*
X118835714Y-61772195D02*
X118593809Y-62014100D01*
X118593809Y-62014100D02*
X118230952Y-62135052D01*
X118230952Y-62135052D02*
X117626190Y-62135052D01*
X120045238Y-61409338D02*
X121254762Y-61409338D01*
X119803333Y-62135052D02*
X120650000Y-59595052D01*
X120650000Y-59595052D02*
X121496667Y-62135052D01*
X123794762Y-61893147D02*
X123673810Y-62014100D01*
X123673810Y-62014100D02*
X123310952Y-62135052D01*
X123310952Y-62135052D02*
X123069048Y-62135052D01*
X123069048Y-62135052D02*
X122706191Y-62014100D01*
X122706191Y-62014100D02*
X122464286Y-61772195D01*
X122464286Y-61772195D02*
X122343333Y-61530290D01*
X122343333Y-61530290D02*
X122222381Y-61046480D01*
X122222381Y-61046480D02*
X122222381Y-60683623D01*
X122222381Y-60683623D02*
X122343333Y-60199814D01*
X122343333Y-60199814D02*
X122464286Y-59957909D01*
X122464286Y-59957909D02*
X122706191Y-59716004D01*
X122706191Y-59716004D02*
X123069048Y-59595052D01*
X123069048Y-59595052D02*
X123310952Y-59595052D01*
X123310952Y-59595052D02*
X123673810Y-59716004D01*
X123673810Y-59716004D02*
X123794762Y-59836957D01*
X103535238Y-61409338D02*
X104744762Y-61409338D01*
X103293333Y-62135052D02*
X104140000Y-59595052D01*
X104140000Y-59595052D02*
X104986667Y-62135052D01*
X105833333Y-62135052D02*
X105833333Y-59595052D01*
X105833333Y-59595052D02*
X106438095Y-59595052D01*
X106438095Y-59595052D02*
X106800952Y-59716004D01*
X106800952Y-59716004D02*
X107042857Y-59957909D01*
X107042857Y-59957909D02*
X107163810Y-60199814D01*
X107163810Y-60199814D02*
X107284762Y-60683623D01*
X107284762Y-60683623D02*
X107284762Y-61046480D01*
X107284762Y-61046480D02*
X107163810Y-61530290D01*
X107163810Y-61530290D02*
X107042857Y-61772195D01*
X107042857Y-61772195D02*
X106800952Y-62014100D01*
X106800952Y-62014100D02*
X106438095Y-62135052D01*
X106438095Y-62135052D02*
X105833333Y-62135052D01*
X109824762Y-61893147D02*
X109703810Y-62014100D01*
X109703810Y-62014100D02*
X109340952Y-62135052D01*
X109340952Y-62135052D02*
X109099048Y-62135052D01*
X109099048Y-62135052D02*
X108736191Y-62014100D01*
X108736191Y-62014100D02*
X108494286Y-61772195D01*
X108494286Y-61772195D02*
X108373333Y-61530290D01*
X108373333Y-61530290D02*
X108252381Y-61046480D01*
X108252381Y-61046480D02*
X108252381Y-60683623D01*
X108252381Y-60683623D02*
X108373333Y-60199814D01*
X108373333Y-60199814D02*
X108494286Y-59957909D01*
X108494286Y-59957909D02*
X108736191Y-59716004D01*
X108736191Y-59716004D02*
X109099048Y-59595052D01*
X109099048Y-59595052D02*
X109340952Y-59595052D01*
X109340952Y-59595052D02*
X109703810Y-59716004D01*
X109703810Y-59716004D02*
X109824762Y-59836957D01*
D12*
X129285904Y-63010238D02*
X129190666Y-62962619D01*
X129190666Y-62962619D02*
X129047809Y-62962619D01*
X129047809Y-62962619D02*
X128904952Y-63010238D01*
X128904952Y-63010238D02*
X128809714Y-63105476D01*
X128809714Y-63105476D02*
X128762095Y-63200714D01*
X128762095Y-63200714D02*
X128714476Y-63391190D01*
X128714476Y-63391190D02*
X128714476Y-63534047D01*
X128714476Y-63534047D02*
X128762095Y-63724523D01*
X128762095Y-63724523D02*
X128809714Y-63819761D01*
X128809714Y-63819761D02*
X128904952Y-63915000D01*
X128904952Y-63915000D02*
X129047809Y-63962619D01*
X129047809Y-63962619D02*
X129143047Y-63962619D01*
X129143047Y-63962619D02*
X129285904Y-63915000D01*
X129285904Y-63915000D02*
X129333523Y-63867380D01*
X129333523Y-63867380D02*
X129333523Y-63534047D01*
X129333523Y-63534047D02*
X129143047Y-63534047D01*
X129762095Y-63962619D02*
X129762095Y-62962619D01*
X129762095Y-62962619D02*
X130333523Y-63962619D01*
X130333523Y-63962619D02*
X130333523Y-62962619D01*
X130809714Y-63962619D02*
X130809714Y-62962619D01*
X130809714Y-62962619D02*
X131047809Y-62962619D01*
X131047809Y-62962619D02*
X131190666Y-63010238D01*
X131190666Y-63010238D02*
X131285904Y-63105476D01*
X131285904Y-63105476D02*
X131333523Y-63200714D01*
X131333523Y-63200714D02*
X131381142Y-63391190D01*
X131381142Y-63391190D02*
X131381142Y-63534047D01*
X131381142Y-63534047D02*
X131333523Y-63724523D01*
X131333523Y-63724523D02*
X131285904Y-63819761D01*
X131285904Y-63819761D02*
X131190666Y-63915000D01*
X131190666Y-63915000D02*
X131047809Y-63962619D01*
X131047809Y-63962619D02*
X130809714Y-63962619D01*
X102407380Y-45958095D02*
X103407380Y-45958095D01*
X103407380Y-45958095D02*
X103407380Y-46339047D01*
X103407380Y-46339047D02*
X103359761Y-46434285D01*
X103359761Y-46434285D02*
X103312142Y-46481904D01*
X103312142Y-46481904D02*
X103216904Y-46529523D01*
X103216904Y-46529523D02*
X103074047Y-46529523D01*
X103074047Y-46529523D02*
X102978809Y-46481904D01*
X102978809Y-46481904D02*
X102931190Y-46434285D01*
X102931190Y-46434285D02*
X102883571Y-46339047D01*
X102883571Y-46339047D02*
X102883571Y-45958095D01*
X102693095Y-46910476D02*
X102693095Y-47386666D01*
X102407380Y-46815238D02*
X103407380Y-47148571D01*
X103407380Y-47148571D02*
X102407380Y-47481904D01*
X103074047Y-48243809D02*
X102407380Y-48243809D01*
X103455000Y-48005714D02*
X102740714Y-47767619D01*
X102740714Y-47767619D02*
X102740714Y-48386666D01*
X103455000Y-49481904D02*
X102169285Y-48624762D01*
X102455000Y-49767619D02*
X102407380Y-49910476D01*
X102407380Y-49910476D02*
X102407380Y-50148571D01*
X102407380Y-50148571D02*
X102455000Y-50243809D01*
X102455000Y-50243809D02*
X102502619Y-50291428D01*
X102502619Y-50291428D02*
X102597857Y-50339047D01*
X102597857Y-50339047D02*
X102693095Y-50339047D01*
X102693095Y-50339047D02*
X102788333Y-50291428D01*
X102788333Y-50291428D02*
X102835952Y-50243809D01*
X102835952Y-50243809D02*
X102883571Y-50148571D01*
X102883571Y-50148571D02*
X102931190Y-49958095D01*
X102931190Y-49958095D02*
X102978809Y-49862857D01*
X102978809Y-49862857D02*
X103026428Y-49815238D01*
X103026428Y-49815238D02*
X103121666Y-49767619D01*
X103121666Y-49767619D02*
X103216904Y-49767619D01*
X103216904Y-49767619D02*
X103312142Y-49815238D01*
X103312142Y-49815238D02*
X103359761Y-49862857D01*
X103359761Y-49862857D02*
X103407380Y-49958095D01*
X103407380Y-49958095D02*
X103407380Y-50196190D01*
X103407380Y-50196190D02*
X103359761Y-50339047D01*
X102455000Y-50720000D02*
X102407380Y-50862857D01*
X102407380Y-50862857D02*
X102407380Y-51100952D01*
X102407380Y-51100952D02*
X102455000Y-51196190D01*
X102455000Y-51196190D02*
X102502619Y-51243809D01*
X102502619Y-51243809D02*
X102597857Y-51291428D01*
X102597857Y-51291428D02*
X102693095Y-51291428D01*
X102693095Y-51291428D02*
X102788333Y-51243809D01*
X102788333Y-51243809D02*
X102835952Y-51196190D01*
X102835952Y-51196190D02*
X102883571Y-51100952D01*
X102883571Y-51100952D02*
X102931190Y-50910476D01*
X102931190Y-50910476D02*
X102978809Y-50815238D01*
X102978809Y-50815238D02*
X103026428Y-50767619D01*
X103026428Y-50767619D02*
X103121666Y-50720000D01*
X103121666Y-50720000D02*
X103216904Y-50720000D01*
X103216904Y-50720000D02*
X103312142Y-50767619D01*
X103312142Y-50767619D02*
X103359761Y-50815238D01*
X103359761Y-50815238D02*
X103407380Y-50910476D01*
X103407380Y-50910476D02*
X103407380Y-51148571D01*
X103407380Y-51148571D02*
X103359761Y-51291428D01*
X107487380Y-45958095D02*
X108487380Y-45958095D01*
X108487380Y-45958095D02*
X108487380Y-46339047D01*
X108487380Y-46339047D02*
X108439761Y-46434285D01*
X108439761Y-46434285D02*
X108392142Y-46481904D01*
X108392142Y-46481904D02*
X108296904Y-46529523D01*
X108296904Y-46529523D02*
X108154047Y-46529523D01*
X108154047Y-46529523D02*
X108058809Y-46481904D01*
X108058809Y-46481904D02*
X108011190Y-46434285D01*
X108011190Y-46434285D02*
X107963571Y-46339047D01*
X107963571Y-46339047D02*
X107963571Y-45958095D01*
X107773095Y-46910476D02*
X107773095Y-47386666D01*
X107487380Y-46815238D02*
X108487380Y-47148571D01*
X108487380Y-47148571D02*
X107487380Y-47481904D01*
X108392142Y-47767619D02*
X108439761Y-47815238D01*
X108439761Y-47815238D02*
X108487380Y-47910476D01*
X108487380Y-47910476D02*
X108487380Y-48148571D01*
X108487380Y-48148571D02*
X108439761Y-48243809D01*
X108439761Y-48243809D02*
X108392142Y-48291428D01*
X108392142Y-48291428D02*
X108296904Y-48339047D01*
X108296904Y-48339047D02*
X108201666Y-48339047D01*
X108201666Y-48339047D02*
X108058809Y-48291428D01*
X108058809Y-48291428D02*
X107487380Y-47720000D01*
X107487380Y-47720000D02*
X107487380Y-48339047D01*
X108535000Y-49481904D02*
X107249285Y-48624762D01*
X107487380Y-49815238D02*
X108487380Y-49815238D01*
X108487380Y-49815238D02*
X107773095Y-50148571D01*
X107773095Y-50148571D02*
X108487380Y-50481904D01*
X108487380Y-50481904D02*
X107487380Y-50481904D01*
X107487380Y-50958095D02*
X108487380Y-50958095D01*
X107535000Y-51386666D02*
X107487380Y-51529523D01*
X107487380Y-51529523D02*
X107487380Y-51767618D01*
X107487380Y-51767618D02*
X107535000Y-51862856D01*
X107535000Y-51862856D02*
X107582619Y-51910475D01*
X107582619Y-51910475D02*
X107677857Y-51958094D01*
X107677857Y-51958094D02*
X107773095Y-51958094D01*
X107773095Y-51958094D02*
X107868333Y-51910475D01*
X107868333Y-51910475D02*
X107915952Y-51862856D01*
X107915952Y-51862856D02*
X107963571Y-51767618D01*
X107963571Y-51767618D02*
X108011190Y-51577142D01*
X108011190Y-51577142D02*
X108058809Y-51481904D01*
X108058809Y-51481904D02*
X108106428Y-51434285D01*
X108106428Y-51434285D02*
X108201666Y-51386666D01*
X108201666Y-51386666D02*
X108296904Y-51386666D01*
X108296904Y-51386666D02*
X108392142Y-51434285D01*
X108392142Y-51434285D02*
X108439761Y-51481904D01*
X108439761Y-51481904D02*
X108487380Y-51577142D01*
X108487380Y-51577142D02*
X108487380Y-51815237D01*
X108487380Y-51815237D02*
X108439761Y-51958094D01*
X108487380Y-52577142D02*
X108487380Y-52767618D01*
X108487380Y-52767618D02*
X108439761Y-52862856D01*
X108439761Y-52862856D02*
X108344523Y-52958094D01*
X108344523Y-52958094D02*
X108154047Y-53005713D01*
X108154047Y-53005713D02*
X107820714Y-53005713D01*
X107820714Y-53005713D02*
X107630238Y-52958094D01*
X107630238Y-52958094D02*
X107535000Y-52862856D01*
X107535000Y-52862856D02*
X107487380Y-52767618D01*
X107487380Y-52767618D02*
X107487380Y-52577142D01*
X107487380Y-52577142D02*
X107535000Y-52481904D01*
X107535000Y-52481904D02*
X107630238Y-52386666D01*
X107630238Y-52386666D02*
X107820714Y-52339047D01*
X107820714Y-52339047D02*
X108154047Y-52339047D01*
X108154047Y-52339047D02*
X108344523Y-52386666D01*
X108344523Y-52386666D02*
X108439761Y-52481904D01*
X108439761Y-52481904D02*
X108487380Y-52577142D01*
X108535000Y-54148570D02*
X107249285Y-53291428D01*
X107535000Y-54434285D02*
X107487380Y-54577142D01*
X107487380Y-54577142D02*
X107487380Y-54815237D01*
X107487380Y-54815237D02*
X107535000Y-54910475D01*
X107535000Y-54910475D02*
X107582619Y-54958094D01*
X107582619Y-54958094D02*
X107677857Y-55005713D01*
X107677857Y-55005713D02*
X107773095Y-55005713D01*
X107773095Y-55005713D02*
X107868333Y-54958094D01*
X107868333Y-54958094D02*
X107915952Y-54910475D01*
X107915952Y-54910475D02*
X107963571Y-54815237D01*
X107963571Y-54815237D02*
X108011190Y-54624761D01*
X108011190Y-54624761D02*
X108058809Y-54529523D01*
X108058809Y-54529523D02*
X108106428Y-54481904D01*
X108106428Y-54481904D02*
X108201666Y-54434285D01*
X108201666Y-54434285D02*
X108296904Y-54434285D01*
X108296904Y-54434285D02*
X108392142Y-54481904D01*
X108392142Y-54481904D02*
X108439761Y-54529523D01*
X108439761Y-54529523D02*
X108487380Y-54624761D01*
X108487380Y-54624761D02*
X108487380Y-54862856D01*
X108487380Y-54862856D02*
X108439761Y-55005713D01*
X107582619Y-56005713D02*
X107535000Y-55958094D01*
X107535000Y-55958094D02*
X107487380Y-55815237D01*
X107487380Y-55815237D02*
X107487380Y-55719999D01*
X107487380Y-55719999D02*
X107535000Y-55577142D01*
X107535000Y-55577142D02*
X107630238Y-55481904D01*
X107630238Y-55481904D02*
X107725476Y-55434285D01*
X107725476Y-55434285D02*
X107915952Y-55386666D01*
X107915952Y-55386666D02*
X108058809Y-55386666D01*
X108058809Y-55386666D02*
X108249285Y-55434285D01*
X108249285Y-55434285D02*
X108344523Y-55481904D01*
X108344523Y-55481904D02*
X108439761Y-55577142D01*
X108439761Y-55577142D02*
X108487380Y-55719999D01*
X108487380Y-55719999D02*
X108487380Y-55815237D01*
X108487380Y-55815237D02*
X108439761Y-55958094D01*
X108439761Y-55958094D02*
X108392142Y-56005713D01*
X107487380Y-56910475D02*
X107487380Y-56434285D01*
X107487380Y-56434285D02*
X108487380Y-56434285D01*
D13*
X120250857Y-74774576D02*
X119525142Y-74774576D01*
X119887999Y-74774576D02*
X119887999Y-73504576D01*
X119887999Y-73504576D02*
X119767047Y-73686004D01*
X119767047Y-73686004D02*
X119646095Y-73806957D01*
X119646095Y-73806957D02*
X119525142Y-73867433D01*
D12*
X126219761Y-46481904D02*
X126267380Y-46386666D01*
X126267380Y-46386666D02*
X126267380Y-46243809D01*
X126267380Y-46243809D02*
X126219761Y-46100952D01*
X126219761Y-46100952D02*
X126124523Y-46005714D01*
X126124523Y-46005714D02*
X126029285Y-45958095D01*
X126029285Y-45958095D02*
X125838809Y-45910476D01*
X125838809Y-45910476D02*
X125695952Y-45910476D01*
X125695952Y-45910476D02*
X125505476Y-45958095D01*
X125505476Y-45958095D02*
X125410238Y-46005714D01*
X125410238Y-46005714D02*
X125315000Y-46100952D01*
X125315000Y-46100952D02*
X125267380Y-46243809D01*
X125267380Y-46243809D02*
X125267380Y-46339047D01*
X125267380Y-46339047D02*
X125315000Y-46481904D01*
X125315000Y-46481904D02*
X125362619Y-46529523D01*
X125362619Y-46529523D02*
X125695952Y-46529523D01*
X125695952Y-46529523D02*
X125695952Y-46339047D01*
X125267380Y-46958095D02*
X126267380Y-46958095D01*
X126267380Y-46958095D02*
X125267380Y-47529523D01*
X125267380Y-47529523D02*
X126267380Y-47529523D01*
X125267380Y-48005714D02*
X126267380Y-48005714D01*
X126267380Y-48005714D02*
X126267380Y-48243809D01*
X126267380Y-48243809D02*
X126219761Y-48386666D01*
X126219761Y-48386666D02*
X126124523Y-48481904D01*
X126124523Y-48481904D02*
X126029285Y-48529523D01*
X126029285Y-48529523D02*
X125838809Y-48577142D01*
X125838809Y-48577142D02*
X125695952Y-48577142D01*
X125695952Y-48577142D02*
X125505476Y-48529523D01*
X125505476Y-48529523D02*
X125410238Y-48481904D01*
X125410238Y-48481904D02*
X125315000Y-48386666D01*
X125315000Y-48386666D02*
X125267380Y-48243809D01*
X125267380Y-48243809D02*
X125267380Y-48005714D01*
X110027380Y-45958095D02*
X111027380Y-45958095D01*
X111027380Y-45958095D02*
X111027380Y-46339047D01*
X111027380Y-46339047D02*
X110979761Y-46434285D01*
X110979761Y-46434285D02*
X110932142Y-46481904D01*
X110932142Y-46481904D02*
X110836904Y-46529523D01*
X110836904Y-46529523D02*
X110694047Y-46529523D01*
X110694047Y-46529523D02*
X110598809Y-46481904D01*
X110598809Y-46481904D02*
X110551190Y-46434285D01*
X110551190Y-46434285D02*
X110503571Y-46339047D01*
X110503571Y-46339047D02*
X110503571Y-45958095D01*
X110313095Y-46910476D02*
X110313095Y-47386666D01*
X110027380Y-46815238D02*
X111027380Y-47148571D01*
X111027380Y-47148571D02*
X110027380Y-47481904D01*
X110027380Y-48339047D02*
X110027380Y-47767619D01*
X110027380Y-48053333D02*
X111027380Y-48053333D01*
X111027380Y-48053333D02*
X110884523Y-47958095D01*
X110884523Y-47958095D02*
X110789285Y-47862857D01*
X110789285Y-47862857D02*
X110741666Y-47767619D01*
X111075000Y-49481904D02*
X109789285Y-48624762D01*
X110027380Y-49815238D02*
X111027380Y-49815238D01*
X111027380Y-49815238D02*
X110313095Y-50148571D01*
X110313095Y-50148571D02*
X111027380Y-50481904D01*
X111027380Y-50481904D02*
X110027380Y-50481904D01*
X111027380Y-51148571D02*
X111027380Y-51339047D01*
X111027380Y-51339047D02*
X110979761Y-51434285D01*
X110979761Y-51434285D02*
X110884523Y-51529523D01*
X110884523Y-51529523D02*
X110694047Y-51577142D01*
X110694047Y-51577142D02*
X110360714Y-51577142D01*
X110360714Y-51577142D02*
X110170238Y-51529523D01*
X110170238Y-51529523D02*
X110075000Y-51434285D01*
X110075000Y-51434285D02*
X110027380Y-51339047D01*
X110027380Y-51339047D02*
X110027380Y-51148571D01*
X110027380Y-51148571D02*
X110075000Y-51053333D01*
X110075000Y-51053333D02*
X110170238Y-50958095D01*
X110170238Y-50958095D02*
X110360714Y-50910476D01*
X110360714Y-50910476D02*
X110694047Y-50910476D01*
X110694047Y-50910476D02*
X110884523Y-50958095D01*
X110884523Y-50958095D02*
X110979761Y-51053333D01*
X110979761Y-51053333D02*
X111027380Y-51148571D01*
X110075000Y-51958095D02*
X110027380Y-52100952D01*
X110027380Y-52100952D02*
X110027380Y-52339047D01*
X110027380Y-52339047D02*
X110075000Y-52434285D01*
X110075000Y-52434285D02*
X110122619Y-52481904D01*
X110122619Y-52481904D02*
X110217857Y-52529523D01*
X110217857Y-52529523D02*
X110313095Y-52529523D01*
X110313095Y-52529523D02*
X110408333Y-52481904D01*
X110408333Y-52481904D02*
X110455952Y-52434285D01*
X110455952Y-52434285D02*
X110503571Y-52339047D01*
X110503571Y-52339047D02*
X110551190Y-52148571D01*
X110551190Y-52148571D02*
X110598809Y-52053333D01*
X110598809Y-52053333D02*
X110646428Y-52005714D01*
X110646428Y-52005714D02*
X110741666Y-51958095D01*
X110741666Y-51958095D02*
X110836904Y-51958095D01*
X110836904Y-51958095D02*
X110932142Y-52005714D01*
X110932142Y-52005714D02*
X110979761Y-52053333D01*
X110979761Y-52053333D02*
X111027380Y-52148571D01*
X111027380Y-52148571D02*
X111027380Y-52386666D01*
X111027380Y-52386666D02*
X110979761Y-52529523D01*
X110027380Y-52958095D02*
X111027380Y-52958095D01*
X111075000Y-54148570D02*
X109789285Y-53291428D01*
X110075000Y-54434285D02*
X110027380Y-54577142D01*
X110027380Y-54577142D02*
X110027380Y-54815237D01*
X110027380Y-54815237D02*
X110075000Y-54910475D01*
X110075000Y-54910475D02*
X110122619Y-54958094D01*
X110122619Y-54958094D02*
X110217857Y-55005713D01*
X110217857Y-55005713D02*
X110313095Y-55005713D01*
X110313095Y-55005713D02*
X110408333Y-54958094D01*
X110408333Y-54958094D02*
X110455952Y-54910475D01*
X110455952Y-54910475D02*
X110503571Y-54815237D01*
X110503571Y-54815237D02*
X110551190Y-54624761D01*
X110551190Y-54624761D02*
X110598809Y-54529523D01*
X110598809Y-54529523D02*
X110646428Y-54481904D01*
X110646428Y-54481904D02*
X110741666Y-54434285D01*
X110741666Y-54434285D02*
X110836904Y-54434285D01*
X110836904Y-54434285D02*
X110932142Y-54481904D01*
X110932142Y-54481904D02*
X110979761Y-54529523D01*
X110979761Y-54529523D02*
X111027380Y-54624761D01*
X111027380Y-54624761D02*
X111027380Y-54862856D01*
X111027380Y-54862856D02*
X110979761Y-55005713D01*
X110027380Y-55434285D02*
X111027380Y-55434285D01*
X111027380Y-55434285D02*
X111027380Y-55672380D01*
X111027380Y-55672380D02*
X110979761Y-55815237D01*
X110979761Y-55815237D02*
X110884523Y-55910475D01*
X110884523Y-55910475D02*
X110789285Y-55958094D01*
X110789285Y-55958094D02*
X110598809Y-56005713D01*
X110598809Y-56005713D02*
X110455952Y-56005713D01*
X110455952Y-56005713D02*
X110265476Y-55958094D01*
X110265476Y-55958094D02*
X110170238Y-55910475D01*
X110170238Y-55910475D02*
X110075000Y-55815237D01*
X110075000Y-55815237D02*
X110027380Y-55672380D01*
X110027380Y-55672380D02*
X110027380Y-55434285D01*
X110313095Y-56386666D02*
X110313095Y-56862856D01*
X110027380Y-56291428D02*
X111027380Y-56624761D01*
X111027380Y-56624761D02*
X110027380Y-56958094D01*
X123727380Y-45815238D02*
X122727380Y-46148571D01*
X122727380Y-46148571D02*
X123727380Y-46481904D01*
X122727380Y-46815238D02*
X123727380Y-46815238D01*
X123727380Y-46815238D02*
X123727380Y-47053333D01*
X123727380Y-47053333D02*
X123679761Y-47196190D01*
X123679761Y-47196190D02*
X123584523Y-47291428D01*
X123584523Y-47291428D02*
X123489285Y-47339047D01*
X123489285Y-47339047D02*
X123298809Y-47386666D01*
X123298809Y-47386666D02*
X123155952Y-47386666D01*
X123155952Y-47386666D02*
X122965476Y-47339047D01*
X122965476Y-47339047D02*
X122870238Y-47291428D01*
X122870238Y-47291428D02*
X122775000Y-47196190D01*
X122775000Y-47196190D02*
X122727380Y-47053333D01*
X122727380Y-47053333D02*
X122727380Y-46815238D01*
X122727380Y-47815238D02*
X123727380Y-47815238D01*
X123727380Y-47815238D02*
X123727380Y-48053333D01*
X123727380Y-48053333D02*
X123679761Y-48196190D01*
X123679761Y-48196190D02*
X123584523Y-48291428D01*
X123584523Y-48291428D02*
X123489285Y-48339047D01*
X123489285Y-48339047D02*
X123298809Y-48386666D01*
X123298809Y-48386666D02*
X123155952Y-48386666D01*
X123155952Y-48386666D02*
X122965476Y-48339047D01*
X122965476Y-48339047D02*
X122870238Y-48291428D01*
X122870238Y-48291428D02*
X122775000Y-48196190D01*
X122775000Y-48196190D02*
X122727380Y-48053333D01*
X122727380Y-48053333D02*
X122727380Y-47815238D01*
X100819761Y-46481904D02*
X100867380Y-46386666D01*
X100867380Y-46386666D02*
X100867380Y-46243809D01*
X100867380Y-46243809D02*
X100819761Y-46100952D01*
X100819761Y-46100952D02*
X100724523Y-46005714D01*
X100724523Y-46005714D02*
X100629285Y-45958095D01*
X100629285Y-45958095D02*
X100438809Y-45910476D01*
X100438809Y-45910476D02*
X100295952Y-45910476D01*
X100295952Y-45910476D02*
X100105476Y-45958095D01*
X100105476Y-45958095D02*
X100010238Y-46005714D01*
X100010238Y-46005714D02*
X99915000Y-46100952D01*
X99915000Y-46100952D02*
X99867380Y-46243809D01*
X99867380Y-46243809D02*
X99867380Y-46339047D01*
X99867380Y-46339047D02*
X99915000Y-46481904D01*
X99915000Y-46481904D02*
X99962619Y-46529523D01*
X99962619Y-46529523D02*
X100295952Y-46529523D01*
X100295952Y-46529523D02*
X100295952Y-46339047D01*
X99867380Y-46958095D02*
X100867380Y-46958095D01*
X100867380Y-46958095D02*
X99867380Y-47529523D01*
X99867380Y-47529523D02*
X100867380Y-47529523D01*
X99867380Y-48005714D02*
X100867380Y-48005714D01*
X100867380Y-48005714D02*
X100867380Y-48243809D01*
X100867380Y-48243809D02*
X100819761Y-48386666D01*
X100819761Y-48386666D02*
X100724523Y-48481904D01*
X100724523Y-48481904D02*
X100629285Y-48529523D01*
X100629285Y-48529523D02*
X100438809Y-48577142D01*
X100438809Y-48577142D02*
X100295952Y-48577142D01*
X100295952Y-48577142D02*
X100105476Y-48529523D01*
X100105476Y-48529523D02*
X100010238Y-48481904D01*
X100010238Y-48481904D02*
X99915000Y-48386666D01*
X99915000Y-48386666D02*
X99867380Y-48243809D01*
X99867380Y-48243809D02*
X99867380Y-48005714D01*
X116059761Y-46481904D02*
X116107380Y-46386666D01*
X116107380Y-46386666D02*
X116107380Y-46243809D01*
X116107380Y-46243809D02*
X116059761Y-46100952D01*
X116059761Y-46100952D02*
X115964523Y-46005714D01*
X115964523Y-46005714D02*
X115869285Y-45958095D01*
X115869285Y-45958095D02*
X115678809Y-45910476D01*
X115678809Y-45910476D02*
X115535952Y-45910476D01*
X115535952Y-45910476D02*
X115345476Y-45958095D01*
X115345476Y-45958095D02*
X115250238Y-46005714D01*
X115250238Y-46005714D02*
X115155000Y-46100952D01*
X115155000Y-46100952D02*
X115107380Y-46243809D01*
X115107380Y-46243809D02*
X115107380Y-46339047D01*
X115107380Y-46339047D02*
X115155000Y-46481904D01*
X115155000Y-46481904D02*
X115202619Y-46529523D01*
X115202619Y-46529523D02*
X115535952Y-46529523D01*
X115535952Y-46529523D02*
X115535952Y-46339047D01*
X115107380Y-46958095D02*
X116107380Y-46958095D01*
X116107380Y-46958095D02*
X115107380Y-47529523D01*
X115107380Y-47529523D02*
X116107380Y-47529523D01*
X115107380Y-48005714D02*
X116107380Y-48005714D01*
X116107380Y-48005714D02*
X116107380Y-48243809D01*
X116107380Y-48243809D02*
X116059761Y-48386666D01*
X116059761Y-48386666D02*
X115964523Y-48481904D01*
X115964523Y-48481904D02*
X115869285Y-48529523D01*
X115869285Y-48529523D02*
X115678809Y-48577142D01*
X115678809Y-48577142D02*
X115535952Y-48577142D01*
X115535952Y-48577142D02*
X115345476Y-48529523D01*
X115345476Y-48529523D02*
X115250238Y-48481904D01*
X115250238Y-48481904D02*
X115155000Y-48386666D01*
X115155000Y-48386666D02*
X115107380Y-48243809D01*
X115107380Y-48243809D02*
X115107380Y-48005714D01*
X112394952Y-62298190D02*
X112299714Y-62250571D01*
X112299714Y-62250571D02*
X112252095Y-62202952D01*
X112252095Y-62202952D02*
X112204476Y-62107714D01*
X112204476Y-62107714D02*
X112204476Y-62060095D01*
X112204476Y-62060095D02*
X112252095Y-61964857D01*
X112252095Y-61964857D02*
X112299714Y-61917238D01*
X112299714Y-61917238D02*
X112394952Y-61869619D01*
X112394952Y-61869619D02*
X112585428Y-61869619D01*
X112585428Y-61869619D02*
X112680666Y-61917238D01*
X112680666Y-61917238D02*
X112728285Y-61964857D01*
X112728285Y-61964857D02*
X112775904Y-62060095D01*
X112775904Y-62060095D02*
X112775904Y-62107714D01*
X112775904Y-62107714D02*
X112728285Y-62202952D01*
X112728285Y-62202952D02*
X112680666Y-62250571D01*
X112680666Y-62250571D02*
X112585428Y-62298190D01*
X112585428Y-62298190D02*
X112394952Y-62298190D01*
X112394952Y-62298190D02*
X112299714Y-62345809D01*
X112299714Y-62345809D02*
X112252095Y-62393428D01*
X112252095Y-62393428D02*
X112204476Y-62488666D01*
X112204476Y-62488666D02*
X112204476Y-62679142D01*
X112204476Y-62679142D02*
X112252095Y-62774380D01*
X112252095Y-62774380D02*
X112299714Y-62822000D01*
X112299714Y-62822000D02*
X112394952Y-62869619D01*
X112394952Y-62869619D02*
X112585428Y-62869619D01*
X112585428Y-62869619D02*
X112680666Y-62822000D01*
X112680666Y-62822000D02*
X112728285Y-62774380D01*
X112728285Y-62774380D02*
X112775904Y-62679142D01*
X112775904Y-62679142D02*
X112775904Y-62488666D01*
X112775904Y-62488666D02*
X112728285Y-62393428D01*
X112728285Y-62393428D02*
X112680666Y-62345809D01*
X112680666Y-62345809D02*
X112585428Y-62298190D01*
X113204476Y-62869619D02*
X113204476Y-61869619D01*
X113204476Y-62250571D02*
X113299714Y-62202952D01*
X113299714Y-62202952D02*
X113490190Y-62202952D01*
X113490190Y-62202952D02*
X113585428Y-62250571D01*
X113585428Y-62250571D02*
X113633047Y-62298190D01*
X113633047Y-62298190D02*
X113680666Y-62393428D01*
X113680666Y-62393428D02*
X113680666Y-62679142D01*
X113680666Y-62679142D02*
X113633047Y-62774380D01*
X113633047Y-62774380D02*
X113585428Y-62822000D01*
X113585428Y-62822000D02*
X113490190Y-62869619D01*
X113490190Y-62869619D02*
X113299714Y-62869619D01*
X113299714Y-62869619D02*
X113204476Y-62822000D01*
%TO.C,RV1*%
X134659761Y-50642619D02*
X134326428Y-50166428D01*
X134088333Y-50642619D02*
X134088333Y-49642619D01*
X134088333Y-49642619D02*
X134469285Y-49642619D01*
X134469285Y-49642619D02*
X134564523Y-49690238D01*
X134564523Y-49690238D02*
X134612142Y-49737857D01*
X134612142Y-49737857D02*
X134659761Y-49833095D01*
X134659761Y-49833095D02*
X134659761Y-49975952D01*
X134659761Y-49975952D02*
X134612142Y-50071190D01*
X134612142Y-50071190D02*
X134564523Y-50118809D01*
X134564523Y-50118809D02*
X134469285Y-50166428D01*
X134469285Y-50166428D02*
X134088333Y-50166428D01*
X134945476Y-49642619D02*
X135278809Y-50642619D01*
X135278809Y-50642619D02*
X135612142Y-49642619D01*
X136469285Y-50642619D02*
X135897857Y-50642619D01*
X136183571Y-50642619D02*
X136183571Y-49642619D01*
X136183571Y-49642619D02*
X136088333Y-49785476D01*
X136088333Y-49785476D02*
X135993095Y-49880714D01*
X135993095Y-49880714D02*
X135897857Y-49928333D01*
D14*
%TO.C,J1*%
X90710000Y-65170000D02*
X94710000Y-65170000D01*
X89680000Y-64880000D02*
X95700000Y-64880000D01*
X95700000Y-64880000D02*
X95700000Y-59580000D01*
X89680000Y-64300000D02*
X90280000Y-64300000D01*
X90280000Y-64300000D02*
X90280000Y-62700000D01*
X94700000Y-63500000D02*
X94170000Y-63250000D01*
X94700000Y-63500000D02*
X94700000Y-60960000D01*
X95700000Y-63500000D02*
X94700000Y-63500000D01*
X94170000Y-63250000D02*
X94170000Y-61210000D01*
X95700000Y-63250000D02*
X94700000Y-63250000D01*
X90280000Y-62700000D02*
X89680000Y-62700000D01*
X89680000Y-61760000D02*
X90280000Y-61760000D01*
X90280000Y-61760000D02*
X90280000Y-60160000D01*
X94170000Y-61210000D02*
X94700000Y-60960000D01*
X95700000Y-61210000D02*
X94700000Y-61210000D01*
X94700000Y-60960000D02*
X95700000Y-60960000D01*
X90280000Y-60160000D02*
X89680000Y-60160000D01*
X89680000Y-59580000D02*
X89680000Y-64880000D01*
X95700000Y-59580000D02*
X89680000Y-59580000D01*
%TO.C,D4*%
X114779000Y-69461000D02*
X112859000Y-69461000D01*
X112859000Y-69461000D02*
X112859000Y-72146000D01*
X114779000Y-72146000D02*
X114779000Y-69461000D01*
%TO.C,RV1*%
X130750000Y-46945000D02*
X132080000Y-46945000D01*
X130750000Y-48275000D02*
X130750000Y-46945000D01*
X130750000Y-49545000D02*
X130750000Y-54685000D01*
X130750000Y-49545000D02*
X133410000Y-49545000D01*
X130750000Y-54685000D02*
X133410000Y-54685000D01*
X133410000Y-49545000D02*
X133410000Y-54685000D01*
%TO.C,R1*%
X120623000Y-67362936D02*
X120623000Y-67817064D01*
X119153000Y-67362936D02*
X119153000Y-67817064D01*
%TO.C,D5*%
X112747000Y-69461000D02*
X110827000Y-69461000D01*
X110827000Y-69461000D02*
X110827000Y-72146000D01*
X112747000Y-72146000D02*
X112747000Y-69461000D01*
%TO.C,J3*%
X113900000Y-39910000D02*
X113900000Y-43910000D01*
X114190000Y-38880000D02*
X114190000Y-44900000D01*
X114190000Y-44900000D02*
X119490000Y-44900000D01*
X114770000Y-38880000D02*
X114770000Y-39480000D01*
X114770000Y-39480000D02*
X116370000Y-39480000D01*
X115570000Y-43900000D02*
X115820000Y-43370000D01*
X115570000Y-43900000D02*
X118110000Y-43900000D01*
X115570000Y-44900000D02*
X115570000Y-43900000D01*
X115820000Y-43370000D02*
X117860000Y-43370000D01*
X115820000Y-44900000D02*
X115820000Y-43900000D01*
X116370000Y-39480000D02*
X116370000Y-38880000D01*
X117310000Y-38880000D02*
X117310000Y-39480000D01*
X117310000Y-39480000D02*
X118910000Y-39480000D01*
X117860000Y-43370000D02*
X118110000Y-43900000D01*
X117860000Y-44900000D02*
X117860000Y-43900000D01*
X118110000Y-43900000D02*
X118110000Y-44900000D01*
X118910000Y-39480000D02*
X118910000Y-38880000D01*
X119490000Y-38880000D02*
X114190000Y-38880000D01*
X119490000Y-44900000D02*
X119490000Y-38880000D01*
%TO.C,R3*%
X116559000Y-67362936D02*
X116559000Y-67817064D01*
X115089000Y-67362936D02*
X115089000Y-67817064D01*
%TO.C,R0*%
X122655000Y-67362936D02*
X122655000Y-67817064D01*
X121185000Y-67362936D02*
X121185000Y-67817064D01*
%TO.C,J2*%
X137890000Y-59290000D02*
X133890000Y-59290000D01*
X138920000Y-59580000D02*
X132900000Y-59580000D01*
X132900000Y-59580000D02*
X132900000Y-64880000D01*
X138920000Y-60160000D02*
X138320000Y-60160000D01*
X138320000Y-60160000D02*
X138320000Y-61760000D01*
X133900000Y-60960000D02*
X134430000Y-61210000D01*
X133900000Y-60960000D02*
X133900000Y-63500000D01*
X132900000Y-60960000D02*
X133900000Y-60960000D01*
X134430000Y-61210000D02*
X134430000Y-63250000D01*
X132900000Y-61210000D02*
X133900000Y-61210000D01*
X138320000Y-61760000D02*
X138920000Y-61760000D01*
X138920000Y-62700000D02*
X138320000Y-62700000D01*
X138320000Y-62700000D02*
X138320000Y-64300000D01*
X134430000Y-63250000D02*
X133900000Y-63500000D01*
X132900000Y-63250000D02*
X133900000Y-63250000D01*
X133900000Y-63500000D02*
X132900000Y-63500000D01*
X138320000Y-64300000D02*
X138920000Y-64300000D01*
X138920000Y-64880000D02*
X138920000Y-59580000D01*
X132900000Y-64880000D02*
X138920000Y-64880000D01*
%TO.C,R2*%
X118591000Y-67362936D02*
X118591000Y-67817064D01*
X117121000Y-67362936D02*
X117121000Y-67817064D01*
%TO.C,D2*%
X118843000Y-69461000D02*
X116923000Y-69461000D01*
X116923000Y-69461000D02*
X116923000Y-72146000D01*
X118843000Y-72146000D02*
X118843000Y-69461000D01*
%TO.C,R7*%
X108431000Y-67362936D02*
X108431000Y-67817064D01*
X106961000Y-67362936D02*
X106961000Y-67817064D01*
%TO.C,R8*%
X125653436Y-49303000D02*
X126107564Y-49303000D01*
X125653436Y-50773000D02*
X126107564Y-50773000D01*
%TO.C,D1*%
X120848000Y-69461000D02*
X118928000Y-69461000D01*
X118928000Y-69461000D02*
X118928000Y-72146000D01*
X120848000Y-72146000D02*
X120848000Y-69461000D01*
%TO.C,U2*%
X113960000Y-51730000D02*
X114410000Y-51730000D01*
X117180000Y-52180000D02*
X117180000Y-51730000D01*
X113960000Y-52180000D02*
X113960000Y-51730000D01*
X117180000Y-54500000D02*
X117180000Y-54950000D01*
X113960000Y-54500000D02*
X113960000Y-54950000D01*
X117180000Y-54950000D02*
X116730000Y-54950000D01*
X113960000Y-54950000D02*
X114410000Y-54950000D01*
%TO.C,C1*%
X126141752Y-52805000D02*
X125619248Y-52805000D01*
X126141752Y-51335000D02*
X125619248Y-51335000D01*
%TO.C,D0*%
X122880000Y-69461000D02*
X120960000Y-69461000D01*
X120960000Y-69461000D02*
X120960000Y-72146000D01*
X122880000Y-72146000D02*
X122880000Y-69461000D01*
%TO.C,R5*%
X112477000Y-67362936D02*
X112477000Y-67817064D01*
X111007000Y-67362936D02*
X111007000Y-67817064D01*
%TO.C,D6*%
X110715000Y-69461000D02*
X108795000Y-69461000D01*
X108795000Y-69461000D02*
X108795000Y-72146000D01*
X110715000Y-72146000D02*
X110715000Y-69461000D01*
%TO.C,C5*%
X120642748Y-51335000D02*
X121165252Y-51335000D01*
X120642748Y-52805000D02*
X121165252Y-52805000D01*
%TO.C,J5*%
X121520000Y-39910000D02*
X121520000Y-43910000D01*
X121810000Y-38880000D02*
X121810000Y-44900000D01*
X121810000Y-44900000D02*
X129650000Y-44900000D01*
X122390000Y-38880000D02*
X122390000Y-39480000D01*
X122390000Y-39480000D02*
X123990000Y-39480000D01*
X123190000Y-43900000D02*
X123440000Y-43370000D01*
X123190000Y-43900000D02*
X128270000Y-43900000D01*
X123190000Y-44900000D02*
X123190000Y-43900000D01*
X123440000Y-43370000D02*
X128020000Y-43370000D01*
X123440000Y-44900000D02*
X123440000Y-43900000D01*
X123990000Y-39480000D02*
X123990000Y-38880000D01*
X124930000Y-38880000D02*
X124930000Y-39480000D01*
X124930000Y-39480000D02*
X126530000Y-39480000D01*
X126530000Y-39480000D02*
X126530000Y-38880000D01*
X127470000Y-38880000D02*
X127470000Y-39480000D01*
X127470000Y-39480000D02*
X129070000Y-39480000D01*
X128020000Y-43370000D02*
X128270000Y-43900000D01*
X128020000Y-44900000D02*
X128020000Y-43900000D01*
X128270000Y-43900000D02*
X128270000Y-44900000D01*
X129070000Y-39480000D02*
X129070000Y-38880000D01*
X129650000Y-38880000D02*
X121810000Y-38880000D01*
X129650000Y-44900000D02*
X129650000Y-38880000D01*
%TO.C,D3*%
X116811000Y-69461000D02*
X114891000Y-69461000D01*
X114891000Y-69461000D02*
X114891000Y-72146000D01*
X116811000Y-72146000D02*
X116811000Y-69461000D01*
%TO.C,D7*%
X108683000Y-69461000D02*
X106763000Y-69461000D01*
X106763000Y-69461000D02*
X106763000Y-72146000D01*
X108683000Y-72146000D02*
X108683000Y-69461000D01*
%TO.C,R10*%
X135281936Y-56415000D02*
X135736064Y-56415000D01*
X135281936Y-57885000D02*
X135736064Y-57885000D01*
%TO.C,R4*%
X114527000Y-67362936D02*
X114527000Y-67817064D01*
X113057000Y-67362936D02*
X113057000Y-67817064D01*
%TO.C,D10*%
X119294000Y-49188000D02*
X119294000Y-50888000D01*
X119294000Y-49188000D02*
X121954000Y-49188000D01*
X119294000Y-50888000D02*
X121954000Y-50888000D01*
%TO.C,J4*%
X98660000Y-39910000D02*
X98660000Y-43910000D01*
X98950000Y-38880000D02*
X98950000Y-44900000D01*
X98950000Y-44900000D02*
X111870000Y-44900000D01*
X99530000Y-38880000D02*
X99530000Y-39480000D01*
X99530000Y-39480000D02*
X101130000Y-39480000D01*
X100330000Y-43900000D02*
X100580000Y-43370000D01*
X100330000Y-43900000D02*
X110490000Y-43900000D01*
X100330000Y-44900000D02*
X100330000Y-43900000D01*
X100580000Y-43370000D02*
X110240000Y-43370000D01*
X100580000Y-44900000D02*
X100580000Y-43900000D01*
X101130000Y-39480000D02*
X101130000Y-38880000D01*
X102070000Y-38880000D02*
X102070000Y-39480000D01*
X102070000Y-39480000D02*
X103670000Y-39480000D01*
X103670000Y-39480000D02*
X103670000Y-38880000D01*
X104610000Y-38880000D02*
X104610000Y-39480000D01*
X104610000Y-39480000D02*
X106210000Y-39480000D01*
X106210000Y-39480000D02*
X106210000Y-38880000D01*
X107150000Y-38880000D02*
X107150000Y-39480000D01*
X107150000Y-39480000D02*
X108750000Y-39480000D01*
X108750000Y-39480000D02*
X108750000Y-38880000D01*
X109690000Y-38880000D02*
X109690000Y-39480000D01*
X109690000Y-39480000D02*
X111290000Y-39480000D01*
X110240000Y-43370000D02*
X110490000Y-43900000D01*
X110240000Y-44900000D02*
X110240000Y-43900000D01*
X110490000Y-43900000D02*
X110490000Y-44900000D01*
X111290000Y-39480000D02*
X111290000Y-38880000D01*
X111870000Y-38880000D02*
X98950000Y-38880000D01*
X111870000Y-44900000D02*
X111870000Y-38880000D01*
%TO.C,R6*%
X110463000Y-67362936D02*
X110463000Y-67817064D01*
X108993000Y-67362936D02*
X108993000Y-67817064D01*
%TO.C,R9*%
X92736936Y-56415000D02*
X93191064Y-56415000D01*
X92736936Y-57885000D02*
X93191064Y-57885000D01*
%TD*%
%LPC*%
D15*
%TO.C,J1*%
X92710000Y-63500000D03*
D16*
X92710000Y-60960000D03*
%TD*%
D17*
%TO.C,H3*%
X135890000Y-72390000D03*
%TD*%
D18*
%TO.C,D4*%
X113819000Y-70208500D03*
X113819000Y-72083500D03*
%TD*%
D19*
%TO.C,RV1*%
X132080000Y-48275000D03*
D20*
X132080000Y-50815000D03*
X132080000Y-53355000D03*
%TD*%
D21*
%TO.C,R1*%
X119888000Y-66677500D03*
X119888000Y-68502500D03*
%TD*%
D18*
%TO.C,D5*%
X111787000Y-70208500D03*
X111787000Y-72083500D03*
%TD*%
D22*
%TO.C,J3*%
X115570000Y-41910000D03*
D23*
X118110000Y-41910000D03*
%TD*%
D21*
%TO.C,R3*%
X115824000Y-66677500D03*
X115824000Y-68502500D03*
%TD*%
%TO.C,R0*%
X121920000Y-66677500D03*
X121920000Y-68502500D03*
%TD*%
D24*
%TO.C,J2*%
X135890000Y-60960000D03*
D16*
X135890000Y-63500000D03*
%TD*%
D21*
%TO.C,R2*%
X117856000Y-66677500D03*
X117856000Y-68502500D03*
%TD*%
D18*
%TO.C,D2*%
X117883000Y-70208500D03*
X117883000Y-72083500D03*
%TD*%
D21*
%TO.C,R7*%
X107696000Y-66677500D03*
X107696000Y-68502500D03*
%TD*%
D25*
%TO.C,R8*%
X124968000Y-50038000D03*
X126793000Y-50038000D03*
%TD*%
D18*
%TO.C,D1*%
X119888000Y-70208500D03*
X119888000Y-72083500D03*
%TD*%
D26*
%TO.C,U2*%
X116370000Y-51890000D03*
D27*
X115970000Y-51890000D03*
X115570000Y-51890000D03*
X115170000Y-51890000D03*
D28*
X114770000Y-51890000D03*
D29*
X114120000Y-52540000D03*
D30*
X114120000Y-52940000D03*
X114120000Y-53340000D03*
X114120000Y-53740000D03*
D31*
X114120000Y-54140000D03*
D32*
X114770000Y-54790000D03*
D27*
X115170000Y-54790000D03*
X115570000Y-54790000D03*
X115970000Y-54790000D03*
D33*
X116370000Y-54790000D03*
D34*
X117020000Y-54140000D03*
D30*
X117020000Y-53740000D03*
X117020000Y-53340000D03*
X117020000Y-52940000D03*
D35*
X117020000Y-52540000D03*
D19*
X115570000Y-53340000D03*
%TD*%
D17*
%TO.C,H4*%
X135890000Y-41910000D03*
%TD*%
D36*
%TO.C,C1*%
X126830500Y-52070000D03*
X124930500Y-52070000D03*
%TD*%
D18*
%TO.C,D0*%
X121920000Y-70208500D03*
X121920000Y-72083500D03*
%TD*%
D21*
%TO.C,R5*%
X111742000Y-66677500D03*
X111742000Y-68502500D03*
%TD*%
D17*
%TO.C,H1*%
X92710000Y-41910000D03*
%TD*%
D18*
%TO.C,D6*%
X109755000Y-70208500D03*
X109755000Y-72083500D03*
%TD*%
D17*
%TO.C,H2*%
X92710000Y-72390000D03*
%TD*%
D37*
%TO.C,C5*%
X119954000Y-52070000D03*
X121854000Y-52070000D03*
%TD*%
D22*
%TO.C,J5*%
X123190000Y-41910000D03*
D23*
X125730000Y-41910000D03*
X128270000Y-41910000D03*
%TD*%
D18*
%TO.C,D3*%
X115851000Y-70208500D03*
X115851000Y-72083500D03*
%TD*%
%TO.C,D7*%
X107723000Y-70208500D03*
X107723000Y-72083500D03*
%TD*%
D25*
%TO.C,R10*%
X134596500Y-57150000D03*
X136421500Y-57150000D03*
%TD*%
D21*
%TO.C,R4*%
X113792000Y-66677500D03*
X113792000Y-68502500D03*
%TD*%
D38*
%TO.C,D10*%
X119854000Y-50038000D03*
X121954000Y-50038000D03*
%TD*%
D22*
%TO.C,J4*%
X100330000Y-41910000D03*
D23*
X102870000Y-41910000D03*
X105410000Y-41910000D03*
X107950000Y-41910000D03*
X110490000Y-41910000D03*
%TD*%
D21*
%TO.C,R6*%
X109728000Y-66677500D03*
X109728000Y-68502500D03*
%TD*%
D25*
%TO.C,R9*%
X92051500Y-57150000D03*
X93876500Y-57150000D03*
%TD*%
M02*
